<svg width="22" height="28" viewBox="0 0 22 28" fill="none" xmlns="http://www.w3.org/2000/svg">
<path d="M19.0007 15.5734V11.3334C18.9987 9.44425 18.3283 7.61671 17.1081 6.17445C15.8879 4.73219 14.1967 3.76828 12.334 3.45341V2.00008C12.334 1.64646 12.1935 1.30732 11.9435 1.05727C11.6934 0.807224 11.3543 0.666748 11.0007 0.666748C10.647 0.666748 10.3079 0.807224 10.0578 1.05727C9.80779 1.30732 9.66732 1.64646 9.66732 2.00008V3.45341C7.80457 3.76828 6.11335 4.73219 4.89316 6.17445C3.67298 7.61671 3.00257 9.44425 3.00065 11.3334V15.5734C2.22258 15.8485 1.54865 16.3575 1.07124 17.0307C0.593822 17.7038 0.336304 18.5082 0.333984 19.3334V22.0001C0.333984 22.3537 0.47446 22.6928 0.724509 22.9429C0.974557 23.1929 1.3137 23.3334 1.66732 23.3334H5.85398C6.16103 24.4632 6.83132 25.4606 7.76145 26.1717C8.69157 26.8828 9.82985 27.2681 11.0007 27.2681C12.1715 27.2681 13.3097 26.8828 14.2399 26.1717C15.17 25.4606 15.8403 24.4632 16.1473 23.3334H20.334C20.6876 23.3334 21.0267 23.1929 21.2768 22.9429C21.5268 22.6928 21.6673 22.3537 21.6673 22.0001V19.3334C21.665 18.5082 21.4075 17.7038 20.9301 17.0307C20.4527 16.3575 19.7787 15.8485 19.0007 15.5734ZM5.66732 11.3334C5.66732 9.91893 6.22922 8.56237 7.22941 7.56218C8.22961 6.56198 9.58616 6.00008 11.0007 6.00008C12.4151 6.00008 13.7717 6.56198 14.7719 7.56218C15.7721 8.56237 16.334 9.91893 16.334 11.3334V15.3334H5.66732V11.3334ZM11.0007 24.6667C10.5353 24.6639 10.0787 24.5394 9.67642 24.3055C9.2741 24.0716 8.94 23.7365 8.70732 23.3334H13.294C13.0613 23.7365 12.7272 24.0716 12.3249 24.3055C11.9226 24.5394 11.466 24.6639 11.0007 24.6667ZM19.0007 20.6667H3.00065V19.3334C3.00065 18.9798 3.14113 18.6407 3.39118 18.3906C3.64122 18.1406 3.98036 18.0001 4.33398 18.0001H17.6673C18.0209 18.0001 18.3601 18.1406 18.6101 18.3906C18.8602 18.6407 19.0007 18.9798 19.0007 19.3334V20.6667Z" fill="#14141F"/>
</svg>
