<svg width="300" height="300" viewBox="0 0 300 300" fill="none" xmlns="http://www.w3.org/2000/svg">
<g clip-path="url(#clip0_3999_2262)">
<path opacity="0.2" d="M250.822 202.128C250.581 202.188 250.33 202.199 250.084 202.161C249.838 202.123 249.602 202.037 249.39 201.907C249.178 201.776 248.994 201.605 248.848 201.403C248.703 201.202 248.599 200.973 248.543 200.73C248.487 200.488 248.48 200.237 248.522 199.991C248.564 199.746 248.655 199.512 248.788 199.302C248.922 199.092 249.096 198.91 249.3 198.769C249.505 198.627 249.735 198.527 249.979 198.475C250.512 198.349 259.975 196.26 268.143 200.197C284.162 183.275 288.773 162.823 272.991 142.588C221.449 76.5 287.347 98.877 236.956 40.9277C210.439 10.418 170.587 9.13184 137.109 19.8018C138.53 23.7451 139.043 28.3857 137.221 33.3223C137.136 33.5531 137.006 33.7649 136.839 33.9457C136.672 34.1264 136.471 34.2725 136.248 34.3756C136.025 34.4787 135.783 34.5368 135.537 34.5466C135.292 34.5564 135.046 34.5176 134.815 34.4326C134.585 34.3476 134.373 34.2179 134.192 34.051C134.011 33.8841 133.865 33.6833 133.762 33.4599C133.659 33.2366 133.601 32.9951 133.591 32.7493C133.581 32.5035 133.62 32.2582 133.705 32.0273C135.17 28.084 134.71 24.2842 133.506 20.9971C105 30.958 81.7822 49.3477 76.5791 65.0947C72.2725 78.123 62.1826 86.874 55.3506 92.8711C44.4609 102.434 32.9912 109.028 30.4307 126.598C29.6191 132.164 29.1182 137.083 29.1504 141.668C34.3711 142.312 40.3711 144.472 44.3145 150.384C44.4512 150.589 44.5462 150.819 44.594 151.061C44.6418 151.302 44.6414 151.551 44.593 151.793C44.5446 152.034 44.449 152.264 44.3117 152.469C44.1744 152.673 43.9982 152.849 43.793 152.985C43.3791 153.261 42.873 153.36 42.3857 153.262C41.8985 153.165 41.4699 152.877 41.1943 152.464C38.1914 147.964 33.5449 146.145 29.3145 145.506C30.873 164.953 44.0215 179.73 88.0225 217.119C135.744 257.669 227.071 239.514 265.269 203.057C258.495 200.429 250.928 202.102 250.822 202.128Z" fill="#B9B9B9"/>
<path d="M85.1983 70.7285C85.2661 70.8117 85.3111 70.9111 85.3291 71.017C85.347 71.1228 85.3372 71.2315 85.3006 71.3324C85.264 71.4334 85.2019 71.5231 85.1203 71.5928C85.0387 71.6626 84.9404 71.71 84.835 71.7305L65.9209 75.5391C65.8405 75.5552 65.7577 75.5554 65.6772 75.5395C65.5968 75.5237 65.5202 75.4922 65.4519 75.4467C65.3836 75.4013 65.325 75.3429 65.2793 75.2748C65.2336 75.2066 65.2017 75.1302 65.1856 75.0498C65.1694 74.9694 65.1693 74.8866 65.1851 74.8061C65.2009 74.7256 65.2325 74.6491 65.2779 74.5808C65.3233 74.5125 65.3818 74.4538 65.4499 74.4081C65.518 74.3624 65.5944 74.3306 65.6748 74.3144L84.5889 70.5059C84.7011 70.4835 84.8173 70.4925 84.9248 70.5318C85.0323 70.571 85.1269 70.6391 85.1983 70.7285Z" fill="#040000"/>
<path d="M92.9443 41.6602C92.9833 41.7116 93.0157 41.7677 93.0409 41.8272L96.4599 50.8184C96.4891 50.8949 96.503 50.9765 96.5007 51.0584C96.4984 51.1404 96.48 51.221 96.4466 51.2958C96.4131 51.3707 96.3652 51.4382 96.3057 51.4945C96.2461 51.5508 96.1761 51.5948 96.0995 51.624C95.9444 51.6824 95.7726 51.6773 95.6212 51.6099C95.4699 51.5424 95.3512 51.418 95.2909 51.2637L91.872 42.2725C91.8174 42.133 91.8148 41.9785 91.8647 41.8373C91.9146 41.6961 92.0136 41.5775 92.1437 41.5032C92.2737 41.429 92.4262 41.404 92.5732 41.4328C92.7201 41.4616 92.8519 41.5423 92.9443 41.6602Z" fill="#040000"/>
<path d="M87.2606 76.1514C87.3576 76.2717 87.4064 76.4236 87.3977 76.5779C87.3891 76.7321 87.3235 76.8777 87.2138 76.9863L81.8612 82.2774C81.744 82.3926 81.5862 82.4572 81.4218 82.4572C81.2574 82.4572 81.0996 82.3926 80.9823 82.2774C80.9235 82.2203 80.8767 82.152 80.8448 82.0765C80.8128 82.001 80.7964 81.9199 80.7964 81.8379C80.7964 81.7559 80.8128 81.6748 80.8448 81.5993C80.8767 81.5238 80.9235 81.4555 80.9823 81.3984L86.3349 76.1045C86.4517 75.9886 86.6097 75.9235 86.7743 75.9235C86.9389 75.9235 87.0969 75.9886 87.2138 76.1045C87.2309 76.1185 87.2466 76.1342 87.2606 76.1514Z" fill="#040000"/>
<path d="M165.905 285.645C200.753 285.645 229.002 278.307 229.002 269.256C229.002 260.205 200.753 252.867 165.905 252.867C131.058 252.867 102.809 260.205 102.809 269.256C102.809 278.307 131.058 285.645 165.905 285.645Z" fill="#040000"/>
<path d="M165.905 286.269C130.163 286.269 102.182 278.795 102.182 269.256C102.182 259.717 130.172 252.246 165.905 252.246C201.639 252.246 229.626 259.72 229.626 269.262C229.626 278.804 201.636 286.269 165.905 286.269ZM165.905 253.491C132.041 253.491 103.433 260.71 103.433 269.256C103.433 277.802 132.041 285.021 165.905 285.021C199.77 285.021 228.375 277.802 228.375 269.256C228.375 260.71 199.767 253.491 165.905 253.491Z" fill="#040000"/>
<path d="M152.801 147.478H173.092C174.257 147.478 175.375 147.941 176.199 148.765C177.023 149.589 177.486 150.707 177.486 151.872V268.383C177.486 269.864 176.898 271.284 175.851 272.331C174.804 273.378 173.383 273.967 171.902 273.967H158.719C155.974 273.967 153.342 272.877 151.402 270.936C149.461 268.995 148.371 266.364 148.371 263.619V151.884C148.37 151.303 148.483 150.727 148.706 150.19C148.928 149.653 149.255 149.166 149.666 148.756C150.078 148.347 150.568 148.023 151.106 147.803C151.644 147.584 152.22 147.473 152.801 147.478Z" fill="white"/>
<path d="M172.462 274.594H153.419C151.923 274.588 150.489 273.992 149.431 272.933C148.373 271.875 147.776 270.442 147.771 268.945V147.478C147.771 147.312 147.836 147.153 147.953 147.036C148.07 146.919 148.229 146.854 148.395 146.854H177.498C177.664 146.854 177.822 146.919 177.939 147.036C178.056 147.153 178.122 147.312 178.122 147.478V268.945C178.117 270.444 177.518 271.879 176.458 272.938C175.397 273.996 173.96 274.591 172.462 274.594ZM149.024 148.104V268.945C149.03 270.111 149.496 271.228 150.322 272.051C151.147 272.874 152.265 273.338 153.431 273.34H172.474C173.638 273.335 174.753 272.871 175.577 272.048C176.401 271.225 176.866 270.11 176.871 268.945V148.104H149.024Z" fill="#040000"/>
<path d="M164.062 147.478H177.495V269.016C177.495 270.329 176.973 271.588 176.045 272.517C175.116 273.445 173.857 273.967 172.544 273.967H164.062V147.478Z" fill="white"/>
<path d="M172.462 274.594H164.063C163.98 274.594 163.899 274.577 163.823 274.546C163.747 274.514 163.678 274.468 163.62 274.41C163.562 274.352 163.516 274.283 163.485 274.206C163.454 274.13 163.438 274.049 163.438 273.967V147.478C163.438 147.312 163.504 147.153 163.621 147.036C163.738 146.919 163.897 146.854 164.063 146.854H177.495C177.661 146.854 177.819 146.919 177.936 147.036C178.053 147.153 178.119 147.312 178.119 147.478V268.945C178.114 270.443 177.516 271.878 176.456 272.936C175.396 273.995 173.96 274.591 172.462 274.594ZM164.689 273.34H172.462C173.628 273.338 174.747 272.875 175.573 272.052C176.399 271.229 176.866 270.112 176.871 268.945V148.104H164.689V273.34Z" fill="#040000"/>
<path d="M212.268 186.914C209.974 186.914 207.287 186.463 204.161 185.291C199.518 183.551 198.943 180.867 199.181 179.092C190.225 176.473 177.99 167.373 177.343 166.872C177.221 166.769 177.143 166.623 177.126 166.464C177.108 166.306 177.151 166.146 177.247 166.018C177.342 165.891 177.483 165.804 177.64 165.776C177.798 165.749 177.959 165.782 178.093 165.87C178.248 165.99 190.787 175.336 199.48 177.908C200.698 174.554 205.064 171.437 207.39 172.251C208.181 172.523 209.347 173.449 208.307 176.569C208.1 177.263 207.723 177.895 207.211 178.406C206.698 178.918 206.066 179.294 205.371 179.499C204.015 179.924 202.304 179.836 200.391 179.396C200.197 181.377 201.633 182.991 204.604 184.107C217.254 188.851 221.988 181.356 222.182 181.034C222.224 180.964 222.28 180.903 222.346 180.854C222.412 180.805 222.487 180.77 222.566 180.75C222.646 180.731 222.728 180.727 222.81 180.739C222.891 180.751 222.968 180.779 223.039 180.822C223.109 180.864 223.17 180.92 223.219 180.986C223.267 181.052 223.303 181.127 223.322 181.206C223.342 181.286 223.346 181.369 223.334 181.45C223.321 181.531 223.293 181.608 223.251 181.679C223.21 181.746 220.002 186.914 212.268 186.914ZM200.684 178.213C202.351 178.594 203.83 178.667 204.987 178.307C205.496 178.159 205.959 177.884 206.332 177.509C206.706 177.133 206.978 176.669 207.123 176.159C207.366 175.433 207.835 173.713 206.985 173.417C205.582 172.934 201.812 175.292 200.684 178.213Z" fill="#040000"/>
<path d="M194.646 72.3369C194.646 72.3369 222.038 67.1689 223.588 88.8633C225.164 110.93 229.687 133.98 232.872 148.213C233.259 149.953 233.267 151.756 232.896 153.499C232.525 155.242 231.784 156.886 230.722 158.318C229.661 159.749 228.304 160.936 226.743 161.797C225.183 162.659 223.455 163.174 221.678 163.31L203.361 164.719L194.646 72.3369Z" fill="#040000"/>
<path d="M203.361 165.343C203.206 165.343 203.056 165.285 202.941 165.18C202.827 165.076 202.755 164.932 202.74 164.777L194.024 72.3955C194.01 72.2406 194.054 72.086 194.148 71.9619C194.242 71.8378 194.378 71.7532 194.531 71.7246C195.117 71.6133 209.083 69.0879 217.737 75.7442C221.628 78.7412 223.808 83.1416 224.212 88.8194C225.756 110.449 230.106 132.984 233.496 148.075C233.903 149.903 233.911 151.796 233.522 153.627C233.132 155.458 232.354 157.184 231.239 158.688C230.124 160.192 228.698 161.438 227.059 162.343C225.42 163.247 223.606 163.789 221.739 163.931L203.423 165.34L203.361 165.343ZM195.325 72.8613L203.927 164.063L221.628 162.7C223.316 162.572 224.957 162.083 226.439 161.265C227.922 160.447 229.211 159.32 230.22 157.96C231.228 156.6 231.933 155.039 232.285 153.383C232.638 151.727 232.63 150.015 232.263 148.362C228.876 133.228 224.514 110.634 222.964 88.9248C222.586 83.6162 220.57 79.5205 216.973 76.749C209.701 71.1299 198.009 72.4629 195.325 72.8613Z" fill="#040000"/>
<path d="M112.749 79.3066L194.646 72.3369C196.296 72.1942 197.959 72.4177 199.513 72.9913C201.068 73.565 202.476 74.4748 203.639 75.6557C204.801 76.8366 205.689 78.2595 206.238 79.823C206.787 81.3864 206.984 83.0517 206.816 84.7002C204.914 103.096 202.421 136.896 205.89 164.719L88.087 169.248C86.42 169.313 84.7593 169.008 83.2239 168.356C81.6884 167.703 80.3162 166.72 79.2056 165.475C78.0949 164.23 77.2732 162.755 76.7994 161.156C76.3256 159.556 76.2114 157.872 76.4649 156.223C78.5157 142.828 81.8175 121.907 84.879 104.748C86.074 98.03 89.4536 91.8944 94.4932 87.294C99.5327 82.6936 105.95 79.8859 112.749 79.3066Z" fill="white"/>
<path d="M87.6444 169.884C85.9219 169.883 84.2199 169.51 82.6551 168.79C81.0903 168.07 79.6999 167.02 78.5791 165.712C77.4584 164.404 76.6339 162.869 76.1622 161.212C75.6906 159.556 75.5829 157.816 75.8466 156.114C78.0204 141.967 81.246 121.544 84.2636 104.628C85.4887 97.7771 88.9384 91.5212 94.0785 86.8292C99.2186 82.1372 105.762 79.2708 112.696 78.6738L112.749 79.2949L112.696 78.6738L194.596 71.7041C196.338 71.5535 198.092 71.7894 199.732 72.395C201.373 73.0005 202.86 73.9608 204.086 75.2073C205.313 76.4537 206.249 77.9556 206.828 79.6057C207.407 81.2557 207.615 83.0133 207.436 84.7529C205.591 102.595 203.018 136.702 206.511 164.628C206.521 164.713 206.513 164.799 206.489 164.881C206.465 164.964 206.424 165.04 206.369 165.106C206.314 165.171 206.247 165.225 206.17 165.264C206.094 165.303 206.01 165.326 205.925 165.331L88.122 169.86C87.955 169.878 87.7997 169.884 87.6444 169.884ZM195.612 72.9111C195.319 72.9111 195.006 72.9111 194.698 72.9522L112.793 79.9307C106.134 80.5066 99.8504 83.2607 94.9142 87.767C89.9779 92.2732 86.6641 98.2804 85.4852 104.859C82.4706 121.767 79.245 142.175 77.0741 156.316C76.835 157.874 76.9432 159.465 77.391 160.976C77.8388 162.487 78.6151 163.881 79.6645 165.057C80.7138 166.232 82.0101 167.162 83.4605 167.778C84.911 168.394 86.4798 168.682 88.0546 168.621L205.178 164.115C201.794 136.192 204.349 102.387 206.185 84.6328C206.337 83.1523 206.176 81.6565 205.714 80.2421C205.251 78.8276 204.496 77.526 203.499 76.4215C202.502 75.3169 201.284 74.434 199.923 73.8299C198.563 73.2257 197.092 72.9137 195.603 72.9141L195.612 72.9111Z" fill="#040000"/>
<path d="M92.1094 106.564L188.191 98.9795L185.663 111.621L89.5811 116.678L92.1094 106.564Z" fill="#040000"/>
<path d="M89.581 117.302C89.4858 117.303 89.3917 117.281 89.3059 117.24C89.2202 117.199 89.1451 117.138 89.0865 117.063C89.0278 116.988 88.9873 116.9 88.9679 116.807C88.9485 116.714 88.9508 116.618 88.9746 116.525L91.5029 106.412C91.535 106.285 91.6063 106.171 91.7067 106.086C91.8071 106.002 91.9315 105.951 92.0624 105.94L188.156 98.3555C188.253 98.3482 188.349 98.3633 188.439 98.3996C188.528 98.436 188.608 98.4925 188.673 98.5648C188.737 98.6371 188.783 98.7233 188.808 98.8166C188.834 98.9099 188.837 99.0077 188.818 99.1025L186.29 111.744C186.263 111.881 186.19 112.005 186.084 112.096C185.977 112.187 185.844 112.239 185.704 112.245L89.6103 117.302H89.581ZM92.6074 107.15L90.3925 116.016L185.156 111.035L187.427 99.6797L92.6074 107.15Z" fill="#040000"/>
<path d="M183.135 106.564C183.135 106.564 166.822 147.018 169.151 177.36L64.2979 179.883C64.2979 179.883 78.2783 124.257 101.578 111.621L183.135 106.564Z" fill="white"/>
<path d="M64.2979 180.513C64.2028 180.513 64.1089 180.491 64.0234 180.45C63.9378 180.408 63.8629 180.348 63.8042 180.273C63.7455 180.198 63.7045 180.111 63.6845 180.018C63.6645 179.925 63.6658 179.829 63.6885 179.736C66.3644 169.707 69.6827 159.861 73.623 150.258C82.1836 129.568 91.4941 116.385 101.282 111.07C101.362 111.028 101.45 111.003 101.54 110.997L183.105 105.94C183.211 105.932 183.317 105.952 183.412 105.997C183.508 106.042 183.59 106.112 183.65 106.198C183.713 106.284 183.752 106.384 183.765 106.489C183.778 106.594 183.764 106.701 183.724 106.799C183.562 107.2 167.496 147.466 169.787 177.313C169.793 177.398 169.782 177.482 169.755 177.562C169.728 177.642 169.685 177.716 169.629 177.779C169.572 177.842 169.502 177.893 169.424 177.928C169.347 177.964 169.263 177.983 169.178 177.984L64.3242 180.513H64.2979ZM101.757 112.251C80.54 123.917 66.9346 172.424 65.1123 179.259L168.483 176.766C166.62 149.227 179.827 113.423 182.194 107.262L101.757 112.251Z" fill="#040000"/>
<path d="M183.135 104.036C183.135 104.036 162.905 159.668 147.735 167.247H41.54C41.54 167.247 84.5244 134.376 94.6289 111.621L183.135 104.036Z" fill="white"/>
<path d="M147.735 167.871H41.54C41.4091 167.872 41.2813 167.831 41.1748 167.754C41.0683 167.678 40.9885 167.57 40.9467 167.446C40.9049 167.322 40.9032 167.188 40.9419 167.063C40.9805 166.938 41.0576 166.828 41.1621 166.749C41.5899 166.421 84.1348 133.717 94.0664 111.378C94.112 111.276 94.1842 111.188 94.2754 111.123C94.3666 111.058 94.4735 111.018 94.585 111.009L183.079 103.418C183.184 103.405 183.291 103.421 183.388 103.463C183.485 103.506 183.569 103.575 183.63 103.661C183.692 103.744 183.733 103.84 183.749 103.943C183.765 104.045 183.755 104.149 183.721 104.247C182.892 106.526 163.233 160.204 148.014 167.804C147.927 167.847 147.832 167.87 147.735 167.871ZM43.3594 166.62H147.586C161.288 159.527 179.496 111.987 182.203 104.742L95.0566 112.207C85.8106 132.463 50.8975 160.682 43.3594 166.62Z" fill="#040000"/>
<path d="M88.213 137.552C88.0933 137.552 87.9761 137.518 87.8753 137.454C87.7745 137.389 87.6943 137.297 87.6443 137.189C87.5943 137.08 87.5766 136.959 87.5932 136.841C87.6099 136.722 87.6603 136.611 87.7384 136.521C89.7657 134.156 96.5831 126.519 99.126 127.459C99.586 127.629 100.134 128.104 100.134 129.398C100.134 132.454 103.298 135.029 106.357 135.75C108.261 136.201 109.714 135.832 110.247 134.766C112.213 130.834 144.015 132.22 150.384 132.539C150.548 132.549 150.701 132.623 150.811 132.745C150.921 132.868 150.978 133.028 150.97 133.192C150.97 133.276 150.953 133.358 150.92 133.434C150.886 133.51 150.836 133.578 150.774 133.634C150.712 133.689 150.639 133.731 150.559 133.756C150.48 133.781 150.396 133.788 150.314 133.778C132.009 132.861 112.433 133.192 111.369 135.316C110.561 136.934 108.589 137.549 106.075 136.96C102.542 136.125 98.8917 133.066 98.8917 129.39C98.8917 128.909 98.7921 128.657 98.6983 128.622C97.5264 128.209 92.5928 132.776 88.6934 137.326C88.6348 137.397 88.5614 137.454 88.4784 137.493C88.3953 137.532 88.3047 137.552 88.213 137.552Z" fill="#040000"/>
<path d="M133.397 150.732H90.0966C89.9381 150.722 89.7896 150.651 89.6812 150.535C89.5728 150.419 89.5125 150.266 89.5125 150.107C89.5125 149.948 89.5728 149.795 89.6812 149.679C89.7896 149.563 89.9381 149.492 90.0966 149.481H133.397C133.556 149.492 133.704 149.563 133.813 149.679C133.921 149.795 133.981 149.948 133.981 150.107C133.981 150.266 133.921 150.419 133.813 150.535C133.704 150.651 133.556 150.722 133.397 150.732Z" fill="#040000"/>
<path d="M171.325 262.989H164.649C164.563 262.995 164.477 262.983 164.396 262.955C164.315 262.926 164.241 262.881 164.178 262.822C164.115 262.763 164.065 262.692 164.031 262.614C163.996 262.535 163.979 262.45 163.979 262.364C163.979 262.278 163.996 262.193 164.031 262.114C164.065 262.035 164.115 261.964 164.178 261.906C164.241 261.847 164.315 261.802 164.396 261.773C164.477 261.744 164.563 261.732 164.649 261.738H171.317C171.475 261.749 171.623 261.82 171.732 261.936C171.84 262.052 171.901 262.205 171.901 262.364C171.901 262.523 171.84 262.676 171.732 262.792C171.623 262.908 171.475 262.978 171.317 262.989H171.325Z" fill="#040000"/>
<path d="M171.325 192.981H164.648C164.483 192.981 164.324 192.916 164.207 192.799C164.09 192.682 164.024 192.523 164.024 192.357C164.024 192.192 164.09 192.033 164.207 191.916C164.324 191.799 164.483 191.733 164.648 191.733H171.316C171.482 191.733 171.641 191.799 171.758 191.916C171.875 192.033 171.94 192.192 171.94 192.357C171.94 192.523 171.875 192.682 171.758 192.799C171.641 192.916 171.482 192.981 171.316 192.981H171.325Z" fill="#040000"/>
<path d="M171.325 267.99H164.649C164.563 267.996 164.477 267.984 164.396 267.956C164.315 267.927 164.241 267.882 164.178 267.823C164.115 267.764 164.065 267.693 164.031 267.615C163.996 267.536 163.979 267.451 163.979 267.365C163.979 267.279 163.996 267.194 164.031 267.115C164.065 267.036 164.115 266.965 164.178 266.907C164.241 266.848 164.315 266.803 164.396 266.774C164.477 266.745 164.563 266.733 164.649 266.739H171.317C171.475 266.75 171.623 266.821 171.732 266.937C171.84 267.053 171.901 267.206 171.901 267.365C171.901 267.524 171.84 267.677 171.732 267.793C171.623 267.909 171.475 267.979 171.317 267.99H171.325Z" fill="#040000"/>
<path d="M44.584 84.4922C44.584 84.4922 44.9678 95.1592 51.3223 97.7988C51.3223 97.7988 33.0469 111.217 26.3585 106.245C26.3585 106.245 14.3145 97.2979 17.9473 89.6162C17.9385 89.6162 36.2901 92.8711 44.584 84.4922Z" fill="white"/>
<path d="M30.1992 107.962C28.5761 107.962 27.1259 107.602 25.9775 106.746C25.4677 106.368 13.5673 97.4033 17.373 89.3555C17.4302 89.2306 17.5278 89.1286 17.65 89.0659C17.7723 89.0032 17.912 88.9835 18.0468 89.0098C18.2255 89.0391 36.1728 92.1035 44.1415 84.0615C44.2274 83.9752 44.3367 83.9158 44.456 83.8908C44.5752 83.8658 44.6991 83.8763 44.8124 83.9209C44.9257 83.9659 45.0235 84.0426 45.0942 84.1419C45.1649 84.2412 45.2054 84.3587 45.2109 84.4805C45.2109 84.583 45.6533 94.7783 51.5536 97.2305C51.6554 97.2735 51.744 97.3428 51.8104 97.4311C51.8768 97.5195 51.9187 97.6238 51.9318 97.7336C51.9449 97.8433 51.9287 97.9546 51.885 98.0561C51.8412 98.1576 51.7714 98.2457 51.6826 98.3115C51.0468 98.7685 38.414 107.962 30.1992 107.962ZM18.3193 90.3105C15.5859 97.3418 26.6074 105.659 26.7216 105.744C32.1884 109.805 46.4765 100.403 50.0976 97.8896C45.5683 95.2529 44.373 88.6494 44.0624 85.8223C36.0351 92.6103 21.2519 90.7588 18.3193 90.3105Z" fill="#040000"/>
<path d="M26.3672 96.1084C27.9639 93.5156 27.9492 96.6357 28.6318 97.5146C29.3145 98.3935 31.3272 98.5986 32.3115 98.8271C33.5215 99.1201 34.708 99.334 35.9209 98.9297C37.7754 98.3115 38.7861 96.2051 40.834 95.9619C41.625 95.8681 41.6338 94.6172 40.834 94.7109C39.2344 94.9014 38.4111 95.6836 37.1807 96.6592C36.3208 97.3038 35.2989 97.6971 34.2287 97.7954C33.1585 97.8937 32.0821 97.693 31.1191 97.2158C28.1133 95.6953 30.3838 96.2314 29.5576 94.7959C28.3008 92.6162 26.4463 93.5947 25.2891 95.4756C24.8672 96.1641 25.9482 96.791 26.3672 96.1084Z" fill="#040000"/>
<path d="M166.324 30.6768C166.324 30.6768 182.991 32.3438 188.004 29.0098C188.004 29.0098 189.671 50.6895 201.34 52.3447C201.34 52.3447 181.336 55.6787 179.66 57.3457C179.657 57.3457 166.324 50.6836 166.324 30.6768Z" fill="white"/>
<path d="M179.657 57.9697C179.555 57.9731 179.454 57.9499 179.364 57.9023C179.227 57.835 165.683 50.8301 165.683 30.6768C165.683 30.5895 165.701 30.5033 165.736 30.4236C165.771 30.3438 165.823 30.2724 165.888 30.2139C165.953 30.155 166.029 30.1102 166.112 30.0825C166.196 30.0548 166.284 30.0446 166.371 30.0527C166.535 30.0703 182.871 31.6611 187.629 28.4883C187.72 28.4275 187.825 28.3916 187.933 28.3841C188.042 28.3766 188.151 28.3977 188.249 28.4455C188.347 28.4932 188.431 28.5658 188.493 28.6561C188.554 28.7464 188.59 28.8511 188.599 28.96C188.616 29.1738 190.356 50.1504 201.398 51.7266C201.546 51.7493 201.68 51.824 201.777 51.9371C201.874 52.0502 201.927 52.1943 201.927 52.3433C201.927 52.4922 201.874 52.6363 201.777 52.7494C201.68 52.8625 201.546 52.9372 201.398 52.96C191.798 54.5625 181.061 56.7978 180.07 57.7852C179.961 57.8962 179.813 57.962 179.657 57.9697ZM166.954 31.3623C167.227 48.5478 177.677 55.4707 179.625 56.6133C182.186 55.1807 193.005 53.1562 198.53 52.1894C190.069 48.4512 187.901 33.9521 187.462 30.0176C182.227 32.4844 170.03 31.6406 166.954 31.3623Z" fill="#040000"/>
<path d="M174.141 39.3516C174.615 38.9531 180.861 34.5176 180.914 37.6963C180.929 38.6133 177.205 40.3008 176.473 40.7168C175.74 41.1328 173.965 42.0645 174.589 43.207C175.175 44.2822 176.991 43.5 177.773 43.2773C178.652 43.0254 179.47 42.6914 180.39 42.583C181.758 42.4424 181.796 42.2549 181.591 43.5557C181.4 44.7451 180.712 45.7764 180.609 47.0039C180.609 47.1132 180.637 47.2207 180.692 47.3154C180.747 47.41 180.825 47.4886 180.92 47.543C181.89 48.0938 182.446 47.6982 183.557 47.3232C185.022 46.8311 188.578 46.1777 189.495 44.9561C189.012 45.5977 190.099 46.2217 190.576 45.5859L190.805 45.293C190.861 45.197 190.89 45.0878 190.89 44.9766C190.89 44.8654 190.861 44.7562 190.805 44.6602C190.248 43.5967 189.413 43.9336 188.423 44.2529C186.867 44.7539 185.338 45.3662 183.8 45.9229C182.701 46.3184 182.189 47.0566 182.197 45.7236C182.197 45.1787 182.646 44.4229 182.81 43.8984C184.102 39.835 179.854 41.71 177.457 42.082C175.462 42.3926 177.671 41.5313 178.45 41.0742C179.385 40.5602 180.268 39.9578 181.087 39.2754C181.934 38.5283 183.229 37.2861 182.602 35.9912C181.061 32.8066 174.738 37.2686 173.285 38.4785C172.667 38.9941 173.555 39.873 174.164 39.3574L174.141 39.3516Z" fill="#040000"/>
<path d="M239.678 157.031C239.678 157.031 256.67 153.293 262.98 144.062C262.98 144.062 272.874 165.261 282.753 169.301L261.073 185.183C261.073 185.183 245.036 176.93 239.678 157.031Z" fill="white"/>
<path d="M261.07 185.801C260.969 185.801 260.868 185.777 260.777 185.73C260.616 185.648 244.439 177.129 239.068 157.184C239.047 157.102 239.041 157.017 239.053 156.934C239.064 156.85 239.093 156.77 239.136 156.697C239.18 156.624 239.238 156.56 239.307 156.51C239.376 156.46 239.454 156.424 239.537 156.404C239.704 156.369 256.365 152.613 262.459 143.692C262.521 143.601 262.606 143.528 262.706 143.481C262.805 143.433 262.915 143.413 263.025 143.422C263.135 143.431 263.241 143.469 263.331 143.532C263.421 143.595 263.494 143.68 263.54 143.78C263.64 143.991 273.442 164.807 282.982 168.706C283.084 168.748 283.174 168.817 283.242 168.905C283.309 168.994 283.352 169.098 283.366 169.209C283.379 169.319 283.363 169.431 283.32 169.533C283.276 169.635 283.206 169.724 283.116 169.79L261.437 185.672C261.332 185.754 261.203 185.799 261.07 185.801ZM240.451 157.482C245.394 174.873 258.741 183.132 261.024 184.436L281.531 169.412C272.988 165.018 264.873 149.341 262.872 145.263C256.784 153.085 243.563 156.718 240.451 157.482Z" fill="#040000"/>
<path d="M253.025 164.988C254.561 168.732 255.942 172.531 257.171 176.385C257.214 176.528 257.306 176.651 257.432 176.732C257.558 176.813 257.708 176.847 257.856 176.827C258.004 176.806 258.14 176.734 258.24 176.622C258.339 176.511 258.395 176.367 258.398 176.218C258.472 175.225 258.185 171.448 259.002 170.745C258.814 170.906 259.881 170.681 260.039 170.634C260.566 170.456 261.04 170.147 261.416 169.737C262.682 168.527 262.983 167.285 264.665 166.312C265.544 165.812 266.13 165.639 266.578 164.687C266.927 163.966 265.849 163.333 265.497 164.057C264.911 165.229 263.127 165.486 262.222 166.433C261.56 167.124 261.261 168.246 260.534 168.855C259.922 169.365 258.917 169.148 258.378 169.479C257.839 169.811 257.719 170.089 257.564 170.651C257.104 172.342 257.271 174.478 257.147 176.218L258.375 176.054C257.145 172.198 255.763 168.399 254.23 164.657C253.937 163.922 252.721 164.244 253.025 164.988Z" fill="#040000"/>
<path d="M214.43 200.174C214.43 200.174 214.172 199.702 213.785 198.926C212.08 195.507 207.856 186.193 211.931 185.174C216.929 183.926 214.43 200.174 214.43 200.174Z" fill="white"/>
<path d="M214.43 200.801C214.317 200.801 214.206 200.77 214.109 200.712C214.012 200.655 213.933 200.572 213.879 200.473C213.879 200.473 213.618 199.995 213.226 199.204C211.415 195.577 208.585 189.05 209.953 186.076C210.121 185.701 210.372 185.37 210.689 185.108C211.006 184.846 211.378 184.661 211.778 184.567C212.161 184.458 212.566 184.448 212.954 184.538C213.342 184.628 213.701 184.816 213.996 185.083C216.882 187.72 215.244 198.993 215.048 200.271C215.027 200.4 214.967 200.519 214.876 200.613C214.785 200.706 214.667 200.769 214.538 200.792C214.502 200.798 214.466 200.801 214.43 200.801ZM212.458 185.742C212.331 185.744 212.204 185.761 212.08 185.792C211.861 185.838 211.657 185.937 211.485 186.079C211.312 186.222 211.177 186.403 211.09 186.609C210.287 188.367 211.4 192.627 214.072 198.108C214.521 194.101 214.854 187.562 213.152 186.021C212.967 185.84 212.717 185.74 212.458 185.742Z" fill="#040000"/>
<path d="M169.002 177.7C169.002 177.7 169.295 177.249 169.787 176.528C171.961 173.388 178.09 165.202 180.943 168.281C184.447 172.066 169.002 177.7 169.002 177.7Z" fill="white"/>
<path d="M169.002 178.327C168.89 178.327 168.78 178.297 168.683 178.239C168.587 178.182 168.507 178.1 168.453 178.001C168.4 177.903 168.373 177.791 168.377 177.679C168.381 177.567 168.414 177.458 168.475 177.363C168.475 177.363 168.768 176.903 169.272 176.191C171.58 172.86 175.937 167.235 179.206 167.004C179.615 166.971 180.027 167.034 180.408 167.186C180.789 167.339 181.13 167.577 181.403 167.883C181.686 168.164 181.891 168.514 181.999 168.898C182.107 169.282 182.114 169.687 182.019 170.074C181.102 173.883 170.429 177.867 169.216 178.31C169.146 178.328 169.074 178.334 169.002 178.327ZM179.423 168.231H179.297C177.381 168.369 174.17 171.404 170.654 176.385C174.384 174.847 180.264 171.99 180.806 169.758C180.852 169.571 180.848 169.374 180.792 169.19C180.736 169.005 180.632 168.839 180.489 168.709C180.357 168.556 180.194 168.434 180.009 168.352C179.825 168.269 179.625 168.228 179.423 168.231Z" fill="#040000"/>
</g>
<defs>
<clipPath id="clip0_3999_2262">
<rect width="300" height="300" fill="white"/>
</clipPath>
</defs>
</svg>
