<svg width="32" height="30" viewBox="0 0 32 30" fill="none" xmlns="http://www.w3.org/2000/svg">
<path fill-rule="evenodd" clip-rule="evenodd" d="M25.2312 9.12838H31.9174C31.9174 3.69043 28.7007 0.513672 23.2506 0.513672H8.97927C3.52918 0.513672 0.3125 3.69043 0.3125 9.05902V20.7811C0.3125 26.1497 3.52918 29.3265 8.97927 29.3265H23.2506C28.7007 29.3265 31.9174 26.1497 31.9174 20.7811V20.2817H25.2312C22.1281 20.2817 19.6126 17.7974 19.6126 14.7328C19.6126 11.6682 22.1281 9.18387 25.2312 9.18387V9.12838ZM25.2324 11.5144H30.7386C31.3903 11.5144 31.9185 12.0361 31.9185 12.6797V16.7304C31.911 17.3709 31.3871 17.8882 30.7386 17.8957H25.3588C23.7878 17.9166 22.4141 16.8543 22.0578 15.3432C21.8794 14.4051 22.1299 13.4371 22.7422 12.6986C23.3545 11.9602 24.266 11.5267 25.2324 11.5144ZM25.4725 15.7732H25.9922C26.6594 15.7732 27.2002 15.2391 27.2002 14.5802C27.2002 13.9213 26.6594 13.3872 25.9922 13.3872H25.4725C25.1534 13.3835 24.8461 13.5061 24.6191 13.7276C24.3922 13.9491 24.2645 14.2512 24.2645 14.5663C24.2644 15.2275 24.8031 15.7656 25.4725 15.7732ZM7.79828 9.12836H16.7179C17.3851 9.12836 17.9259 8.59423 17.9259 7.93534C17.9259 7.27646 17.3851 6.74232 16.7179 6.74232H7.79828C7.13656 6.74228 6.59797 7.26801 6.59027 7.92147C6.59023 8.58264 7.12885 9.12076 7.79828 9.12836Z" fill="url(#paint0_linear_931_880)"/>
<defs>
<linearGradient id="paint0_linear_931_880" x1="27.9678" y1="0.513671" x2="7.24445" y2="31.164" gradientUnits="userSpaceOnUse">
<stop stop-color="#E250E5"/>
<stop offset="1" stop-color="#4B50E6"/>
</linearGradient>
</defs>
</svg>
