<svg width="16" height="16" viewBox="0 0 16 16" fill="none" xmlns="http://www.w3.org/2000/svg">
<g id="&#231;&#148;&#187;&#230;&#157;&#191;&#229;&#164;&#135;&#228;&#187;&#189; 10 2 1" clip-path="url(#clip0_935_3921)">
<g id="&#231;&#148;&#187;&#230;&#157;&#191;&#229;&#164;&#135;&#228;&#187;&#189;-10">
<path id="&#230;&#164;&#173;&#229;&#156;&#134;&#229;&#189;&#162;&#229;&#164;&#135;&#228;&#187;&#189; (Stroke)" fill-rule="evenodd" clip-rule="evenodd" d="M8 1.5C4.41015 1.5 1.5 4.41015 1.5 8C1.5 11.5899 4.41015 14.5 8 14.5C11.5899 14.5 14.5 11.5899 14.5 8C14.5 4.41015 11.5899 1.5 8 1.5ZM0 8C0 3.58172 3.58172 0 8 0C12.4183 0 16 3.58172 16 8C16 12.4183 12.4183 16 8 16C3.58172 16 0 12.4183 0 8Z" fill="white" fill-opacity="0.8"/>
<path id="&#231;&#155;&#180;&#231;&#186;&#191;-2 (Stroke)" fill-rule="evenodd" clip-rule="evenodd" d="M7.9393 3.56813C8.35352 3.56813 8.6893 3.90392 8.6893 4.31813V7.81077L12.1819 7.81077C12.5962 7.81077 12.9319 8.14656 12.9319 8.56077C12.9319 8.97499 12.5962 9.31077 12.1819 9.31077L7.9393 9.31077C7.52509 9.31077 7.1893 8.97499 7.1893 8.56077V4.31813C7.1893 3.90392 7.52509 3.56813 7.9393 3.56813Z" fill="white" fill-opacity="0.8"/>
</g>
</g>
<defs>
<clipPath id="clip0_935_3921">
<rect width="16" height="16" fill="white"/>
</clipPath>
</defs>
</svg>
