<svg width="16" height="16" viewBox="0 0 16 16" fill="none" xmlns="http://www.w3.org/2000/svg">
<g id="&#231;&#148;&#187;&#230;&#157;&#191; 1" clip-path="url(#clip0_935_3914)">
<g id="&#231;&#148;&#187;&#230;&#157;&#191;">
<path id="&#230;&#164;&#173;&#229;&#156;&#134;&#229;&#189;&#162; (Stroke)" fill-rule="evenodd" clip-rule="evenodd" d="M8 1.5C6.61929 1.5 5.5 2.61929 5.5 4C5.5 5.38071 6.61929 6.5 8 6.5C9.38071 6.5 10.5 5.38071 10.5 4C10.5 2.61929 9.38071 1.5 8 1.5ZM4 4C4 1.79086 5.79086 0 8 0C10.2091 0 12 1.79086 12 4C12 6.20914 10.2091 8 8 8C5.79086 8 4 6.20914 4 4Z" fill="white" fill-opacity="0.4"/>
<path id="&#231;&#159;&#169;&#229;&#189;&#162; (Stroke)" fill-rule="evenodd" clip-rule="evenodd" d="M4 9.5C2.61929 9.5 1.5 10.6193 1.5 12C1.5 13.3807 2.61929 14.5 4 14.5H12C13.3807 14.5 14.5 13.3807 14.5 12C14.5 10.6193 13.3807 9.5 12 9.5H4ZM0 12C0 9.79086 1.79086 8 4 8H12C14.2091 8 16 9.79086 16 12C16 14.2091 14.2091 16 12 16H4C1.79086 16 0 14.2091 0 12Z" fill="white" fill-opacity="0.4"/>
</g>
</g>
<defs>
<clipPath id="clip0_935_3914">
<rect width="16" height="16" fill="white"/>
</clipPath>
</defs>
</svg>
