<svg width="16" height="16" viewBox="0 0 16 16" fill="none" xmlns="http://www.w3.org/2000/svg">
<g id="&#231;&#148;&#187;&#230;&#157;&#191;&#229;&#164;&#135;&#228;&#187;&#189; 12">
<g id="&#231;&#148;&#187;&#230;&#157;&#191;&#229;&#164;&#135;&#228;&#187;&#189;">
<path id="&#231;&#159;&#169;&#229;&#189;&#162;&#229;&#164;&#135;&#228;&#187;&#189; (Stroke)" fill-rule="evenodd" clip-rule="evenodd" d="M4.75 1.5C3.50736 1.5 2.5 2.50736 2.5 3.75V12.25C2.5 13.4926 3.50736 14.5 4.75 14.5H11.25C12.4926 14.5 13.5 13.4926 13.5 12.25V3.75C13.5 2.50736 12.4926 1.5 11.25 1.5H4.75ZM1 3.75C1 1.67893 2.67893 0 4.75 0H11.25C13.3211 0 15 1.67893 15 3.75V12.25C15 14.3211 13.3211 16 11.25 16H4.75C2.67893 16 1 14.3211 1 12.25V3.75Z" fill="white" fill-opacity="0.4"/>
<path id="&#230;&#164;&#173;&#229;&#156;&#134;&#229;&#189;&#162;" fill-rule="evenodd" clip-rule="evenodd" d="M5 6.27734C5.55228 6.27734 6 5.82963 6 5.27734C6 4.72506 5.55228 4.27734 5 4.27734C4.44772 4.27734 4 4.72506 4 5.27734C4 5.82963 4.44772 6.27734 5 6.27734Z" fill="white" fill-opacity="0.4"/>
<path id="&#230;&#164;&#173;&#229;&#156;&#134;&#229;&#189;&#162;&#229;&#164;&#135;&#228;&#187;&#189;" fill-rule="evenodd" clip-rule="evenodd" d="M5 9.27734C5.55228 9.27734 6 8.82963 6 8.27734C6 7.72506 5.55228 7.27734 5 7.27734C4.44772 7.27734 4 7.72506 4 8.27734C4 8.82963 4.44772 9.27734 5 9.27734Z" fill="white" fill-opacity="0.4"/>
<path id="&#231;&#159;&#169;&#229;&#189;&#162;" d="M11.25 4.5H7.75C7.33579 4.5 7 4.83579 7 5.25C7 5.66421 7.33579 6 7.75 6H11.25C11.6642 6 12 5.66421 12 5.25C12 4.83579 11.6642 4.5 11.25 4.5Z" fill="white" fill-opacity="0.4"/>
<path id="&#231;&#159;&#169;&#229;&#189;&#162;&#229;&#164;&#135;&#228;&#187;&#189;-2" d="M11.25 7.5H7.75C7.33579 7.5 7 7.83579 7 8.25C7 8.66421 7.33579 9 7.75 9H11.25C11.6642 9 12 8.66421 12 8.25C12 7.83579 11.6642 7.5 11.25 7.5Z" fill="white" fill-opacity="0.4"/>
<path id="&#230;&#164;&#173;&#229;&#156;&#134;&#229;&#189;&#162;&#229;&#164;&#135;&#228;&#187;&#189;-2" fill-rule="evenodd" clip-rule="evenodd" d="M5 12.2773C5.55228 12.2773 6 11.8296 6 11.2773C6 10.7251 5.55228 10.2773 5 10.2773C4.44772 10.2773 4 10.7251 4 11.2773C4 11.8296 4.44772 12.2773 5 12.2773Z" fill="white" fill-opacity="0.4"/>
<path id="&#231;&#159;&#169;&#229;&#189;&#162;&#229;&#164;&#135;&#228;&#187;&#189;-3" d="M11.25 10.5H7.75C7.33579 10.5 7 10.8358 7 11.25C7 11.6642 7.33579 12 7.75 12H11.25C11.6642 12 12 11.6642 12 11.25C12 10.8358 11.6642 10.5 11.25 10.5Z" fill="white" fill-opacity="0.4"/>
</g>
</g>
</svg>
