<svg width="146" height="146" viewBox="0 0 146 146" fill="none" xmlns="http://www.w3.org/2000/svg">
<path d="M28.403 144.295L1.3673 56.8012C1.24357 56.4008 1.38264 55.9657 1.71568 55.7113L72.3912 1.72209C72.7496 1.44832 73.2469 1.44831 73.6053 1.72208L144.284 55.7113C144.617 55.9657 144.756 56.4008 144.633 56.8012L117.597 144.295C117.468 144.714 117.08 145 116.642 145H29.3585C28.9199 145 28.5325 144.714 28.403 144.295Z" stroke="#4D5FAC" stroke-width="2"/>
<path d="M30.349 144.797C29.3431 144.917 28.4062 144.266 28.1679 143.281L7.66225 58.5803C7.4612 57.7498 7.80992 56.8834 8.5302 56.4237L71.8853 15.9935C72.5627 15.5612 73.4331 15.5763 74.0951 16.0319L134.434 57.5576C135.153 58.0528 135.468 58.9575 135.212 59.7923L112.487 133.784C112.255 134.54 111.599 135.089 110.813 135.183L30.349 144.797Z" fill="#04D5C8"/>
</svg>
