<svg width="29" height="24" viewBox="0 0 29 24" fill="none" xmlns="http://www.w3.org/2000/svg">
<path d="M28.9297 12.4531C28.9297 11.9531 28.7422 11.526 28.3672 11.1719L18.6797 1.46875C18.4818 1.28125 18.2734 1.14062 18.0547 1.04688C17.8464 0.953125 17.6328 0.90625 17.4141 0.90625C16.9141 0.90625 16.5026 1.06771 16.1797 1.39062C15.8568 1.70312 15.6953 2.09896 15.6953 2.57812C15.6953 2.82812 15.7422 3.0625 15.8359 3.28125C15.9297 3.48958 16.0547 3.67188 16.2109 3.82812L19.5234 7.17188L24.8828 12.0781L25.5078 10.7188H20.2266H2.57031C2.03906 10.7188 1.60677 10.8802 1.27344 11.2031C0.950521 11.526 0.789062 11.9427 0.789062 12.4531C0.789062 12.974 0.950521 13.3958 1.27344 13.7188C1.60677 14.0417 2.03906 14.2031 2.57031 14.2031H20.2266H25.5078L24.8828 12.8594L19.5234 17.75L16.2109 21.0938C16.0547 21.25 15.9297 21.4375 15.8359 21.6562C15.7422 21.8646 15.6953 22.0938 15.6953 22.3438C15.6953 22.8229 15.8568 23.2188 16.1797 23.5312C16.5026 23.8438 16.9141 24 17.4141 24C17.8724 24 18.2839 23.8229 18.6484 23.4688L28.3672 13.75C28.7422 13.3958 28.9297 12.9635 28.9297 12.4531Z" fill="black"/>
</svg>