<svg width="40" height="40" viewBox="0 0 40 40" fill="none" xmlns="http://www.w3.org/2000/svg">
<path d="M31.1026 9.06987C29.0041 8.09073 26.7849 7.39468 24.5031 7C24.1919 7.57 23.91 8.15553 23.6585 8.75429C21.2346 8.38268 18.7682 8.38268 16.3443 8.75429C16.0897 8.15539 15.8047 7.56987 15.4904 7C13.2068 7.3922 10.9869 8.09159 8.89092 9.07915C5.1495 14.5048 3.46756 21.0877 4.14785 27.643C6.58249 29.4886 9.32194 30.8929 12.2417 31.7921C12.8952 30.8917 13.4726 29.9386 13.9681 28.9425C13.0229 28.5773 12.1101 28.1333 11.2393 27.6152L11.9076 27.0861C14.4419 28.3021 17.2179 28.9302 20.0289 28.9238C22.8398 28.9174 25.6129 28.2765 28.1417 27.049L28.81 27.5781C27.9231 28.1024 26.9912 28.5466 26.0254 28.9054C26.5206 29.9036 27.1013 30.857 27.7611 31.7549C30.682 30.8584 33.4219 29.4539 35.855 27.6059C36.5282 21.0585 34.8431 14.4857 31.1026 9.06987ZM14.6921 23.921C13.8785 23.8661 13.1195 23.4919 12.5806 22.8799C12.0416 22.2679 11.7664 21.4678 11.8147 20.6537C11.7638 19.8381 12.0379 19.0356 12.5772 18.4216C13.1164 17.8076 13.8768 17.4321 14.6921 17.3772C15.0963 17.4019 15.4916 17.5066 15.8551 17.6851C16.2186 17.8635 16.5431 18.1123 16.8098 18.417C17.0766 18.7217 17.2802 19.0763 17.409 19.4602C17.5378 19.8442 17.5892 20.2498 17.5603 20.6537C17.601 21.4597 17.323 22.2493 16.7863 22.852C16.2496 23.4546 15.4974 23.822 14.6921 23.8746V23.921ZM25.3107 23.921C24.4987 23.8638 23.7421 23.4886 23.2051 22.8768C22.6681 22.2651 22.3941 21.4663 22.4426 20.6537C22.411 20.2432 22.4619 19.8305 22.592 19.4399C22.7222 19.0493 22.9292 18.6886 23.2007 18.379C23.4722 18.0695 23.8028 17.8173 24.1731 17.6373C24.5434 17.4573 24.9459 17.3531 25.3571 17.3308C25.7621 17.3543 26.1584 17.4581 26.5229 17.6361C26.8875 17.8141 27.2131 18.0627 27.4808 18.3675C27.7485 18.6723 27.953 19.0273 28.0823 19.4118C28.2117 19.7963 28.2634 20.2027 28.2345 20.6073C28.2609 21.011 28.2074 21.4158 28.0769 21.7987C27.9465 22.1816 27.7417 22.535 27.4744 22.8386C27.207 23.1421 26.8824 23.3899 26.519 23.5677C26.1557 23.7455 25.7608 23.8498 25.3571 23.8746L25.3107 23.921Z" fill="white"/>
</svg>
