<svg width="40" height="40" viewBox="0 0 40 40" fill="none" xmlns="http://www.w3.org/2000/svg">
<g clip-path="url(#clip0_151_13)">
<path fill-rule="evenodd" clip-rule="evenodd" d="M20 35C28.2838 35 35 28.2838 35 20C35 11.7162 28.2856 5 20 5C11.7162 5 5 11.7162 5 20C5 28.2838 11.7162 35 20 35ZM29.7933 22.6046V21.6383C29.7933 21.5489 29.707 21.4842 29.6223 21.5089L25.0591 22.828C25.0344 22.8342 25.0128 22.848 24.9958 22.8666C24.5071 23.4064 24.0918 23.7687 23.9817 23.8647L23.9741 23.8713C23.6905 24.1118 23.3391 24.2428 22.9693 24.2428H21.3172V22.5583H22.6303C22.6642 22.5583 22.6965 22.546 22.7212 22.5244L22.8907 22.3688C22.9631 22.3025 23.0494 22.2224 23.1527 22.1191L23.1793 22.0925L23.1794 22.0925C23.2336 22.0384 23.2916 21.9807 23.3484 21.9172C23.4162 21.851 23.4825 21.777 23.5441 21.7046C23.6474 21.5936 23.746 21.478 23.8493 21.3563C23.9233 21.2761 23.9911 21.1852 24.0573 21.0943C24.1313 21.008 24.2037 20.9109 24.2715 20.8184C24.2968 20.7813 24.3236 20.7438 24.3511 20.7055L24.3511 20.7055L24.3511 20.7055C24.3773 20.669 24.4039 20.6318 24.4303 20.5934C24.4796 20.5195 24.5289 20.4409 24.5705 20.3669C24.7 20.1665 24.8094 19.9523 24.9019 19.7381C24.9443 19.6464 24.9782 19.5498 25.0112 19.4559L25.0112 19.4558L25.0236 19.4206C25.0606 19.3112 25.0914 19.208 25.1145 19.0985C25.17 18.8412 25.1823 18.5854 25.1577 18.3295C25.1515 18.2494 25.1453 18.1708 25.1269 18.0968V18.0845C25.1207 18.0321 25.1083 17.9735 25.0914 17.9196C25.0359 17.6699 24.9496 17.4203 24.8402 17.1752C24.8032 17.0843 24.7601 16.9918 24.7185 16.9071C24.6198 16.7237 24.5166 16.5403 24.3994 16.3631C24.376 16.3257 24.3501 16.2879 24.3242 16.2501L24.3241 16.25L24.324 16.2498L24.324 16.2497C24.304 16.2206 24.2841 16.1915 24.2654 16.1627C24.1912 16.0484 24.1079 15.9381 24.027 15.8311L24.0269 15.8311L24.0269 15.831L23.9725 15.759C23.9248 15.6962 23.8725 15.6335 23.8199 15.5704L23.8198 15.5703C23.791 15.5357 23.762 15.501 23.7337 15.4661C23.6536 15.3691 23.575 15.2766 23.4948 15.1857C23.2082 14.862 22.9077 14.5692 22.6395 14.3196C22.5902 14.2702 22.5362 14.2209 22.4808 14.1732C22.2727 13.9836 22.0831 13.8187 21.9244 13.6908C21.8767 13.6541 21.834 13.618 21.7941 13.5843L21.7941 13.5843L21.7941 13.5843L21.794 13.5842C21.767 13.5614 21.7413 13.5397 21.7164 13.5197C21.6683 13.4839 21.6266 13.4521 21.5915 13.4254L21.5915 13.4254C21.5692 13.4084 21.5497 13.3936 21.533 13.381C21.5206 13.3718 21.5068 13.3656 21.4929 13.361L21.3172 13.3117V11.8569C21.3172 11.6195 21.2217 11.4069 21.0691 11.2512C20.9165 11.0955 20.7039 11 20.4696 11C20.0011 11 19.622 11.3837 19.622 11.8569V12.837L19.5342 12.8124L19.2953 12.7445L19.078 12.6844L19.077 12.6843L19.076 12.6839C19.0753 12.6836 19.0746 12.6833 19.0738 12.6831C19.0732 12.683 19.0726 12.6829 19.0718 12.6829H19.0672L17.4182 12.236C17.3458 12.2159 17.2841 12.2945 17.3211 12.3608L17.5846 12.8478C17.5996 12.8852 17.6186 12.9226 17.638 12.9611L17.638 12.9611L17.638 12.9611C17.6506 12.986 17.6635 13.0113 17.6756 13.0374C17.7187 13.1236 17.7619 13.2146 17.8035 13.3055C17.8405 13.3856 17.8775 13.4642 17.9206 13.5505L17.976 13.6739C18.0449 13.8268 18.1173 13.9876 18.1888 14.1608C18.2504 14.3072 18.312 14.4536 18.366 14.6062C18.514 14.9899 18.6542 15.3999 18.7759 15.8206C18.8062 15.9148 18.8305 16.0059 18.855 16.0982C18.8654 16.1374 18.8759 16.1768 18.8869 16.2167L18.9038 16.2906C18.9532 16.4864 18.9963 16.6805 19.0271 16.8763C19.0518 17.0103 19.0749 17.1382 19.0872 17.2677C19.1057 17.4141 19.1242 17.5605 19.1304 17.7069C19.1427 17.841 19.1489 17.9812 19.1489 18.1153C19.1489 18.4574 19.1181 18.7872 19.0456 19.0985L19.032 19.1493C19.0117 19.225 18.9906 19.3036 18.9655 19.379C18.9427 19.4598 18.9132 19.5407 18.8826 19.6246C18.8717 19.6543 18.8608 19.6844 18.8499 19.715L18.8438 19.7314L18.8438 19.7315C18.8211 19.7925 18.798 19.8546 18.7698 19.9153C18.6172 20.2821 18.4276 20.6474 18.2319 20.9895C17.9453 21.4965 17.6571 21.9419 17.4552 22.2285C17.4428 22.2471 17.4308 22.2647 17.4192 22.2817C17.4047 22.3028 17.391 22.3229 17.3782 22.3426C17.315 22.432 17.3797 22.5583 17.4891 22.5583H19.622V24.2428H17.4644C16.885 24.2428 16.3487 23.9145 16.0898 23.389C15.9557 23.1255 15.9033 22.8357 15.9341 22.5522C15.9418 22.4674 15.8786 22.3873 15.7923 22.3873H11.4341C11.3601 22.3873 11.3 22.4474 11.3 22.5214V22.6107C11.3 25.3909 13.5454 27.644 16.3163 27.644H24.1344C25.5999 27.644 26.432 26.3086 27.2499 24.996C27.4779 24.6301 27.7048 24.2659 27.944 23.933C28.374 23.335 29.4081 22.8604 29.7101 22.7309C29.7594 22.7094 29.7933 22.66 29.7933 22.6046ZM12.4651 20.4023L12.4004 20.5041C12.3433 20.5919 12.4065 20.709 12.5144 20.709H16.5274C16.5721 20.709 16.6137 20.6875 16.6384 20.6505C16.6908 20.5703 16.7401 20.4871 16.7848 20.4023C17.1316 19.8198 17.4398 19.1895 17.5523 18.7241C17.8158 17.5929 17.2533 15.7759 16.6014 14.3149C16.5583 14.2179 16.4242 14.2086 16.3672 14.298L12.4651 20.4023Z" fill="white"/>
</g>
<defs>
<clipPath id="clip0_151_13">
<rect width="30" height="30" fill="white" transform="translate(5 5)"/>
</clipPath>
</defs>
</svg>
