<svg width="165" height="29" viewBox="0 0 165 29" fill="none" xmlns="http://www.w3.org/2000/svg">
<path fill-rule="evenodd" clip-rule="evenodd" d="M76.1721 25.2217L76.1657 25.2282L73.6397 27.947C73.2977 28.2472 72.8595 28.4155 72.4043 28.4212C71.949 28.4269 71.5067 28.2698 71.1572 27.9783C70.899 27.7612 70.6935 27.4885 70.556 27.1806C70.4185 26.8727 70.3526 26.5377 70.3634 26.2007V17.6085C70.3634 17.4881 70.3547 17.3676 70.3459 17.2476C70.3373 17.1285 70.3286 17.0097 70.3286 16.8919C70.3383 16.4702 70.1064 16.1825 69.8648 15.8828L69.8064 15.8101C69.2493 15.1178 67.6652 15.0552 66.8679 15.904C65.9713 16.8606 65.0395 17.7843 64.1075 18.7082C63.8669 18.9467 63.6263 19.1852 63.3862 19.4243C62.8485 19.9616 62.3072 20.4955 61.766 21.0293L61.7655 21.0297C61.2241 21.5637 60.6828 22.0977 60.1448 22.6351C59.8694 22.9144 59.5944 23.1953 59.3188 23.4766L59.3187 23.4767C58.6712 24.1378 58.0214 24.8013 57.3595 25.4528C56.7653 26.0395 56.156 26.6112 55.5317 27.1678C55.0756 27.5713 53.9336 27.5052 53.3974 27.1364C53.084 26.916 52.8333 26.618 52.6698 26.2716C52.5062 25.9253 52.4354 25.5425 52.4644 25.1606V19.8035C52.4609 18.833 52.4295 17.8659 52.3982 16.8989C52.3599 15.8379 51.291 15.1282 50.2466 15.2709C49.7421 15.3536 49.2813 15.6065 48.9409 15.9875C48.6031 16.3269 48.266 16.6665 47.9296 17.0062C47.9205 17.0329 47.9082 17.0583 47.8928 17.0821C47.8659 17.1238 47.8304 17.1593 47.7886 17.1861C47.6394 17.3382 47.4901 17.4941 47.3409 17.65C47.142 17.8579 46.943 18.0657 46.7441 18.2645C46.0478 18.9788 45.3514 19.6907 44.6551 20.4004C44.3088 20.7505 43.9626 21.0904 43.6164 21.4235C43.1716 21.8805 42.7256 22.3368 42.2771 22.7916C41.7138 23.3633 41.147 23.8412 40.5793 24.32L40.5792 24.32C40.3471 24.5157 40.1148 24.7116 39.8826 24.914C39.4509 25.3243 39.0189 25.7435 38.5866 26.1783C38.3803 26.3864 38.1749 26.5956 37.9695 26.8049C37.3985 27.3866 36.827 27.9687 36.233 28.5264C35.8907 28.826 35.4527 28.9938 34.9976 28.9995C34.5426 29.0053 34.1004 28.8486 33.7506 28.5577C33.4913 28.3408 33.2851 28.0676 33.1475 27.7589C33.0099 27.4503 32.9447 27.1143 32.9568 26.7767V18.5358C32.9568 18.4158 32.9481 18.2958 32.9394 18.1758C32.9307 18.0558 32.922 17.9358 32.922 17.8157C32.9317 17.3974 32.7 17.1101 32.4586 16.8106C32.439 16.7863 32.4193 16.7619 32.3997 16.7374C31.8427 16.0416 30.2585 15.9825 29.4578 16.8313C28.6252 17.7171 27.7603 18.5763 26.8954 19.4357C26.5885 19.7406 26.2816 20.0455 25.9761 20.3517C25.4382 20.8891 24.8968 21.4231 24.3554 21.957C23.814 22.491 23.2726 23.025 22.7347 23.5624C22.4593 23.8417 22.1843 24.1226 21.9088 24.4039C21.2612 25.065 20.6113 25.7285 19.9494 26.3801C19.3529 26.9668 18.7436 27.5373 18.1216 28.0916C17.6655 28.4986 16.52 28.4116 15.9873 28.0638C15.6739 27.8425 15.4232 27.5438 15.2597 27.197C15.0962 26.8501 15.0254 26.4668 15.0542 26.0844V20.7273C15.0473 19.7603 15.0194 18.7932 14.9881 17.8262C14.9498 16.7652 13.8809 16.0556 12.8364 16.1982C12.331 16.2778 11.8692 16.5313 11.5308 16.9148C10.6859 17.7589 9.84571 18.6089 9.01012 19.4646C8.5639 19.9205 8.56464 19.9198 8.72425 19.7563C9.06028 19.4122 10.1005 18.3471 9.15635 19.3046C8.41827 20.0536 7.674 20.7965 6.92973 21.5393C6.55755 21.9108 6.18538 22.2823 5.81398 22.6545C5.60208 22.8679 5.39018 23.0816 5.17823 23.2953C4.54045 23.9384 3.90217 24.582 3.26194 25.2217C3.07361 25.4126 2.84814 25.5628 2.59944 25.6632C2.35074 25.7637 2.08408 25.8121 1.81592 25.8056C1.54776 25.7991 1.28378 25.7377 1.04026 25.6253C0.796746 25.513 0.578857 25.3519 0.400035 25.1521C0.249474 24.9879 0.131345 24.7967 0.0518718 24.5886C-0.00259418 24.447 -0.014476 24.2925 0.0176855 24.1442C0.049847 23.9959 0.124652 23.8602 0.232917 23.7537L9.35132 14.6015C10.6535 13.2703 11.9567 11.9438 13.2612 10.6219L13.3029 10.5799C14.8315 9.03881 16.3703 7.48753 17.8987 5.93624C18.6567 5.16499 19.4102 4.38919 20.1636 3.61339C20.7287 3.03153 21.2938 2.44968 21.8608 1.86974C22.2175 1.46289 22.6749 1.15697 23.1873 0.982687C23.5517 0.898299 23.9325 0.918871 24.2856 1.04202C24.6387 1.16516 24.9497 1.38583 25.1823 1.67841C25.503 2.12382 25.6637 2.66439 25.6384 3.21248V10.6289C25.6384 11.269 25.6663 11.8916 26.1015 12.4204C26.3269 12.732 26.6435 12.9662 27.0075 13.0908C27.3716 13.2154 27.7654 13.2242 28.1347 13.1161C28.6135 12.9312 29.0401 12.6328 29.3777 12.2465C30.3874 11.262 31.3378 10.3297 32.3997 9.28268C33.0132 8.67778 33.6151 8.06707 34.2154 7.45794C34.6542 7.01268 35.0921 6.56826 35.5332 6.12757C36.455 5.20136 37.3827 4.2869 38.3103 3.37243C38.6195 3.06764 38.9287 2.76285 39.2377 2.45762L40.1638 1.54275C41.1839 0.540902 42.4234 0.885286 43.1476 1.78625C43.4418 2.17069 43.5932 2.64534 43.5758 3.129V11.916C43.5758 12.4517 43.6176 12.977 44.0215 13.3735C44.26 13.6364 44.5428 13.8554 44.857 14.0206C45.2454 14.1833 45.6762 14.2161 46.0847 14.1139C46.2176 14.0806 46.3458 14.0337 46.4675 13.9742C46.5751 13.8971 46.6729 13.8058 46.7579 13.702C48.0601 12.3732 49.3634 11.0467 50.6678 9.72247C52.2137 8.16752 53.763 6.60215 55.3054 5.03677C56.0134 4.31636 56.7174 3.59199 57.4212 2.86788L57.4217 2.86739L57.4228 2.86626C58.0371 2.23427 58.6511 1.60249 59.2675 0.973737C59.6229 0.564747 60.0807 0.257426 60.594 0.0832097C60.9583 -0.00117855 61.3391 0.0193936 61.6923 0.142538C62.0454 0.265682 62.3563 0.48635 62.5889 0.778934C62.9103 1.21166 63.077 1.7396 63.0625 2.27822V9.69464C63.059 10.3347 63.0868 10.9609 63.522 11.4861C63.7478 11.7974 64.0644 12.0313 64.4284 12.1558C64.7923 12.2803 65.186 12.2894 65.5553 12.1819C66.0347 11.9981 66.4615 11.6994 66.7982 11.3122C67.5669 10.5653 68.2976 9.84639 69.0692 9.08717L69.0693 9.08707C69.3146 8.84566 69.5641 8.60018 69.8203 8.34841C70.4433 7.73618 71.0543 7.11556 71.6638 6.49639L71.6646 6.49562C72.0938 6.05965 72.5223 5.6244 72.9538 5.1933C73.7727 4.37047 74.5962 3.55845 75.4203 2.74592C75.833 2.339 76.2458 1.93196 76.6582 1.52336L77.5844 0.608481C78.608 -0.393362 79.8439 -0.0489782 80.5681 0.851985C80.8624 1.23642 81.0137 1.71108 80.9964 2.19473V10.9852C80.9964 11.5209 81.0381 12.0427 81.442 12.4393C81.6805 12.7021 81.9633 12.9211 82.2776 13.0863C82.5868 13.2196 82.9261 13.268 83.2603 13.2264C83.4206 13.2065 83.577 13.1661 83.7258 13.107C84.5406 12.2768 85.3557 11.4485 86.1714 10.6219L86.2155 10.5774C87.7434 9.03711 89.2812 7.48668 90.8089 5.93624C91.5669 5.16501 92.3203 4.38924 93.0737 3.61346L93.0738 3.61336L93.0739 3.61325C93.639 3.03144 94.204 2.44963 94.771 1.86974C95.1276 1.46289 95.5851 1.15697 96.0975 0.982687C96.4618 0.898299 96.8427 0.918871 97.1958 1.04202C97.5489 1.16516 97.8598 1.38583 98.0925 1.67841C98.4131 2.12382 98.5739 2.66439 98.5486 3.21248V10.6289C98.5486 11.269 98.5764 11.8916 99.0116 12.4204C99.2371 12.732 99.5536 12.9662 99.9177 13.0908C100.282 13.2154 100.676 13.2242 101.045 13.1161C101.524 12.9312 101.95 12.6328 102.288 12.2465C103.298 11.262 104.248 10.3297 105.31 9.28268C105.923 8.67785 106.525 8.06722 107.125 7.45816L107.125 7.45805L107.126 7.45784C107.564 7.01261 108.002 6.56823 108.443 6.12757C109.365 5.2015 110.293 4.28717 111.22 3.37285C111.529 3.06792 111.839 2.76299 112.148 2.45762L113.074 1.54275C114.094 0.540902 115.334 0.885286 116.058 1.78625C116.352 2.17069 116.503 2.64534 116.486 3.129V11.916C116.486 12.4517 116.528 12.977 116.932 13.3735C117.17 13.6364 117.453 13.8554 117.767 14.0206C118.156 14.1833 118.586 14.2161 118.995 14.1139C119.127 14.0807 119.255 14.0341 119.376 13.975C119.484 13.8977 119.582 13.8061 119.668 13.702C120.97 12.3732 122.273 11.0467 123.578 9.72247C125.123 8.16752 126.673 6.60215 128.215 5.03677C128.923 4.31645 129.627 3.59217 130.331 2.86816C130.946 2.23554 131.56 1.60313 132.177 0.973737C132.533 0.564747 132.99 0.257426 133.504 0.0832097C133.868 -0.00117855 134.249 0.0193936 134.602 0.142538C134.955 0.265682 135.266 0.48635 135.499 0.778934C135.82 1.21166 135.987 1.7396 135.972 2.27822V9.69464C135.969 10.3347 135.997 10.9609 136.432 11.4861C136.658 11.7974 136.974 12.0313 137.338 12.1558C137.702 12.2803 138.096 12.2894 138.465 12.1819C138.944 11.9981 139.371 11.6994 139.708 11.3122C140.477 10.565 141.208 9.84585 141.98 9.08632L141.988 9.07846C142.23 8.83982 142.477 8.59718 142.73 8.34841C143.353 7.73596 143.964 7.11512 144.574 6.49573L144.574 6.49566C145.003 6.05968 145.432 5.62441 145.863 5.1933C146.682 4.37041 147.506 3.55834 148.33 2.74575L148.335 2.7409L148.337 2.73903C148.747 2.33441 149.158 1.92965 149.568 1.52336L150.494 0.608481C151.518 -0.393362 152.754 -0.0489782 153.478 0.851985C153.772 1.23642 153.923 1.71108 153.906 2.19473V10.9852C153.906 11.5209 153.948 12.0427 154.352 12.4393C154.59 12.7021 154.873 12.9211 155.187 13.0863C155.497 13.2196 155.836 13.268 156.17 13.2264C156.504 13.1848 156.821 13.0548 157.088 12.8497H157.116C157.708 12.4254 162.307 7.70835 163.731 6.24037C163.782 6.19153 163.845 6.15607 163.913 6.13716C163.981 6.11824 164.052 6.11645 164.121 6.13195C164.19 6.14745 164.254 6.17975 164.308 6.22598C164.361 6.27222 164.402 6.33094 164.428 6.39691C164.64 7.04045 164.723 8.16752 163.679 9.51027L146.549 27.947C146.207 28.2472 145.769 28.4155 145.314 28.4212C144.859 28.4269 144.416 28.2698 144.067 27.9783C143.809 27.7612 143.603 27.4885 143.466 27.1806C143.328 26.8727 143.262 26.5377 143.273 26.2007V17.6085C143.273 17.4882 143.264 17.368 143.256 17.2482L143.256 17.2476C143.247 17.1285 143.238 17.0097 143.238 16.8919C143.248 16.4702 143.016 16.1825 142.775 15.8828L142.716 15.8101C142.159 15.1178 140.575 15.0552 139.778 15.904C138.881 16.8607 137.949 17.7844 137.017 18.7083L137.017 18.7084C136.776 18.9469 136.536 19.1853 136.296 19.4243C135.758 19.9616 135.217 20.4955 134.676 21.0293C134.134 21.5634 133.593 22.0975 133.055 22.6351C132.779 22.9145 132.504 23.1954 132.228 23.4768C131.581 24.1378 130.931 24.8013 130.269 25.4528C129.675 26.0395 129.066 26.6112 128.441 27.1678C127.985 27.5713 126.843 27.5052 126.307 27.1364C125.994 26.916 125.743 26.618 125.579 26.2716C125.416 25.9253 125.345 25.5425 125.374 25.1606V19.8035C125.371 18.833 125.339 17.8659 125.308 16.8989C125.27 15.8379 124.201 15.1282 123.156 15.2709C122.652 15.3536 122.191 15.6065 121.851 15.9875C121.513 16.3266 121.176 16.666 120.84 17.0055C120.831 17.0324 120.818 17.0581 120.803 17.0821C120.776 17.1238 120.741 17.1593 120.699 17.1861C120.55 17.3382 120.4 17.4941 120.251 17.65C120.052 17.8578 119.853 18.0657 119.654 18.2645C118.958 18.9788 118.262 19.6907 117.565 20.4004C117.216 20.7531 116.868 21.0953 116.519 21.4307C116.077 21.8853 115.633 22.3392 115.187 22.7916C114.624 23.3632 114.057 23.8412 113.489 24.3199L113.489 24.32L113.488 24.3205C113.258 24.5144 113.028 24.7085 112.798 24.909C112.365 25.3209 111.931 25.7417 111.497 26.1783C111.291 26.3859 111.086 26.5947 110.881 26.8036L110.881 26.8039L110.88 26.8047C110.309 27.3865 109.737 27.9687 109.143 28.5264C108.801 28.826 108.363 28.9938 107.908 28.9995C107.453 29.0053 107.011 28.8486 106.661 28.5577C106.402 28.3408 106.195 28.0676 106.058 27.7589C105.92 27.4503 105.855 27.1143 105.867 26.7767V18.5358C105.867 18.4159 105.858 18.296 105.85 18.1761L105.85 18.1758C105.841 18.0558 105.832 17.9358 105.832 17.8157C105.842 17.3974 105.61 17.1101 105.369 16.8106L105.31 16.7374C104.753 16.0416 103.169 15.9825 102.368 16.8313C101.535 17.7171 100.671 18.5763 99.8056 19.4356C99.4987 19.7406 99.1918 20.0455 98.8863 20.3517C98.349 20.8885 97.8082 21.4219 97.2673 21.9553L97.2656 21.957L97.2638 21.9588L97.2625 21.9601C96.7221 22.493 96.1818 23.026 95.6449 23.5624C95.3714 23.8398 95.0982 24.1187 94.8246 24.3981L94.8214 24.4013L94.819 24.4037C94.1715 25.0649 93.5215 25.7285 92.8596 26.3801C92.2631 26.9668 91.6538 27.5373 91.0317 28.0916C90.5756 28.4986 89.4302 28.4116 88.8975 28.0638C88.5841 27.8425 88.3334 27.5438 88.1699 27.197C88.0063 26.8501 87.9355 26.4668 87.9644 26.0844V20.7273C87.9574 19.7603 87.9296 18.7932 87.8982 17.8262C87.8599 16.7652 86.7911 16.0556 85.7466 16.1982C85.2411 16.2778 84.7794 16.5313 84.441 16.9148C83.5961 17.7589 82.7559 18.6089 81.9203 19.4646C81.4745 19.92 81.4748 19.9198 81.6339 19.7569L81.634 19.7567C81.9697 19.413 83.011 18.3467 82.0665 19.3046C81.3285 20.0535 80.5843 20.7963 79.8401 21.5391C79.4679 21.9106 79.0956 22.2822 78.7241 22.6545C78.5133 22.8669 78.3025 23.0795 78.0916 23.2921L78.0903 23.2934L78.089 23.2947L78.0878 23.2959L78.0798 23.304C77.4449 23.9442 76.8095 24.5849 76.1721 25.2217Z" fill="white"/>
</svg>
