<svg width="40" height="40" viewBox="0 0 40 40" fill="none" xmlns="http://www.w3.org/2000/svg">
<path d="M13.84 33.9248C26.84 33.9248 34 23.1548 34 13.8048C34 13.5048 34 13.1948 34 12.8948C35.3862 11.8958 36.5818 10.6562 37.53 9.23482C36.2183 9.81414 34.8254 10.1885 33.4 10.3448C34.8755 9.46061 35.9805 8.07145 36.51 6.43482C35.1176 7.26494 33.5916 7.84692 32 8.15482C30.9279 7.04766 29.5238 6.32057 28.0008 6.08395C26.4779 5.84733 24.9194 6.11411 23.5619 6.84377C22.2044 7.57344 21.122 8.72614 20.4792 10.1269C19.8363 11.5276 19.6681 13.0998 20 14.6048C17.1839 14.4676 14.4282 13.7387 11.9126 12.4654C9.39705 11.1921 7.17798 9.40303 5.4 7.21482C4.49408 8.77126 4.21627 10.6147 4.62325 12.369C5.03023 14.1233 6.09133 15.6562 7.59 16.6548C6.46433 16.6184 5.36369 16.3133 4.38 15.7648V15.8548C4.37811 17.4874 4.94206 19.0701 5.97586 20.3337C7.00965 21.5972 8.4494 22.4634 10.05 22.7848C9.01236 23.081 7.9196 23.129 6.86 22.9248C7.30909 24.3303 8.18723 25.5597 9.37102 26.4404C10.5548 27.321 11.9848 27.8087 13.46 27.8348C10.9526 29.7911 7.86028 30.8477 4.68 30.8348C4.11868 30.8397 3.55759 30.8096 3 30.7448C6.23124 32.8276 9.99567 33.9319 13.84 33.9248" fill="white"/>
</svg>
