<svg width="42" height="42" viewBox="0 0 42 42" fill="none" xmlns="http://www.w3.org/2000/svg">
<path opacity="0.3" d="M39.9077 18.9077H23.0923V2.09235C23.0923 0.936783 22.1555 0 21 0C19.8444 0 18.9076 0.936783 18.9076 2.09235V18.9077H2.09235C0.936783 18.9077 0 19.8445 0 21C0 22.1556 0.936783 23.0924 2.09235 23.0924H18.9076V39.9077C18.9076 41.0632 19.8444 42 21 42C22.1555 42 23.0923 41.0632 23.0923 39.9077V23.0924H39.9077C41.0632 23.0924 42 22.1556 42 21C42 19.8445 41.0632 18.9077 39.9077 18.9077V18.9077Z" fill="black"/>
</svg>
