<?xml version="1.0" encoding="UTF-8"?>
<svg width="22px" height="22px" viewBox="0 0 22 22" version="1.1" xmlns="http://www.w3.org/2000/svg" xmlns:xlink="http://www.w3.org/1999/xlink">
    <title>编组</title>
    <defs>
        <polygon id="path-1" points="0 0 22 0 22 22 0 22"></polygon>
    </defs>
    <g id="香菜" stroke="none" stroke-width="1" fill="none" fill-rule="evenodd">
        <g id="花泽香菜mint-dashboard" transform="translate(-1056.000000, -1508.000000)">
            <g id="编组" transform="translate(1056.000000, 1508.000000)">
                <mask id="mask-2" fill="white">
                    <use xlink:href="#path-1"></use>
                </mask>
                <g id="Clip-2"></g>
                <g mask="url(#mask-2)" fill="#5B7ECA">
                    <g transform="translate(2.000000, 2.000000)">
                        <path d="M4.81873793,14 C4.67365943,14 4.52612197,13.9638775 4.39333825,13.8877896 C4.00687208,13.6672115 3.88433402,13.19416 4.1195743,12.8317818 L7.29162968,7.94793776 C7.44039662,7.71852122 7.70555422,7.57902674 7.99161296,7.57902674 L12.8246942,7.57902674 L15.4049605,0.520144825 C15.5512685,0.118569802 16.0168311,-0.0970125793 16.4459192,0.0424819024 C16.8741877,0.17967069 17.1024609,0.616983969 16.9553333,1.01855899 L14.1853175,8.59660632 C14.0722054,8.90749071 13.7603276,9.11615601 13.410336,9.11615601 L8.45225769,9.11615601 L5.51954086,13.631089 C5.36503636,13.8689597 5.09537067,14 4.81873793,14" id="Fill-1"></path>
                        <path d="M17.1779508,18 L0.822049186,18 C0.368278035,18 0,17.643588 0,17.2044375 L0,0.795562529 C0,0.356412013 0.368278035,0 0.822049186,0 C1.27623136,0 1.64409837,0.356412013 1.64409837,0.795562529 L1.64409837,16.4088749 L17.1779508,16.4088749 C17.631722,16.4088749 18,16.765287 18,17.2044375 C18,17.643588 17.631722,18 17.1779508,18" id="Fill-3"></path>
                    </g>
                </g>
            </g>
        </g>
    </g>
</svg>