<?xml version="1.0" encoding="UTF-8"?>
<svg width="10px" height="10px" viewBox="0 0 10 10" version="1.1" xmlns="http://www.w3.org/2000/svg" xmlns:xlink="http://www.w3.org/1999/xlink">
    <title>编组</title>
    <defs>
        <path d="M0.587650861,0 C0.263185386,0 -0.00094756326,0.263195401 0,0.588626538 L0,0.588626538 C0,0.913582593 0.263185386,1.17677799 0.58812592,1.17677799 L0.58812592,1.17677799 L8.82232809,1.17677799 L8.82232809,9.41137346 C8.82232809,9.56720034 8.88456086,9.71685116 8.99429954,9.82707017 L8.99429954,9.82707017 C9.10831377,9.94108984 9.25748238,9.99904984 9.40665098,10 L9.40665098,10 L9.41567711,10 C9.56484572,9.99904984 9.71353927,9.94156492 9.82707843,9.82802033 L9.82707843,9.82802033 C9.9382423,9.71732624 10,9.56767542 9.99952494,9.41137346 L9.99952494,9.41137346 L10,0.882227184 C9.99952494,0.394793102 9.60475069,0.000475081952 9.11686483,0 L9.11686483,0 L0.587650861,0 Z" id="path-1"></path>
        <path d="M0.162364478,8.05414442 C-0.0541214926,8.27017316 -0.0541214926,8.62138829 0.162364478,8.83786616 C0.270607463,8.94565597 0.412086884,9 0.554015445,9 C0.695944007,9 0.837872569,8.94565597 0.946115554,8.83786616 L8.83797238,0.945855582 C9.05400921,0.729826838 9.05400921,0.379060831 8.83797238,0.162133839 C8.72972939,0.0543440291 8.58780083,0 8.44587227,0 C8.30394371,0 8.16201515,0.0543440291 8.0542213,0.162133839 L0.162364478,8.05414442 Z" id="path-3"></path>
    </defs>
    <g id="香菜" stroke="none" stroke-width="1" fill="none" fill-rule="evenodd">
        <g id="花泽香菜mint-dashboard" transform="translate(-350.000000, -2021.000000)">
            <g id="编组" transform="translate(350.000000, 2021.000000)">
                <g>
                    <mask id="mask-2" fill="white">
                        <use xlink:href="#path-1"></use>
                    </mask>
                    <g id="Clip-2"></g>
                    <path d="M0.587650861,0 C0.263185386,0 -0.00094756326,0.263195401 0,0.588626538 L0,0.588626538 C0,0.913582593 0.263185386,1.17677799 0.58812592,1.17677799 L0.58812592,1.17677799 L8.82232809,1.17677799 L8.82232809,9.41137346 C8.82232809,9.56720034 8.88456086,9.71685116 8.99429954,9.82707017 L8.99429954,9.82707017 C9.10831377,9.94108984 9.25748238,9.99904984 9.40665098,10 L9.40665098,10 L9.41567711,10 C9.56484572,9.99904984 9.71353927,9.94156492 9.82707843,9.82802033 L9.82707843,9.82802033 C9.9382423,9.71732624 10,9.56767542 9.99952494,9.41137346 L9.99952494,9.41137346 L10,0.882227184 C9.99952494,0.394793102 9.60475069,0.000475081952 9.11686483,0 L9.11686483,0 L0.587650861,0 Z" id="Fill-1" fill="#FFFFFF" mask="url(#mask-2)"></path>
                </g>
                <g transform="translate(1.000000, 0.000000)">
                    <mask id="mask-4" fill="white">
                        <use xlink:href="#path-3"></use>
                    </mask>
                    <g id="Clip-4"></g>
                    <path d="M0.162364478,8.05414442 C-0.0541214926,8.27017316 -0.0541214926,8.62138829 0.162364478,8.83786616 C0.270607463,8.94565597 0.412086884,9 0.554015445,9 C0.695944007,9 0.837872569,8.94565597 0.946115554,8.83786616 L8.83797238,0.945855582 C9.05400921,0.729826838 9.05400921,0.379060831 8.83797238,0.162133839 C8.72972939,0.0543440291 8.58780083,0 8.44587227,0 C8.30394371,0 8.16201515,0.0543440291 8.0542213,0.162133839 L0.162364478,8.05414442 Z" id="Fill-3" fill="#FFFFFF" mask="url(#mask-4)"></path>
                </g>
            </g>
        </g>
    </g>
</svg>