<?xml version="1.0" encoding="UTF-8"?>
<svg width="22px" height="22px" viewBox="0 0 22 22" version="1.1" xmlns="http://www.w3.org/2000/svg" xmlns:xlink="http://www.w3.org/1999/xlink">
    <title>编组</title>
    <defs>
        <polygon id="path-1" points="0 0 22 0 22 22 0 22"></polygon>
        <polygon id="path-3" points="0 0 16 0 16 20 0 20"></polygon>
    </defs>
    <g id="香菜" stroke="none" stroke-width="1" fill="none" fill-rule="evenodd">
        <g id="花泽香菜mint-dashboard" transform="translate(-330.000000, -1848.000000)">
            <g id="编组" transform="translate(330.000000, 1848.000000)">
                <mask id="mask-2" fill="white">
                    <use xlink:href="#path-1"></use>
                </mask>
                <g id="Clip-2"></g>
                <g mask="url(#mask-2)">
                    <g transform="translate(3.000000, 1.000000)">
                        <g id="编组" stroke-width="1" fill="none">
                            <mask id="mask-4" fill="white">
                                <use xlink:href="#path-3"></use>
                            </mask>
                            <g id="Clip-2"></g>
                            <path d="M8,1.51993008 C4.48523657,1.51993008 1.62626417,4.19234715 1.62626417,7.47729604 C1.62626417,11.6761029 6.3538141,16.4023255 7.99268181,17.9146559 C9.628297,16.3707869 14.3737358,11.5400692 14.3737358,7.47729604 C14.3737358,4.19234715 11.5147634,1.51993008 8,1.51993008 L8,1.51993008 Z M8.00813132,20 L7.4564212,19.5368013 C7.15190324,19.2810731 0,13.2093324 0,7.47729604 C0,3.35410571 3.58875845,0 8,0 C12.4112416,0 16,3.35410571 16,7.47729604 C16,13.0254208 8.85622808,19.2666337 8.55211668,19.5295816 L8.00813132,20 Z" id="Fill-1" fill="#5B7ECA" mask="url(#mask-4)"></path>
                        </g>
                        <path d="M8,5.62982581 C6.69315403,5.62982581 5.62999185,6.6928797 5.62999185,8 C5.62999185,9.30671285 6.69315403,10.3701742 8,10.3701742 C9.30684597,10.3701742 10.3700081,9.30671285 10.3700081,8 C10.3700081,6.6928797 9.30684597,5.62982581 8,5.62982581 M8,12 C5.79421353,12 4,10.2055618 4,8 C4,5.79443822 5.79421353,4 8,4 C10.2057865,4 12,5.79443822 12,8 C12,10.2055618 10.2057865,12 8,12" id="Fill-3" fill="#5B7ECA"></path>
                    </g>
                </g>
            </g>
        </g>
    </g>
</svg>