<?xml version="1.0" encoding="UTF-8"?>
<svg width="74px" height="74px" viewBox="0 0 74 74" version="1.1" xmlns="http://www.w3.org/2000/svg" xmlns:xlink="http://www.w3.org/1999/xlink">
    <title>编组 28</title>
    <defs>
        <linearGradient x1="0%" y1="0%" x2="100%" y2="100%" id="linearGradient-1">
            <stop stop-color="#6F9FF3" offset="0%"></stop>
            <stop stop-color="#473874" offset="100%"></stop>
        </linearGradient>
    </defs>
    <g id="香菜" stroke="none" stroke-width="1" fill="none" fill-rule="evenodd">
        <g id="花泽香菜mint-dashboard" transform="translate(-226.000000, -1921.000000)">
            <g id="编组-28" transform="translate(226.000000, 1921.000000)">
                <path d="M37,0.5 C47.0791967,0.5 56.2041967,4.58540166 62.8093975,11.1906025 C69.4145983,17.7958033 73.5,26.9208033 73.5,37 C73.5,47.0791967 69.4145983,56.2041967 62.8093975,62.8093975 C56.2041967,69.4145983 47.0791967,73.5 37,73.5 L37,73.5 L0.5,73.5 L0.5,37 C0.5,26.9208033 4.58540166,17.7958033 11.1906025,11.1906025 C17.7958033,4.58540166 26.9208033,0.5 37,0.5 Z" id="椭圆形" stroke="url(#linearGradient-1)"></path>
                <path d="M37,7.5 C45.1462001,7.5 52.5212001,10.8019 57.85965,16.14035 C63.1981,21.4787999 66.5,28.8537999 66.5,37 C66.5,45.1462001 63.1981,52.5212001 57.85965,57.85965 C52.5212001,63.1981 45.1462001,66.5 37,66.5 L37,66.5 L7.5,66.5 L7.5,37 C7.5,28.8537999 10.8019,21.4787999 16.14035,16.14035 C21.4787999,10.8019 28.8537999,7.5 37,7.5 Z" id="椭圆形" stroke="url(#linearGradient-1)" fill="url(#linearGradient-1)"></path>
                <circle id="椭圆形" fill="#D8D8D8" cx="37" cy="37" r="24"></circle>
            </g>
        </g>
    </g>
</svg>