<?xml version="1.0" encoding="UTF-8"?>
<svg width="22px" height="22px" viewBox="0 0 22 22" version="1.1" xmlns="http://www.w3.org/2000/svg" xmlns:xlink="http://www.w3.org/1999/xlink">
    <title>编组 27</title>
    <defs>
        <polygon id="path-1" points="0 0 20 0 20 18 0 18"></polygon>
    </defs>
    <g id="香菜" stroke="none" stroke-width="1" fill="none" fill-rule="evenodd">
        <g id="花泽香菜mint-dashboard" transform="translate(-281.000000, -1508.000000)">
            <g id="编组-27" transform="translate(281.000000, 1508.000000)">
                <rect id="矩形" x="0" y="0" width="22" height="22"></rect>
                <g id="编组" transform="translate(1.000000, 2.000000)">
                    <mask id="mask-2" fill="white">
                        <use xlink:href="#path-1"></use>
                    </mask>
                    <g id="Clip-2"></g>
                    <path d="M13.0925761,5.15225523 C13.6617343,5.15225523 14.1233243,5.61371218 14.1233243,6.18270628 C14.1233243,6.75170039 13.6617343,7.21315867 13.0925761,7.21315867 L6.9080871,7.21315867 C6.33892893,7.21406481 5.87643118,6.75351536 5.87552209,6.18452125 C5.87461568,5.61552715 6.33484406,5.15316272 6.90400223,5.15225523 L6.9080871,5.15225523 L13.0925761,5.15225523 Z M14.1233243,2.06090209 L5.87688505,2.06090209 L2.06434228,7.1101576 L10.0003316,15.9717644 L17.9372287,7.10970385 L14.1233243,2.06090209 Z M14.1233243,0 C14.7687333,0.0136122992 15.3742014,0.316259084 15.7727029,0.824451586 L19.5852457,5.87370709 C20.1748282,6.64552445 20.1317101,7.72770224 19.4822163,8.45006158 L11.5453192,17.3121221 C10.7937036,18.1424723 9.52104052,18.233221 8.65867965,17.5181215 C8.60330701,17.5194828 8.55746572,17.4754697 8.5561041,17.4196592 L8.5561041,17.4151218 L0.517085341,8.55306131 C-0.131954679,7.79168004 -0.174164974,6.68500012 0.414055911,5.87597581 L4.22659868,0.826720303 C4.6246463,0.317166571 5.23056828,0.0136122992 5.87688505,0 L14.1233243,0 Z" id="Fill-1" fill="#617EC4" mask="url(#mask-2)"></path>
                </g>
            </g>
        </g>
    </g>
</svg>