<?xml version="1.0" encoding="UTF-8"?>
<svg width="22px" height="22px" viewBox="0 0 22 22" version="1.1" xmlns="http://www.w3.org/2000/svg" xmlns:xlink="http://www.w3.org/1999/xlink">
    <title>描述</title>
    <g id="香菜" stroke="none" stroke-width="1" fill="none" fill-rule="evenodd">
        <g id="H5花泽香菜mint-description" transform="translate(-142.000000, -1580.000000)" fill-rule="nonzero">
            <g id="描述" transform="translate(142.000000, 1580.000000)">
                <rect id="矩形" fill="#000000" opacity="0" x="0" y="0" width="22" height="22"></rect>
                <path d="M10.3873593,18.8548872 C8.20850543,18.8548872 7.18622704,18.8571429 5.0073732,18.8537324 C3.11911039,18.8514226 2.35847969,18.0857427 2.35847969,16.1963725 C2.35732196,12.6774783 2.35616423,9.15973894 2.35847969,5.64084473 C2.35963743,3.97667454 3.16310425,3.15440586 4.83950189,3.15094125 C9.30835195,3.1405474 12.6206266,3.13939253 17.0894766,3.15209612 C18.8098681,3.1567156 19.6399628,4.00670121 19.6411205,5.70898216 C19.643436,9.24635432 19.643436,12.7825716 19.6411205,16.3199438 C19.6399628,18.0499416 18.8422847,18.847958 17.0906344,18.8537324 C14.8562093,18.8606616 12.6217843,18.8548872 10.3873593,18.8548872 Z M17.3792109,18.0694797 C18.4666187,18.0671218 18.8560207,17.6509527 18.8571429,16.4991191 L18.8571429,5.50187937 C18.8571429,4.35004583 18.4666187,3.93033985 17.3814553,3.93033985 C13.0161134,3.92798195 9.77184523,3.92798195 5.40650337,3.93033985 C4.31909559,3.9315188 3.92969362,4.34886688 3.92857143,5.50070042 L3.92857143,16.4979402 C3.92857143,17.6509527 4.31797339,18.0683007 5.40425897,18.0694797 C7.56897477,18.0730165 8.61261692,18.0706586 10.7773327,18.0706586 C12.9779588,18.0706586 15.1785849,18.0730165 17.3792109,18.0694797 L17.3792109,18.0694797 Z M15.2922766,7.07142857 L9.85058051,7.07142857 C9.61625442,7.07142857 9.42857143,7.24614662 9.42857143,7.46428571 C9.42857143,7.68242481 9.61625442,7.85714286 9.85058051,7.85714286 L15.2922766,7.85714286 C15.5266027,7.85714286 15.7142857,7.68242481 15.7142857,7.46428571 C15.7118807,7.24825088 15.5243423,7.07366745 15.2922766,7.07142857 L15.2922766,7.07142857 Z M9.85058051,11 C9.61625442,11 9.42857143,11.174718 9.42857143,11.3928571 C9.42857143,11.6109962 9.61625442,11.7857143 9.85058051,11.7857143 L15.2922766,11.7857143 C15.5266027,11.7857143 15.7142857,11.6109962 15.7142857,11.3928571 C15.7118807,11.1768223 15.5243423,11.0022389 15.2922766,11 L9.85058051,11 L9.85058051,11 Z M6.28571429,7.85714286 L7.85714286,7.85714286 L7.85714286,6.28571429 L6.28571429,6.28571429 L6.28571429,7.85714286 Z M6.28571429,11.7857143 L7.85714286,11.7857143 L7.85714286,10.2142857 L6.28571429,10.2142857 L6.28571429,11.7857143 Z M9.85058189,14.1428571 C9.73856768,14.142583 9.63105601,14.1838847 9.55184973,14.2576193 C9.47264345,14.331354 9.42827696,14.4314387 9.42857143,14.535715 C9.42857143,14.7538537 9.61625584,14.9285714 9.85058189,14.9285714 L15.2922767,14.9285714 C15.5266028,14.9285714 15.7142857,14.7538537 15.7142857,14.535715 C15.7118807,14.3196805 15.5243424,14.1450974 15.2922767,14.1428571 L9.85058189,14.1428571 L9.85058189,14.1428571 Z M6.28571429,15.7142857 L7.85714286,15.7142857 L7.85714286,14.1428571 L6.28571429,14.1428571 L6.28571429,15.7142857 Z" id="形状" fill="#617EC4"></path>
            </g>
        </g>
    </g>
</svg>