<?xml version="1.0" encoding="UTF-8"?>
<svg width="28px" height="28px" viewBox="0 0 28 28" version="1.1" xmlns="http://www.w3.org/2000/svg" xmlns:xlink="http://www.w3.org/1999/xlink">
    <title>编组</title>
    <defs>
        <polygon id="path-1" points="0 0 28 0 28 28 0 28"></polygon>
    </defs>
    <g id="香菜" stroke="none" stroke-width="1" fill="none" fill-rule="evenodd">
        <g id="花泽香菜mint-rewards" transform="translate(-303.000000, -1555.000000)">
            <g id="编组" transform="translate(303.000000, 1555.000000)">
                <mask id="mask-2" fill="white">
                    <use xlink:href="#path-1"></use>
                </mask>
                <g id="Clip-2"></g>
                <path d="M3,8.77269364 C3,8.34595461 3.31344284,8.00061667 3.6995195,8 L13,8 L13,13 L3.70175439,13 C3.31511901,13 3.00223489,12.6540454 3.00223489,12.227923 L3,8.77269364 Z M7.00463218,5.65619638 C7.04387999,5.44549938 7.23004189,5.26334601 7.49894241,5.17020367 C7.97681099,4.98316784 8.5437827,4.94861504 9.05930796,5.07480789 C10.6021711,5.44174365 11.9673584,6.108763 13,7 L7.98052362,7 C7.6808613,6.7851717 6.93833521,6.13617989 7.00410181,5.65619638 L7.00463218,5.65619638 Z M13,14 L13,25 L5.66353097,25 C5.29678702,25 5,24.6806066 5,24.2872005 L5,14.7162155 C5,14.32224 5.29678702,14.0028466 5.66353097,14.0022773 L13,14 Z M24.9977642,8.77454366 L24.9977642,12.227923 C24.998323,12.6534287 24.6859802,12.9993833 24.3004407,13 L24.299882,13 L15,13 L15,8 L24.302117,8 C24.6882152,8.00061667 25.000558,8.34657129 25,8.77269364 L24.9977642,8.77454366 Z M15,7 C16.0320686,6.10772373 17.3995066,5.44011323 18.9428413,5.07418603 C19.457816,4.94870381 20.0236524,4.98364347 20.5004808,5.16961263 C20.7701538,5.26203367 20.9561169,5.44499727 20.9958526,5.65576231 C21.0604893,6.12350293 20.3531938,6.75429529 20.0188841,7 L15,7 Z M22.3377483,25 L15,25 L15,14 L22.3377483,14 C22.7038411,14.0005692 23,14.3198965 23,14.7132212 L23,24.2845019 C23,24.6778266 22.7033113,24.9965847 22.3377483,24.9971539 L22.3377483,25 Z M23.6859196,6.47907134 L22.843226,6.47907134 C23.241416,5.87052051 23.43572,5.15142071 23.3984562,4.42541161 C23.3132819,3.62818345 22.8549375,2.9181189 22.1623636,2.51206403 C21.2999734,1.99173978 20.25712,1.86152585 19.2935853,2.15490581 C17.5059888,2.60294804 15.3904711,4.14372432 13.9994677,6.00498633 C12.6073995,4.14478729 10.4934788,2.60347952 8.70588235,2.15490581 C7.74181528,1.85993139 6.69736492,1.99014533 5.83550705,2.51206403 C5.14346553,2.91865039 4.68512111,3.62818345 4.60047911,4.42541161 C4.56215065,5.15142071 4.75698696,5.87052051 5.15570934,6.47907134 L4.31461272,6.47907134 C3.03593293,6.48119728 2.00053234,7.51599943 2,8.79209597 L2,11.7684144 C2.00372638,12.7782368 2.66382752,13.6690063 3.63055629,13.9677012 C3.53899388,14.2174993 3.49161565,14.4816476 3.49108331,14.7473903 L3.49108331,23.6869754 C3.49268033,24.9625404 4.52701624,25.9968111 5.80516369,26 L22.1964333,26 C23.4740484,25.9973426 24.5089167,24.9630719 24.5099814,23.6875069 L24.5099814,14.7505792 C24.5105137,14.484305 24.4636678,14.2196253 24.3726377,13.9698271 C25.3372372,13.6695378 25.9952089,12.7798312 26,11.7710718 L26,8.79475339 C25.9989353,7.51812537 24.9635347,6.48332322 23.6853873,6.48119728 L23.6859196,6.47907134 Z" id="Fill-1" fill="#617EC4" mask="url(#mask-2)"></path>
            </g>
        </g>
    </g>
</svg>