<?xml version="1.0" encoding="UTF-8"?>
<svg width="40px" height="40px" viewBox="0 0 40 40" version="1.1" xmlns="http://www.w3.org/2000/svg" xmlns:xlink="http://www.w3.org/1999/xlink">
    <title>编组</title>
    <defs>
        <polygon id="path-1" points="0 4.81231991e-15 17.5027109 4.81231991e-15 17.5027109 15.378992 0 15.378992"></polygon>
    </defs>
    <g id="香菜" stroke="none" stroke-width="1" fill="none" fill-rule="evenodd">
        <g id="花泽香菜mint-rewards" transform="translate(-929.000000, -1727.000000)">
            <g id="编组" transform="translate(929.000000, 1727.000000)">
                <rect id="矩形" x="0" y="0" width="40" height="40"></rect>
                <polygon id="Fill-1" fill="#617EC4" points="5 38.5793267 5.54264818 39 34 2.42342275 33.4573518 2"></polygon>
                <g transform="translate(10.000000, 1.000000)">
                    <path d="M14.0013461,9.81721943 L14.031509,9.97976514 C14.8705862,9.97976514 15.6109484,10.1883655 16.3019531,10.4944932 L20.198452,5.53413981 L14.0013461,9.81721943 Z" id="Fill-2" fill="#617EC4"></path>
                    <path d="M6.01338635,18.3359695 L-1.21772913e-15,20.2865181 C0.359212773,22.2804122 1.20925827,23.8598147 2.5473944,25.032853 C3.00258005,25.43109 3.54002817,25.7345087 4.11312336,26 L7.95203849,21.1127921 C6.82230061,20.7497734 6.1751692,19.8259719 6.01338635,18.3359695" id="Fill-4" fill="#617EC4"></path>
                    <polygon id="Fill-6" fill="#617EC4" points="20.9155065 5.0391881 21.0389002 4.46485991 20.1970809 5.53495254"></polygon>
                    <g transform="translate(4.497289, 0.000000)">
                        <mask id="mask-2" fill="white">
                            <use xlink:href="#path-1"></use>
                        </mask>
                        <g id="Clip-9"></g>
                        <path d="M9.50405704,9.81721943 L15.7011629,5.53413981 L16.5402401,4.46404718 L17.5027109,-0.000541819053 L1.21748451,-0.000541819053 L0,5.6560491 L8.12753175,5.6560491 L1.15167454,11.1528034 L3.60309606,15.378992 C4.12409169,15.094537 4.56008276,14.894064 4.91381137,14.7748638 C5.27028206,14.6556636 5.64594733,14.5960635 6.03806509,14.5960635 C6.91827349,14.5960635 7.55169448,14.8588457 8.0425272,15.2814646 L11.804664,10.4944932 C11.1136593,10.1883655 10.3732971,9.97976514 9.53421994,9.97976514 L9.50405704,9.81721943 Z" id="Fill-8" fill="#617EC4" mask="url(#mask-2)"></path>
                    </g>
                </g>
            </g>
        </g>
    </g>
</svg>