<?xml version="1.0" encoding="UTF-8"?>
<svg width="40px" height="40px" viewBox="0 0 40 40" version="1.1" xmlns="http://www.w3.org/2000/svg" xmlns:xlink="http://www.w3.org/1999/xlink">
    <title>编组</title>
    <g id="香菜" stroke="none" stroke-width="1" fill="none" fill-rule="evenodd">
        <g id="花泽香菜mint-rewards" transform="translate(-591.000000, -1726.000000)">
            <g id="编组" transform="translate(591.000000, 1726.000000)">
                <rect id="矩形" x="0" y="0" width="40" height="40"></rect>
                <polygon id="Fill-1" fill="#617EC4" points="8 39.5793267 8.54264818 40 37 3.42342275 36.4573518 3"></polygon>
                <g transform="translate(8.000000, 2.000000)" fill="#617EC4">
                    <path d="M14.9072745,17.4975728 L10.5104583,21.2985437 L12.921089,21.2985437 L18.7300014,13.7894417 C17.7369086,14.9335558 16.466294,16.1677791 14.9072745,17.4975728" id="Fill-2"></path>
                    <path d="M19.7032323,12.5830704 C19.7576483,12.5093447 19.7848563,12.4328883 19.8392724,12.356432 L18.7319059,13.7899879 C19.088331,13.3749393 19.4202688,12.9735437 19.7032323,12.5830704" id="Fill-4"></path>
                    <path d="M14.9072745,17.4975728 C16.466294,16.1677791 17.7369086,14.9335558 18.7300014,13.7894417 L19.8373678,12.3586165 C20.8195773,10.9660194 21.4888946,9.5461165 21.7963453,8.0934466 C22.1282831,6.52063107 22.0548215,5.12257282 21.5732395,3.90200243 C21.0916575,2.67597087 20.2618129,1.72026699 19.0809848,1.03216019 C17.8974359,0.344053398 16.4581316,0 14.7603512,0 C12.4041366,0.0218446602 10.2329365,0.666262136 8.24675104,1.93325243 C6.25784473,3.20024272 4.74507879,4.90412621 3.7002908,7.04490291 L8.65487134,9.24029126 C9.20175256,8.10436893 9.90099869,7.20600728 10.7634929,6.55339806 C11.6178248,5.89805825 12.4912022,5.57038835 13.3836253,5.57038835 C14.2107491,5.57038835 14.8229296,5.82433252 15.2174459,6.32402913 C15.6119622,6.82645631 15.7316775,7.4381068 15.5765918,8.15898058 C15.3888564,9.05461165 14.9725737,9.93932039 14.3304644,10.8131068 C13.6883551,11.6868932 12.5129687,12.8692354 10.8070258,14.3519417 L0.843448638,23.0051578 L0,27 L8.50794803,27 L12.921089,21.2985437 L10.5104583,21.2985437 L14.9072745,17.4975728 Z" id="Fill-6"></path>
                </g>
            </g>
        </g>
    </g>
</svg>