<svg width="24" height="24" viewBox="0 0 24 24" fill="none" xmlns="http://www.w3.org/2000/svg">
<path fill-rule="evenodd" clip-rule="evenodd" d="M12 0.866025L2.35767 6.43301V17.567L12 23.134L21.6423 17.567V6.43301L12 0.866025ZM22.3923 6L12 0L1.60767 6V18L12 24L22.3923 18V6Z" fill="#FFD600"/>
<path d="M12 1.5L21.0933 6.75V17.25L12 22.5L2.90673 17.25V6.75L12 1.5Z" fill="#FFD600"/>
<path fill-rule="evenodd" clip-rule="evenodd" d="M12 8.69646L9.66343 11.033L8.3152 9.68476L12 6L15.719 9.71921L14.3709 11.0674L12 8.69646ZM12 15.3036L14.3802 12.9234L15.7284 14.2716L12 18.0001L8.29261 14.2926L9.64084 12.9444L12 15.3036ZM7.39793 10.602L8.74624 11.9503L7.37542 13.3755L6 12L7.39793 10.602ZM10.5463 12L12 13.4537L13.4537 12L12 10.5463L10.5463 12ZM15.2974 12.0061L15.3035 12L15.2881 11.9845L16.6364 10.6363L18 12L16.6457 13.3543L15.2974 12.0061Z" fill="white" fill-opacity="0.8"/>
</svg>
