<svg width="24" height="24" viewBox="0 0 24 24" fill="none" xmlns="http://www.w3.org/2000/svg">
<path d="M1.8577 6.14434L12 0.288675L22.1423 6.14434V17.8557L12 23.7113L1.8577 17.8557V6.14434Z" stroke="white" stroke-opacity="0.4" stroke-width="0.5"/>
<path fill-rule="evenodd" clip-rule="evenodd" d="M21.0933 6.75L12 1.5L2.90674 6.75V17.25L12 22.5L21.0933 17.25V6.75ZM9.66343 11.033L12 8.69646L14.3709 11.0674L15.719 9.71921L12 6L8.3152 9.68476L9.66343 11.033ZM14.3802 12.9234L12 15.3036L9.64084 12.9444L8.29261 14.2926L12 18.0001L15.7284 14.2716L14.3802 12.9234ZM8.74624 11.9503L7.39794 10.602L6 12L7.37542 13.3755L8.74624 11.9503ZM12 13.4537L10.5463 12L12 10.5463L13.4537 12L12 13.4537ZM15.3035 12L15.2974 12.0061L16.6457 13.3543L18 12L16.6364 10.6363L15.2881 11.9845L15.3035 12Z" fill="white" fill-opacity="0.4"/>
</svg>
