<svg width="24" height="24" viewBox="0 0 24 24" fill="none" xmlns="http://www.w3.org/2000/svg">
<path d="M1.8577 6.14434L12 0.288675L22.1423 6.14434V17.8557L12 23.7113L1.8577 17.8557V6.14434Z" stroke="#00AFFF" stroke-width="0.5"/>
<path d="M12 1.5L21.0933 6.75V17.25L12 22.5L2.90673 17.25V6.75L12 1.5Z" fill="#00B0FF"/>
<path fill-rule="evenodd" clip-rule="evenodd" d="M6.8356 19.5183L4.39844 18.1112L9.24291 6H12.2429L6.8356 19.5183ZM9.79044 21.2242L7.36171 19.822L12.9929 6H15.9929L9.79044 21.2242ZM16.1255 20.1182L13.7307 21.5008L12.2429 17.25L13.7429 13.5L16.1255 20.1182ZM19.5531 18.1393L17.1311 19.5376L14.4929 12L15.9929 8.25L19.5531 18.1393Z" fill="white"/>
</svg>
