<svg width="36" height="34" viewBox="0 0 36 34" fill="none" xmlns="http://www.w3.org/2000/svg">
<path d="M23.5655 11.9339C23.5611 11.9253 23.5537 11.9185 23.5447 11.9148C22.5074 11.4389 21.4126 11.0995 20.288 10.9051C20.2777 10.9032 20.2672 10.9046 20.2578 10.909C20.2484 10.9135 20.2406 10.9208 20.2356 10.9299C20.0866 11.2004 19.9512 11.4784 19.8302 11.7625C18.6178 11.5785 17.3847 11.5785 16.1723 11.7625C16.0505 11.4776 15.913 11.1997 15.7605 10.9299C15.7552 10.921 15.7475 10.9139 15.7381 10.9094C15.7288 10.905 15.7183 10.9035 15.7081 10.9051C14.5833 11.0991 13.4885 11.4385 12.4513 11.9148C12.4424 11.9186 12.4349 11.925 12.4299 11.9332C10.3556 15.0309 9.78737 18.0524 10.0661 21.0364C10.0669 21.0437 10.0692 21.0508 10.0727 21.0573C10.0763 21.0637 10.0811 21.0693 10.0869 21.0738C11.2948 21.9681 12.6457 22.6508 14.0822 23.0926C14.0923 23.0956 14.1031 23.0955 14.1131 23.0922C14.1232 23.0889 14.132 23.0826 14.1383 23.0742C14.4468 22.6544 14.7202 22.2099 14.9557 21.7452C14.9589 21.7388 14.9607 21.7318 14.9611 21.7247C14.9614 21.7175 14.9602 21.7104 14.9576 21.7037C14.955 21.6971 14.951 21.6911 14.9459 21.6861C14.9408 21.6811 14.9346 21.6772 14.9279 21.6747C14.4968 21.5098 14.0795 21.311 13.6798 21.0801C13.6726 21.0758 13.6665 21.0698 13.6621 21.0627C13.6577 21.0555 13.6551 21.0473 13.6546 21.0389C13.6541 21.0305 13.6557 21.0221 13.6592 21.0145C13.6627 21.0068 13.6681 21.0001 13.6748 20.995C13.7589 20.9322 13.8415 20.8675 13.9226 20.8008C13.9298 20.795 13.9384 20.7912 13.9475 20.79C13.9566 20.7888 13.9659 20.7901 13.9744 20.7939C16.5928 21.9889 19.4277 21.9889 22.0152 20.7939C22.0236 20.7899 22.033 20.7883 22.0423 20.7895C22.0516 20.7906 22.0603 20.7943 22.0675 20.8002C22.1488 20.8672 22.2316 20.9322 22.316 20.995C22.3228 21.0001 22.3282 21.0067 22.3318 21.0143C22.3353 21.022 22.337 21.0303 22.3365 21.0387C22.3361 21.0472 22.3336 21.0553 22.3293 21.0625C22.3249 21.0698 22.3189 21.0758 22.3116 21.0801C21.9129 21.3129 21.4951 21.5116 21.0629 21.6741C21.0562 21.6767 21.0501 21.6806 21.045 21.6857C21.0399 21.6908 21.036 21.6968 21.0334 21.7036C21.0309 21.7103 21.0297 21.7174 21.0301 21.7246C21.0305 21.7318 21.0324 21.7388 21.0357 21.7452C21.2751 22.2073 21.5481 22.6513 21.8524 23.0735C21.8586 23.0821 21.8673 23.0886 21.8774 23.0921C21.8875 23.0955 21.8984 23.0956 21.9086 23.0925C23.3476 22.6522 24.7009 21.9695 25.9103 21.0738C25.9161 21.0695 25.921 21.064 25.9246 21.0577C25.9282 21.0514 25.9304 21.0443 25.9311 21.0371C26.2648 17.5872 25.3724 14.5904 23.5655 11.9339ZM15.3467 19.2194C14.5584 19.2194 13.9088 18.496 13.9088 17.6075C13.9088 16.719 14.5458 15.9955 15.3467 15.9955C16.1539 15.9955 16.7972 16.7253 16.7846 17.6074C16.7846 18.496 16.1476 19.2194 15.3467 19.2194ZM20.6632 19.2194C19.8749 19.2194 19.2253 18.496 19.2253 17.6075C19.2253 16.719 19.8623 15.9955 20.6632 15.9955C21.4705 15.9955 22.1137 16.7253 22.1011 17.6074C22.1011 18.496 21.4705 19.2194 20.6632 19.2194Z" fill="white" fill-opacity="0.4"/>
</svg>
