<svg width="34" height="32" viewBox="0 0 34 32" fill="none" xmlns="http://www.w3.org/2000/svg">
<path fill-rule="evenodd" clip-rule="evenodd" d="M12 10C10.8954 10 10 10.8954 10 12V20C10 21.1046 10.8954 22 12 22H22C23.1046 22 24 21.1046 24 20V12C24 10.8954 23.1046 10 22 10H12ZM13.3 13.6C13.0791 13.4343 12.7657 13.4791 12.6 13.7C12.4343 13.9209 12.4791 14.2343 12.7 14.4L16.7 17.4C16.8778 17.5334 17.1222 17.5334 17.3 17.4L21.3 14.4C21.5209 14.2343 21.5657 13.9209 21.4 13.7C21.2343 13.4791 20.9209 13.4343 20.7 13.6L17 16.375L13.3 13.6Z" fill="white" fill-opacity="0.4"/>
</svg>
