<svg width="16" height="16" viewBox="0 0 16 16" fill="none" xmlns="http://www.w3.org/2000/svg">
<path fill-rule="evenodd" clip-rule="evenodd" d="M2.5 1C1.67157 1 1 1.72323 1 2.61538V13.3846C1 14.2768 1.67157 15 2.5 15H8.5C9.32843 15 10 14.2768 10 13.3846V10.1559C10.8564 10.2028 11.5385 11.0277 11.5385 12.0385V12.9808C11.5385 14.096 12.3134 15 13.2692 15C14.2251 15 15 14.096 15 12.9808V5.62824C15 5.60442 14.9997 5.58064 14.9992 5.55689C14.9997 5.53799 15 5.51903 15 5.5C15 5.33133 14.9791 5.16754 14.9398 5.01106C14.8491 4.55211 14.658 4.12449 14.3812 3.77216L12.3402 1.17461C12.168 0.955395 11.876 0.940586 11.6881 1.14154C11.5002 1.34249 11.4875 1.6831 11.6598 1.90232L12.9164 3.50171C11.8506 3.54551 11 4.42342 11 5.5C11 6.60457 11.8954 7.5 13 7.5C13.3965 7.5 13.7661 7.38462 14.0769 7.18559V12.9808C14.0769 13.5012 13.7153 13.9231 13.2692 13.9231C12.8232 13.9231 12.4615 13.5012 12.4615 12.9808V12.0385C12.4615 10.4329 11.3664 9.1257 10 9.07826V2.61538C10 1.72323 9.32843 1 8.5 1H2.5ZM8.5 4C8.77614 4 9 3.77614 9 3.5V2.5C9 2.22386 8.77614 2 8.5 2H2.5C2.22386 2 2 2.22386 2 2.5V3.5C2 3.77614 2.22386 4 2.5 4H8.5ZM14 5.5C14 6.05228 13.5523 6.5 13 6.5C12.4477 6.5 12 6.05228 12 5.5C12 4.94772 12.4477 4.5 13 4.5C13.5523 4.5 14 4.94772 14 5.5Z" fill="white" fill-opacity="0.4"/>
</svg>
