<svg width="34" height="34" viewBox="0 0 34 34" fill="none" xmlns="http://www.w3.org/2000/svg">
<path fill-rule="evenodd" clip-rule="evenodd" d="M23.9995 16.6463C23.9993 16.764 23.9992 16.8819 23.9992 16.9999C23.9992 17.1318 23.9994 17.2636 23.9996 17.3952C24.0008 18.2281 24.0021 19.0561 23.9537 19.8893C23.8994 21.01 23.6455 22.0029 22.8242 22.8242C22.0047 23.6437 21.01 23.8994 19.8893 23.9537C19.0421 24.0013 18.2004 24.0004 17.3534 23.9995C17.2357 23.9993 17.1178 23.9992 16.9999 23.9992C16.8821 23.9992 16.7645 23.9993 16.647 23.9995C15.8011 24.0004 14.9592 24.0013 14.1105 23.9537C12.9897 23.8994 11.9968 23.6455 11.1755 22.8242C10.356 22.0047 10.1003 21.01 10.0461 19.8893C9.99839 19.0421 9.99932 18.199 10.0003 17.3528C10.0004 17.2352 10.0005 17.1176 10.0005 16.9999C10.0005 16.8821 10.0004 16.7645 10.0003 16.6469C9.99932 15.8011 9.99839 14.9591 10.0461 14.1105C10.1003 12.9897 10.3543 11.9968 11.1755 11.1755C11.9951 10.356 12.9897 10.1003 14.1105 10.0461C14.9576 9.99839 15.7993 9.99932 16.6463 10.0003C16.764 10.0004 16.8819 10.0005 16.9999 10.0005C17.1176 10.0005 17.2353 10.0004 17.3528 10.0003C18.1987 9.99932 19.0406 9.99839 19.8893 10.0461C21.01 10.1003 22.0029 10.3543 22.8242 11.1755C23.6437 11.9951 23.8994 12.9897 23.9537 14.1105C24.0013 14.9576 24.0004 15.7993 23.9995 16.6463ZM13.4065 16.9999C13.4065 18.9874 15.0106 20.5915 16.9981 20.5915C18.9857 20.5915 20.5897 18.9874 20.5897 16.9999C20.5897 15.0123 18.9857 13.4083 16.9981 13.4083C15.0106 13.4083 13.4065 15.0123 13.4065 16.9999ZM19.898 13.2612C19.898 13.7252 20.2728 14.1 20.7368 14.1C21.2009 14.1 21.5739 13.727 21.5756 13.2612C21.5756 12.7971 21.2009 12.4224 20.7368 12.4224C20.2728 12.4224 19.898 12.7971 19.898 13.2612ZM14.6638 16.9998C14.6638 15.7145 15.7128 14.6655 16.9981 14.6655C18.2835 14.6655 19.3324 15.7145 19.3324 16.9998C19.3324 18.2852 18.2835 19.3341 16.9981 19.3341C15.7128 19.3341 14.6638 18.2852 14.6638 16.9998Z" fill="white" fill-opacity="0.4"/>
</svg>
