<svg width="24" height="24" viewBox="0 0 24 24" fill="none" xmlns="http://www.w3.org/2000/svg">
<path fill-rule="evenodd" clip-rule="evenodd" d="M9.03038 13C9.12905 14.6095 9.46238 16.0425 9.9469 17.104C8.22477 16.4106 6.93435 14.8709 6.59069 13H9.03038ZM10.5335 13C10.6252 14.3545 10.8979 15.52 11.2574 16.3589C11.4812 16.8811 11.7092 17.2079 11.8859 17.3823C11.935 17.4307 11.973 17.461 12 17.4796C12.027 17.461 12.065 17.4307 12.1141 17.3823C12.2908 17.2079 12.5188 16.8811 12.7426 16.3589C13.1021 15.52 13.3748 14.3545 13.4665 13H10.5335ZM13.4917 11.5H10.5083C10.5604 9.93248 10.8543 8.58161 11.2574 7.64113C11.4812 7.11892 11.7092 6.79215 11.8859 6.61772C11.935 6.56927 11.973 6.53897 12 6.52038C12.027 6.53897 12.065 6.56927 12.1141 6.61772C12.2908 6.79215 12.5188 7.11892 12.7426 7.64113C13.1457 8.58161 13.4396 9.93248 13.4917 11.5ZM14.9696 13C14.8709 14.6095 14.5376 16.0425 14.0531 17.104C15.7752 16.4106 17.0656 14.8709 17.4093 13H14.9696ZM17.4776 11.5H14.9925C14.9377 9.68794 14.5873 8.0663 14.0531 6.896C15.9264 7.65024 17.2889 9.40589 17.4776 11.5ZM9.00753 11.5H6.52242C6.71113 9.40589 8.07361 7.65024 9.9469 6.896C9.41274 8.0663 9.06234 9.68794 9.00753 11.5ZM19 12C19 8.13401 15.866 5 12 5C8.13401 5 5 8.13401 5 12C5 15.866 8.13401 19 12 19C15.866 19 19 15.866 19 12Z" fill="white" fill-opacity="0.4"/>
</svg>
