<svg width="20" height="20" viewBox="0 0 20 20" fill="none" xmlns="http://www.w3.org/2000/svg">
<path fill-rule="evenodd" clip-rule="evenodd" d="M13.625 9.125C13.625 11.6103 11.6103 13.625 9.125 13.625C6.63972 13.625 4.625 11.6103 4.625 9.125C4.625 6.63972 6.63972 4.625 9.125 4.625C11.6103 4.625 13.625 6.63972 13.625 9.125ZM12.8042 13.8649C11.7882 14.6547 10.5115 15.125 9.125 15.125C5.81129 15.125 3.125 12.4387 3.125 9.125C3.125 5.81129 5.81129 3.125 9.125 3.125C12.4387 3.125 15.125 5.81129 15.125 9.125C15.125 10.5115 14.6547 11.7882 13.8649 12.8042L16.6553 15.5947C16.9482 15.8876 16.9482 16.3624 16.6553 16.6553C16.3624 16.9482 15.8876 16.9482 15.5947 16.6553L12.8042 13.8649Z" fill="white" fill-opacity="0.4"/>
</svg>
