<svg width="36" height="34" viewBox="0 0 36 34" fill="none" xmlns="http://www.w3.org/2000/svg">
<path d="M26 12.033C25.4002 12.2997 24.7638 12.475 24.112 12.553C24.7965 12.1425 25.3083 11.4971 25.552 10.737C24.9066 11.1205 24.2004 11.391 23.464 11.537C23.0128 11.0595 22.4287 10.7286 21.7872 10.5869C21.1458 10.4453 20.4766 10.4995 19.8663 10.7426C19.256 10.9857 18.7328 11.4064 18.3644 11.9503C17.996 12.4941 17.7994 13.1361 17.8 13.793C17.8011 14.0435 17.8306 14.2931 17.888 14.537C16.5817 14.4707 15.3039 14.1301 14.1378 13.5374C12.9718 12.9447 11.9436 12.1132 11.12 11.097C10.8271 11.5968 10.6724 12.1656 10.672 12.745C10.6575 13.2798 10.7773 13.8098 11.0205 14.2863C11.2636 14.7629 11.6224 15.1709 12.064 15.473C11.52 15.457 10.504 15.313 10.504 15.065V15.105C10.5242 15.8662 10.803 16.5978 11.2945 17.1795C11.786 17.7611 12.4608 18.1581 13.208 18.305C12.9476 18.378 12.6785 18.4157 12.408 18.417C12.2067 18.4177 12.0057 18.399 11.808 18.361C12.0192 19.0134 12.4287 19.5836 12.9794 19.9923C13.53 20.401 14.1944 20.6278 14.88 20.641C13.7192 21.5617 12.2816 22.0635 10.8 22.065C10.5326 22.0646 10.2655 22.0486 10 22.017C11.5014 22.9803 13.2482 23.4913 15.032 23.489C16.2631 23.5018 17.4844 23.2693 18.6246 22.805C19.7649 22.3408 20.8013 21.6541 21.6733 20.785C22.5453 19.9159 23.2356 18.8819 23.7037 17.7433C24.1719 16.6046 24.4086 15.3841 24.4 14.153V13.729C25.0287 13.262 25.5703 12.6879 26 12.033Z" fill="white" fill-opacity="0.4"/>
</svg>
