<svg width="24" height="24" viewBox="0 0 24 24" fill="none" xmlns="http://www.w3.org/2000/svg">
<path fill-rule="evenodd" clip-rule="evenodd" d="M16 15.5V10.5C16 8.29086 14.2091 6.5 12 6.5C9.79086 6.5 8 8.29086 8 10.5V15.5H10H11H13H14H16ZM17 15.5V10.5C17 7.73858 14.7614 5.5 12 5.5C9.23858 5.5 7 7.73858 7 10.5V15.5H6.5C6.22386 15.5 6 15.7239 6 16C6 16.2761 6.22386 16.5 6.5 16.5H7H8H10C10 17.6046 10.8954 18.5 12 18.5C13.1046 18.5 14 17.6046 14 16.5H16H17H17.5C17.7761 16.5 18 16.2761 18 16C18 15.7239 17.7761 15.5 17.5 15.5H17ZM13 16.5L11 16.5C11 17.0523 11.4477 17.5 12 17.5C12.5523 17.5 13 17.0523 13 16.5Z" fill="white" fill-opacity="0.4"/>
</svg>
