<svg width="46" height="110" viewBox="0 0 46 110" fill="none" xmlns="http://www.w3.org/2000/svg">
<g clip-path="url(#clip0_966_70878)" filter="url(#filter0_f_966_70878)">
<path d="M18.9752 30.3422C11.561 39.7358 7.29974 58.3754 9.45623 71.9805C11.6127 85.5857 19.3729 88.9945 26.7837 79.6053C34.1945 70.2161 38.4592 51.5721 36.3027 37.967C34.1462 24.3618 26.3895 20.9486 18.9752 30.3422Z" fill="#FFD96B"/>
<path d="M35.1285 60.3757L10.6218 49.5976C6.90996 65.8555 9.38056 81.4424 16.1453 84.4191C22.9135 87.3915 31.4088 76.636 35.1285 60.3757Z" fill="#FDC223"/>
<path d="M20.0417 37.0686C14.6523 43.8968 11.5546 57.4469 13.1186 67.3408C14.6862 77.2302 20.325 79.7115 25.7153 72.8897L25.7188 72.8854C31.1082 66.0572 34.2059 52.507 32.6418 42.6132C31.0777 32.7194 25.4345 30.2361 20.0417 37.0686C20.0451 37.0642 20.0451 37.0642 20.0417 37.0686Z" fill="#F9AB10"/>
<path d="M31.9154 58.2698C34.4141 46.6836 32.607 35.7019 27.7724 33.5746C22.9389 31.4535 16.899 38.9762 14.1277 50.4425C14.1312 50.4381 31.9154 58.2698 31.9154 58.2698Z" fill="#F9B721"/>
<path d="M19.8766 56.932L19.1779 52.524L20.6109 50.7085L21.3096 55.1165L22.0849 54.1341L21.3862 49.7261L22.8193 47.9105L23.3106 51.0101L26.8125 42.1343L27.3924 45.7928L25.0102 51.6635C24.7124 52.4069 24.441 53.0025 24.1981 53.4628C24.5051 53.2493 24.8474 53.0749 25.2136 52.9465L28.3569 51.8777L28.9368 55.5362L24.2559 56.9743L24.7553 60.1247L23.3222 61.9403L22.6135 57.4687L21.8381 58.4511L22.5469 62.9226L21.1139 64.7382L20.4051 60.2666L17.373 64.1083L16.8444 60.7737L19.8766 56.932Z" fill="#D3830D"/>
<path d="M24.526 56.8916L19.5217 54.6895L19.8761 56.9253L16.8439 60.7669L17.3735 64.1079L20.4056 60.2662L21.1144 64.7378L22.5474 62.9222L21.8386 58.4507L22.614 57.4683L23.3228 61.9399L24.7558 60.1243L24.2564 56.9739L24.526 56.8916Z" fill="#BF790A"/>
</g>
<defs>
<filter id="filter0_f_966_70878" x="-1.99805" y="-2" width="49.7539" height="113.947" filterUnits="userSpaceOnUse" color-interpolation-filters="sRGB">
<feFlood flood-opacity="0" result="BackgroundImageFix"/>
<feBlend mode="normal" in="SourceGraphic" in2="BackgroundImageFix" result="shape"/>
<feGaussianBlur stdDeviation="1" result="effect1_foregroundBlur_966_70878"/>
</filter>
<clipPath id="clip0_966_70878">
<rect width="65.8525" height="57.2097" fill="white" transform="matrix(0.156551 0.98767 -0.619554 0.784954 35.4473 0)"/>
</clipPath>
</defs>
</svg>
