<svg width="107" height="107" viewBox="0 0 107 107" fill="none" xmlns="http://www.w3.org/2000/svg">
<path fill-rule="evenodd" clip-rule="evenodd" d="M107 0.762207L0.00235748 106.763L0.00236511 57.2076L56.9786 0.762207H107Z" fill="#FE0000"/>
<path d="M12.2833 68.675C11.9579 68.3978 11.6099 68.2758 11.2393 68.3089C10.8716 68.3391 10.4844 68.5575 10.0777 68.9643C9.81851 69.2235 9.63772 69.4675 9.53527 69.6965C9.43282 69.9195 9.39515 70.1229 9.42227 70.3067C9.44939 70.4905 9.52924 70.6517 9.66183 70.7903C9.76729 70.9079 9.88782 70.9892 10.0234 71.0344C10.159 71.0736 10.3142 71.0781 10.489 71.048C10.6607 71.0148 10.8551 70.947 11.072 70.8446C11.289 70.7421 11.53 70.6035 11.7952 70.4288L12.7173 69.8321C13.338 69.4284 13.9195 69.1331 14.4619 68.9462C15.0043 68.7594 15.512 68.6705 15.9851 68.6796C16.4552 68.6856 16.8936 68.7835 17.3004 68.9734C17.7102 69.1602 18.0929 69.4284 18.4484 69.7779C19.0541 70.3896 19.4172 71.057 19.5377 71.7802C19.6582 72.5034 19.5483 73.2552 19.2078 74.0356C18.8703 74.813 18.3098 75.5934 17.5264 76.3769C16.7218 77.1814 15.9007 77.7645 15.0631 78.1261C14.2284 78.4846 13.3982 78.5826 12.5726 78.4199C11.747 78.2511 10.9455 77.7811 10.168 77.0097L12.5545 74.6232C12.8528 74.8914 13.1617 75.0586 13.4811 75.1249C13.8005 75.1912 14.1244 75.1595 14.4529 75.03C14.7843 74.8974 15.1098 74.6714 15.4292 74.352C15.6973 74.0838 15.8887 73.8262 16.0032 73.5791C16.1177 73.332 16.1629 73.103 16.1388 72.8921C16.1147 72.6811 16.0288 72.4988 15.8812 72.3452C15.7365 72.2066 15.5663 72.1297 15.3704 72.1147C15.1745 72.0936 14.9335 72.1418 14.6472 72.2593C14.358 72.3738 14.0039 72.5651 13.5851 72.8333L12.4641 73.5565C11.4668 74.1983 10.5236 74.5478 9.63471 74.6051C8.7458 74.6563 7.94127 74.3188 7.2211 73.5927C6.63051 73.0081 6.27344 72.3376 6.1499 71.5813C6.02635 70.819 6.12278 70.0325 6.43917 69.2219C6.75857 68.4084 7.28438 67.6355 8.0166 66.9033C8.76388 66.156 9.53527 65.6347 10.3308 65.3394C11.1263 65.0441 11.8992 64.9763 12.6495 65.136C13.3997 65.2897 14.0792 65.6678 14.6879 66.2705L12.2833 68.675ZM26.4734 57.9562C27.504 58.9867 28.1729 60.0564 28.4803 61.1653C28.7846 62.2712 28.7786 63.3469 28.4622 64.3925C28.1428 65.4351 27.5642 66.3752 26.7266 67.2129C25.8828 68.0566 24.9382 68.6366 23.8926 68.953C22.847 69.2634 21.7713 69.2664 20.6654 68.9621C19.5596 68.6517 18.4944 67.9843 17.4699 66.9598C16.4394 65.9292 15.7704 64.8625 15.4631 63.7597C15.1557 62.6508 15.1602 61.5766 15.4766 60.537C15.793 59.4914 16.3731 58.5468 17.2168 57.7031C18.0544 56.8654 18.9961 56.2884 20.0417 55.972C21.0843 55.6526 22.16 55.6466 23.2689 55.9539C24.3747 56.2582 25.4429 56.9257 26.4734 57.9562ZM23.8881 60.5416C23.3336 59.9871 22.7928 59.5939 22.2655 59.3619C21.7381 59.1238 21.2334 59.05 20.7513 59.1404C20.2692 59.2248 19.8202 59.4749 19.4044 59.8907C18.9886 60.3065 18.7369 60.757 18.6496 61.2421C18.5622 61.7212 18.636 62.226 18.871 62.7563C19.1061 63.2806 19.5008 63.82 20.0552 64.3744C20.6097 64.9288 21.1506 65.3251 21.6779 65.5631C22.2052 65.7951 22.7099 65.869 23.192 65.7846C23.6741 65.6942 24.1231 65.4411 24.5389 65.0253C24.9548 64.6094 25.2064 64.162 25.2938 63.6829C25.3811 63.1977 25.3073 62.693 25.0723 62.1687C24.8373 61.6384 24.4425 61.096 23.8881 60.5416ZM32.2645 61.4218L23.0078 52.1651L25.5209 49.6521L32.7527 56.8839L36.4951 53.1414L38.52 55.1663L32.2645 61.4218ZM43.0975 50.5888L39.5358 54.1505L30.2792 44.8938L33.8047 41.3683C34.7568 40.4161 35.7648 39.7788 36.8284 39.4564C37.8921 39.128 38.9588 39.122 40.0285 39.4383C41.0982 39.7487 42.1152 40.386 43.0794 41.3502C44.0436 42.3145 44.684 43.3314 45.0003 44.4011C45.3137 45.4678 45.3107 46.5315 44.9913 47.5922C44.6689 48.6498 44.0376 49.6487 43.0975 50.5888ZM39.9155 49.5041L40.8737 48.5459C41.3317 48.0878 41.6481 47.6238 41.8229 47.1537C42.0007 46.6807 41.9931 46.179 41.8003 45.6486C41.6104 45.1153 41.1931 44.5262 40.5483 43.8814C39.9034 43.2365 39.3129 42.8207 38.7765 42.6339C38.2432 42.444 37.7354 42.4425 37.2533 42.6294C36.7742 42.8132 36.2936 43.1461 35.8115 43.6282L34.9256 44.5141L39.9155 49.5041ZM55.7452 28.6845C56.7757 29.715 57.4446 30.7847 57.752 31.8936C58.0563 32.9994 58.0503 34.0752 57.7339 35.1207C57.4145 36.1633 56.836 37.1035 55.9983 37.9411C55.1546 38.7848 54.2099 39.3649 53.1643 39.6813C52.1187 39.9916 51.043 39.9947 49.9372 39.6903C48.8313 39.38 47.7661 38.7125 46.7416 37.688C45.7111 36.6575 45.0421 35.5908 44.7348 34.488C44.4274 33.3791 44.432 32.3049 44.7484 31.2653C45.0647 30.2197 45.6448 29.2751 46.4885 28.4314C47.3262 27.5937 48.2678 27.0166 49.3134 26.7002C50.356 26.3808 51.4317 26.3748 52.5406 26.6822C53.6465 26.9865 54.7146 27.6539 55.7452 28.6845ZM53.1598 31.2698C52.6054 30.7154 52.0645 30.3222 51.5372 30.0901C51.0099 29.8521 50.5052 29.7783 50.023 29.8687C49.5409 29.953 49.0919 30.2031 48.6761 30.619C48.2603 31.0348 48.0087 31.4853 47.9213 31.9704C47.8339 32.4495 47.9077 32.9542 48.1428 33.4846C48.3778 34.0089 48.7725 34.5482 49.327 35.1027C49.8814 35.6571 50.4223 36.0533 50.9496 36.2914C51.4769 36.5234 51.9816 36.5972 52.4638 36.5129C52.9459 36.4225 53.3948 36.1694 53.8107 35.7535C54.2265 35.3377 54.4781 34.8902 54.5655 34.4111C54.6529 33.926 54.5791 33.4213 54.344 32.897C54.109 32.3666 53.7143 31.8243 53.1598 31.2698ZM57.7576 17.4153L60.2707 14.9023L66.2007 20.8323C66.9058 21.5374 67.3473 22.3164 67.5251 23.1691C67.7028 24.0158 67.632 24.8791 67.3126 25.759C66.9902 26.6358 66.4328 27.4705 65.6403 28.263C64.8418 29.0615 64.0041 29.622 63.1272 29.9444C62.2474 30.2638 61.3841 30.3346 60.5374 30.1568C59.6906 29.973 58.9147 29.5286 58.2096 28.8235L52.2796 22.8934L54.7926 20.3804L60.5057 26.0935C60.792 26.3797 61.1114 26.5726 61.4639 26.672C61.8135 26.7684 62.163 26.7684 62.5125 26.672C62.8651 26.5726 63.1845 26.3797 63.4707 26.0935C63.76 25.8042 63.9529 25.4848 64.0493 25.1352C64.1457 24.7857 64.1457 24.4362 64.0493 24.0866C63.9498 23.7341 63.757 23.4147 63.4707 23.1284L57.7576 17.4153ZM63.2368 15.9859L61.2119 13.961L69.2573 5.91568L71.2822 7.94058L68.498 10.7248L75.7297 17.9566L73.2528 20.4335L66.0211 13.2017L63.2368 15.9859Z" fill="white"/>
</svg>
