<?xml version="1.0" encoding="UTF-8"?>
<svg width="760px" height="231px" viewBox="0 0 760 231" version="1.1" xmlns="http://www.w3.org/2000/svg" xmlns:xlink="http://www.w3.org/1999/xlink">
    <title>路径 5</title>
    <defs>
        <path d="M0,0 L760,0 L760,218.322456 C760,224.949873 754.627417,230.322456 748,230.322456 L12,230.322456 C5.372583,230.322456 2.58798134e-15,224.949873 0,218.322456" id="path-1"></path>
        <linearGradient x1="91.668711%" y1="34.5571867%" x2="-17.9254787%" y2="67.3118036%" id="linearGradient-3">
            <stop stop-color="#32C5FF" offset="0%"></stop>
            <stop stop-color="#B620E0" offset="100%"></stop>
        </linearGradient>
        <filter x="-25.4%" y="-41.0%" width="150.8%" height="182.0%" filterUnits="objectBoundingBox" id="filter-4">
            <feGaussianBlur stdDeviation="50" in="SourceGraphic"></feGaussianBlur>
        </filter>
        <linearGradient x1="84.2159502%" y1="49.3918831%" x2="8.51554022%" y2="79.2352975%" id="linearGradient-5">
            <stop stop-color="#00AAD4" offset="0%"></stop>
            <stop stop-color="#F7B500" offset="100%"></stop>
        </linearGradient>
        <filter x="-25.4%" y="-41.0%" width="150.8%" height="182.0%" filterUnits="objectBoundingBox" id="filter-6">
            <feGaussianBlur stdDeviation="50" in="SourceGraphic"></feGaussianBlur>
        </filter>
    </defs>
    <g id="香菜" stroke="none" stroke-width="1" fill="none" fill-rule="evenodd" opacity="0.498590379">
        <g id="花泽香菜mint-状态及弹窗" transform="translate(-104.000000, -1941.000000)">
            <g id="编组-54" transform="translate(104.000000, 1712.000000)">
                <g id="椭圆形" transform="translate(0.000000, 229.677544)">
                    <mask id="mask-2" fill="white">
                        <use xlink:href="#path-1" transform="translate(380.000000, 115.161228) scale(-1, 1) translate(-380.000000, -115.161228) "></use>
                    </mask>
                    <use id="蒙版" fill="#FFFFFF" transform="translate(380.000000, 115.161228) scale(-1, 1) translate(-380.000000, -115.161228) " xlink:href="#path-1"></use>
                    <ellipse fill="url(#linearGradient-3)" opacity="0.407207671" filter="url(#filter-4)" mask="url(#mask-2)" cx="617.5" cy="156.322456" rx="295.5" ry="183"></ellipse>
                    <ellipse id="椭圆形备份-5" fill="url(#linearGradient-5)" opacity="0.361998059" filter="url(#filter-6)" mask="url(#mask-2)" cx="117.5" cy="46.3224563" rx="295.5" ry="183"></ellipse>
                </g>
            </g>
        </g>
    </g>
</svg>