<svg width="215" height="205" viewBox="0 0 215 205" fill="none" xmlns="http://www.w3.org/2000/svg">
<path d="M42.468 203.243C42.0348 203.243 41.6508 202.964 41.517 202.552L1.40201 79.0821C1.26814 78.6701 1.41481 78.2187 1.76529 77.9641L106.786 1.66308C107.137 1.40845 107.611 1.40844 107.962 1.66307L212.988 77.9641C213.338 78.2187 213.485 78.6701 213.351 79.0821L173.236 202.552C173.103 202.964 172.719 203.243 172.285 203.243H42.468Z" stroke="white" stroke-width="2"/>
<path d="M43.7811 202.658C42.7878 202.771 41.8637 202.133 41.6171 201.164L11.1426 81.4424C10.9256 80.5899 11.2911 79.6957 12.0431 79.2393L106.302 22.0302C106.961 21.6305 107.79 21.6446 108.435 22.0666L198.238 80.847C198.992 81.3405 199.323 82.2774 199.046 83.135L165.291 187.668C165.05 188.415 164.394 188.952 163.613 189.04L43.7811 202.658Z" fill="#FDE101"/>
</svg>
