<svg width="46" height="47" viewBox="0 0 46 47" fill="none" xmlns="http://www.w3.org/2000/svg">
<path d="M42.8598 35.4999C43.0995 35.0799 43.3192 34.6599 43.5289 34.2299L43.6587 33.9699C43.8451 33.5766 44.0215 33.1833 44.188 32.7899V32.6899C45.6744 29.0415 46.2024 25.0725 45.7217 21.1616C45.2409 17.2507 43.7674 13.5285 41.4418 10.3499C40.5099 9.08017 39.449 7.91058 38.2762 6.85992C37.6926 6.33892 37.0826 5.84828 36.4487 5.38992C35.8055 4.9259 35.1389 4.49533 34.4515 4.09992C33.9222 3.79992 33.373 3.51992 32.8138 3.24992L32.0848 2.90992L31.6254 2.72992C26.9798 0.805559 21.8287 0.475039 16.9758 1.78992C16.4265 1.93992 15.8873 2.12992 15.348 2.30992H15.2981C14.8387 2.46992 14.3794 2.64992 13.93 2.84992L13.5805 2.99992C13.1311 3.19992 12.6917 3.40992 12.2523 3.63992L12.0626 3.74992C10.709 4.48808 9.43418 5.3626 8.25789 6.35992L7.8185 6.72992C7.49894 7.00992 7.17939 7.29992 6.8798 7.60992L6.42044 8.07992C5.82029 8.71384 5.25682 9.3816 4.73279 10.0799L4.5031 10.3699C3.98845 11.0532 3.51172 11.7642 3.07509 12.4999C1.443 15.3397 0.435644 18.4959 0.120476 21.7571C-0.194692 25.0184 0.189602 28.3095 1.24763 31.4099L1.37745 31.7699C1.53722 32.2299 1.71697 32.6799 1.90671 33.1199L2.06649 33.4699C2.22627 33.8299 2.39603 34.1833 2.57578 34.5299L2.7755 34.9299C3.00851 35.3566 3.25151 35.7766 3.50449 36.1899L3.68424 36.4699C3.94388 36.8766 4.21684 37.2733 4.5031 37.6599L4.56302 37.7399C7.37925 41.5317 11.2957 44.3605 15.7774 45.8399L16.0171 45.9099C16.4565 46.0499 16.8859 46.1799 17.3253 46.2899L17.9345 46.4299L18.9331 46.6299L19.6521 46.7499L20.5808 46.8599L21.2998 46.9299H22.9974C23.5267 46.9299 24.0559 46.9299 24.5752 46.8699H24.9447C25.424 46.8299 25.9034 46.7733 26.3827 46.6999H26.6224C32.6141 45.7278 37.9779 42.4202 41.5417 37.4999L41.6016 37.4299L41.8213 37.0999L42.1209 36.6599C42.3905 36.2699 42.6301 35.8899 42.8598 35.4999ZM42.74 30.9999C42.5602 31.5199 42.3705 31.9999 42.1408 32.5299L42.011 32.8099C41.7414 33.3899 41.4518 33.9699 41.1322 34.5299L39.3048 28.9999L43.8485 25.6999V25.9299C43.8485 26.4099 43.7486 26.9299 43.6687 27.3499C43.6687 27.6199 43.5788 27.8899 43.5289 28.1599C43.479 28.4299 43.4091 28.7299 43.3392 29.0099C43.2293 29.4599 43.1095 29.9199 42.9597 30.3699C42.8798 30.5599 42.8099 30.7499 42.74 30.9999ZM33.3131 25.5399L29.9577 15.2799L32.4643 11.9299H40.0637C42.4064 15.23 43.7514 19.1353 43.9383 23.1799L37.9467 27.4899L33.3131 25.5399ZM26.9619 44.5899L26.1031 44.7399C25.6537 44.8099 25.1944 44.8599 24.735 44.8999H24.3056C23.7264 44.9399 23.1472 44.9399 22.568 44.8999H22.2684C21.6493 44.8999 21.0401 44.8399 20.421 44.7599H20.2812C19.6421 44.6799 19.013 44.5699 18.3738 44.4299L22.9675 41.1499L27.5211 44.4599L26.9619 44.5899ZM22.9675 31.8099L14.649 25.7599L17.8246 15.9999H28.1103L31.2859 25.7999L22.9675 31.8099ZM33.4529 5.80992C34.0221 6.13992 34.5614 6.48992 35.0806 6.85992L35.56 7.21992C35.9195 7.48659 36.2523 7.76326 36.5586 8.04992L37.0679 8.49992C37.3874 8.78992 37.687 9.08992 37.9866 9.39992C38.1364 9.54992 38.2862 9.69992 38.426 9.84992L38.4859 9.91992H32.4443L30.6768 4.48992C31.6346 4.86189 32.5626 5.30652 33.4529 5.81992V5.80992ZM17.545 3.71992C19.3136 3.24512 21.1364 3.00308 22.9675 2.99992C24.7611 3.00179 26.547 3.2371 28.2801 3.69992L30.6967 10.9999L28.4898 13.9999H17.3453L14.2795 10.8899L16.4964 4.04992C16.846 3.93992 17.1855 3.80992 17.545 3.71992ZM14.0998 4.99992L12.492 9.93992H7.40907C9.28393 7.85841 11.5598 6.17807 14.0998 4.99992ZM4.81267 13.4999C5.12224 12.9599 5.46177 12.4399 5.81129 11.9399H12.502L15.9173 15.3599L12.5819 25.6499L7.8185 28.3799L1.99659 24.1699C1.96068 20.4245 2.93349 16.7385 4.81267 13.4999ZM4.69284 34.2399C4.48313 33.8699 4.27342 33.4999 4.09367 33.1199C3.91392 32.7399 3.85401 32.5499 3.72419 32.2699C3.59437 31.9899 3.40463 31.5399 3.27481 31.1699C3.14499 30.7999 3.11503 30.6599 3.03514 30.4099C2.89534 29.9799 2.76552 29.5399 2.65567 29.0999C2.65567 28.9099 2.57578 28.7199 2.53584 28.5299C2.416 27.9999 2.31614 27.4699 2.24624 26.9299V26.7999L6.63015 29.9999L5.04236 34.8799C4.92252 34.6699 4.81267 34.4499 4.69284 34.2399ZM6.48036 36.9499L8.67731 30.1899L13.5306 27.4099L21.9688 33.5499V39.3999L15.9772 43.7699C12.2252 42.4586 8.93342 40.0862 6.50033 36.9399L6.48036 36.9499ZM29.9577 43.7699L23.9661 39.3999V33.5499L32.5242 27.3299L37.3375 29.3899L39.6942 36.6399C37.2202 39.9244 33.8333 42.4047 29.9577 43.7699Z" fill="#FF004C"/>
</svg>
