<svg width="49" height="48" viewBox="0 0 49 48" fill="none" xmlns="http://www.w3.org/2000/svg">
<path fill-rule="evenodd" clip-rule="evenodd" d="M24.1637 44C35.194 44 44.1359 35.0457 44.1359 24C44.1359 12.9543 35.194 4 24.1637 4C13.1333 4 4.19141 12.9543 4.19141 24C4.19141 35.0457 13.1333 44 24.1637 44Z" stroke="white" stroke-width="3"/>
<path d="M24.1637 44C35.194 44 44.1359 35.0457 44.1359 24C44.1359 12.9543 35.194 4 24.1637 4C13.1333 4 4.19141 12.9543 4.19141 24C4.19141 35.0457 13.1333 44 24.1637 44Z" fill="white" stroke="white" stroke-width="3" stroke-linejoin="round"/>
<path d="M33.1508 27L24.1633 18L15.1758 27" stroke="black" stroke-width="3" stroke-linecap="round" stroke-linejoin="round"/>
</svg>
