<svg width="30" height="30" viewBox="0 0 30 30" fill="none" xmlns="http://www.w3.org/2000/svg">
<g clip-path="url(#clip0_44_70)">
<path d="M15 30C23.2843 30 30 23.2843 30 15C30 6.71573 23.2843 0 15 0C6.71573 0 0 6.71573 0 15C0 23.2843 6.71573 30 15 30Z" fill="#ECB300"/>
<path fill-rule="evenodd" clip-rule="evenodd" d="M15.0033 3.29749L9.01457 6.88499L11.2158 8.20999L15.0033 5.94749L18.7908 8.20999L20.9933 6.88499L15.0033 3.29749ZM18.7908 10.0825L20.9933 11.4075V14.0575L17.2058 16.32V20.8437L15.0033 22.1687L12.8021 20.8437V16.32L9.01457 14.0575V11.4075L11.2158 10.0825L15.0033 12.345L18.7908 10.0825ZM20.9933 15.9325V18.5825L18.7908 19.9075V17.2575L20.9933 15.9325ZM18.7683 21.78L22.5558 19.5175V14.995L24.7583 13.67V20.8437L18.7683 24.4312V21.7812V21.78ZM22.5558 10.4712L20.3546 9.14624L22.5558 7.82124L24.7583 9.14624V11.7962L22.5558 13.1212V10.4712ZM12.8008 25.39V22.74L15.0033 24.065L17.2058 22.74V25.39L15.0033 26.715L12.8021 25.39H12.8008ZM11.2158 19.9062L9.01457 18.5812V15.9312L11.2158 17.2562V19.9062ZM15.0033 10.4712L12.8021 9.14624L15.0033 7.82124L17.2058 9.14624L15.0033 10.4712ZM9.65332 9.14624L7.44957 10.4712V13.1212L5.24707 11.7962V9.14624L7.44957 7.82124L9.65082 9.14624H9.65332ZM5.24832 13.67L7.45082 14.995V19.5187L11.2383 21.7812V24.4312L5.24832 20.8437V13.6687V13.67Z" fill="white"/>
</g>
<defs>
<clipPath id="clip0_44_70">
<rect width="30" height="30" fill="white"/>
</clipPath>
</defs>
</svg>
