<svg width="30" height="30" viewBox="0 0 30 30" fill="none" xmlns="http://www.w3.org/2000/svg">
<g clip-path="url(#clip0_44_65)">
<path d="M15 30C23.2843 30 30 23.2843 30 15C30 6.71573 23.2843 0 15 0C6.71573 0 0 6.71573 0 15C0 23.2843 6.71573 30 15 30Z" fill="#3028BB"/>
<path d="M9.62793 13.53L14.9979 5.07874V17.7562L9.62793 13.53Z" fill="white"/>
<path d="M14.995 5.07874L20.3638 13.5287L14.995 17.755V5.07874ZM14.9963 19.4475L9.625 15.2225L14.995 23.6725V19.4475H14.9963ZM15 19.4475L20.3688 15.2225L15 23.6725V19.4475Z" fill="white"/>
<path d="M20.3667 13.53L14.9967 11.8375V17.7538L20.3667 13.5288V13.53ZM9.62793 13.53L14.9967 11.8388V17.755L9.62793 13.53Z" fill="white"/>
</g>
<defs>
<clipPath id="clip0_44_65">
<rect width="30" height="30" fill="white"/>
</clipPath>
</defs>
</svg>
