<svg width="196" height="185" viewBox="0 0 196 185" fill="none" xmlns="http://www.w3.org/2000/svg">
<path d="M128.774 71.0327L235.325 132.55V147.291C235.325 149.895 233.936 152.301 231.681 153.603L132.539 210.843C130.284 212.145 127.505 212.145 125.25 210.843L26.2001 153.656C23.9451 152.354 22.556 149.948 22.556 147.344V132.358L128.774 71.0327Z" fill="#DCE8E6" stroke="#2C3242" stroke-width="0.373755"/>
<mask id="path-2-inside-1_664_4284" fill="white">
<path fill-rule="evenodd" clip-rule="evenodd" d="M128.779 65.4646L230.804 124.368L235.492 132.489L128.888 194.036L22.3631 132.534L27.2389 124.089L128.779 65.4646Z"/>
</mask>
<path fill-rule="evenodd" clip-rule="evenodd" d="M128.779 65.4646L230.804 124.368L235.492 132.489L128.888 194.036L22.3631 132.534L27.2389 124.089L128.779 65.4646Z" fill="#D3DEDC"/>
<path d="M230.804 124.368L231.127 124.182L231.077 124.095L230.99 124.045L230.804 124.368ZM128.779 65.4646L128.966 65.1409L128.779 65.033L128.592 65.1409L128.779 65.4646ZM235.492 132.489L235.679 132.812L236.002 132.625L235.815 132.302L235.492 132.489ZM128.888 194.036L128.701 194.36L128.888 194.468L129.075 194.36L128.888 194.036ZM22.3633 132.534L22.0396 132.347L21.8527 132.671L22.1764 132.858L22.3633 132.534ZM27.2392 124.089L27.0523 123.765L26.9656 123.815L26.9155 123.902L27.2392 124.089ZM230.99 124.045L128.966 65.1409L128.592 65.7883L230.617 124.692L230.99 124.045ZM235.815 132.302L231.127 124.182L230.48 124.555L235.168 132.675L235.815 132.302ZM129.075 194.36L235.679 132.812L235.305 132.165L128.701 193.712L129.075 194.36ZM22.1764 132.858L128.701 194.36L129.075 193.712L22.5502 132.21L22.1764 132.858ZM22.687 132.721L27.5629 124.276L26.9155 123.902L22.0396 132.347L22.687 132.721ZM128.592 65.1409L27.0523 123.765L27.4261 124.412L128.966 65.7883L128.592 65.1409Z" fill="#2C3242" mask="url(#path-2-inside-1_664_4284)"/>
<rect x="-1.11388e-08" y="0.186878" width="117.243" height="117.128" transform="matrix(0.866025 0.5 -0.866025 0.5 128.941 65.5578)" fill="#F8FAFA" stroke="#2C3242" stroke-width="0.373755"/>
<rect x="-1.11388e-08" y="0.186878" width="88.5959" height="88.5088" transform="matrix(0.866025 0.5 -0.866025 0.5 128.951 76.3659)" fill="#2C3242" stroke="#2C3242" stroke-width="0.373755"/>
<rect x="0.161841" y="0.280316" width="84.4174" height="125.173" transform="matrix(0.866025 0.5 -2.20305e-08 1 55.4611 -5.30822)" fill="#DCE8E6" stroke="#2C3242" stroke-width="0.373755"/>
<rect x="0.161841" y="0.0934388" width="84.4174" height="125.173" transform="matrix(0.866025 -0.5 2.20305e-08 1 128.76 37.2489)" fill="#DCE8E6" stroke="#2C3242" stroke-width="0.373755"/>
<rect x="0.161841" y="0.0934388" width="86.6218" height="140.596" transform="matrix(0.866025 -0.5 2.20305e-08 1 128.752 -1.62343)" fill="#DCE8E6" stroke="#2C3242" stroke-width="0.373755"/>
<rect x="0.161841" y="0.0934388" width="86.6218" height="122.013" transform="matrix(0.866025 -0.5 2.20305e-08 1 128.752 16.9596)" fill="#538CC0" stroke="#2C3242" stroke-width="0.373755"/>
<rect x="0.161841" y="0.0934388" width="86.6284" height="10.1482" transform="matrix(0.866025 -0.5 2.20305e-08 1 128.752 6.76183)" stroke="#2C3242" stroke-width="0.373755"/>
<rect x="0.161841" y="0.280316" width="95.0361" height="140.596" transform="matrix(0.866025 0.5 -2.20305e-08 1 46.4494 -49.3895)" fill="#DCE8E6" stroke="#2C3242" stroke-width="0.373755"/>
<mask id="mask0_664_4284" style="mask-type:alpha" maskUnits="userSpaceOnUse" x="54" y="-11" width="67" height="85">
<rect x="0.161841" y="0.280316" width="75.969" height="44.8832" transform="matrix(0.866025 0.5 -2.20305e-08 1 54.6184 -10.496)" fill="#DCE8E6" stroke="#2C3242" stroke-width="0.373755"/>
</mask>
<g mask="url(#mask0_664_4284)">
<rect x="0.161841" y="0.280316" width="75.969" height="44.8832" transform="matrix(0.866025 0.5 -2.20305e-08 1 54.6184 -10.496)" fill="#DCE8E6" stroke="#2C3242" stroke-width="0.373755"/>
<path d="M65.4004 -3.93884L65.4004 28.4174L54.7585 34.5615L54.7585 -10.083L65.4004 -3.93884Z" fill="#DCE8E6" stroke="#2C3242" stroke-width="0.373755"/>
<path d="M120.604 72.7712L54.7289 34.6352L65.3707 28.4911L120.604 60.4987L120.604 72.7712Z" fill="#F8FAFA" stroke="#2C3242" stroke-width="0.373755"/>
<rect width="10.2576" height="11.6418" rx="2.24253" transform="matrix(0.866025 0.5 0.0797455 0.996815 86.1553 22.4441)" fill="black"/>
<rect opacity="0.5" x="0.161841" y="0.280316" width="75.969" height="44.8832" transform="matrix(0.866025 0.5 -2.20305e-08 1 54.6184 -10.496)" fill="#538CC0" stroke="#2C3242" stroke-width="0.373755"/>
<path opacity="0.2" d="M42.6084 46.1834L102.095 12.6545" stroke="#DCE8E6" stroke-width="8.22262"/>
<path opacity="0.2" d="M50.083 54.406L109.57 20.8772" stroke="#DCE8E6" stroke-width="2.99004"/>
</g>
<mask id="mask1_664_4284" style="mask-type:alpha" maskUnits="userSpaceOnUse" x="54" y="32" width="67" height="84">
<rect x="0.161841" y="0.280316" width="75.969" height="44.8832" transform="matrix(0.866025 0.5 -2.20305e-08 1 54.6184 32.3847)" fill="#DCE8E6" stroke="#2C3242" stroke-width="0.373755"/>
</mask>
<g mask="url(#mask1_664_4284)">
<rect x="0.161841" y="0.280316" width="75.969" height="22.7268" transform="matrix(0.866025 0.5 -2.20305e-08 1 54.6184 54.5411)" fill="#DCE8E6" stroke="#2C3242" stroke-width="0.373755"/>
<path d="M65.4004 61.1206L65.4004 71.2982L54.7585 77.4423L54.7585 54.9765L65.4004 61.1206Z" fill="#DCE8E6" stroke="#2C3242" stroke-width="0.373755"/>
<path d="M120.604 115.652L54.7289 77.5158L65.3707 71.3717L120.604 103.379L120.604 115.652Z" fill="#F8FAFA" stroke="#2C3242" stroke-width="0.373755"/>
</g>
<rect x="0.161841" y="0.280316" width="94.834" height="10.1482" transform="matrix(0.866025 0.5 -2.20305e-08 1 46.4494 -41.2406)" stroke="#2C3242" stroke-width="0.373755"/>
<mask id="path-25-inside-2_664_4284" fill="white">
<path fill-rule="evenodd" clip-rule="evenodd" d="M77.0457 118.228L75.2023 117.163L75.2023 123.743L77.0457 124.807L77.0457 118.228ZM62.4658 109.81L64.3093 110.874L64.3093 117.454L62.4658 116.389L62.4658 109.81ZM65.6498 111.649L67.4933 112.713L67.4933 119.292L65.6498 118.228L65.6498 111.649ZM70.6773 114.551L68.8339 113.487L68.8339 120.066L70.6773 121.131L70.6773 114.551ZM72.0183 115.325L73.8617 116.39L73.8617 122.969L72.0183 121.905L72.0183 115.325Z"/>
</mask>
<path fill-rule="evenodd" clip-rule="evenodd" d="M77.0457 118.228L75.2023 117.163L75.2023 123.743L77.0457 124.807L77.0457 118.228ZM62.4658 109.81L64.3093 110.874L64.3093 117.454L62.4658 116.389L62.4658 109.81ZM65.6498 111.649L67.4933 112.713L67.4933 119.292L65.6498 118.228L65.6498 111.649ZM70.6773 114.551L68.8339 113.487L68.8339 120.066L70.6773 121.131L70.6773 114.551ZM72.0183 115.325L73.8617 116.39L73.8617 122.969L72.0183 121.905L72.0183 115.325Z" fill="#DEBF1A"/>
<path d="M75.2023 117.163L75.2023 116.952L75.0195 116.847L75.0195 117.058L75.2023 117.163ZM77.0457 118.228L77.2285 118.333L77.2285 118.122L77.0457 118.017L77.0457 118.228ZM75.2023 123.743L75.0195 123.637L75.0195 123.848L75.2023 123.954L75.2023 123.743ZM77.0457 124.807L77.0457 125.018L77.2285 125.124L77.2285 124.913L77.0457 124.807ZM64.3093 110.874L64.492 110.98L64.492 110.769L64.3093 110.663L64.3093 110.874ZM62.4658 109.81L62.4658 109.599L62.2831 109.494L62.2831 109.705L62.4658 109.81ZM64.3093 117.454L64.3093 117.665L64.492 117.77L64.492 117.559L64.3093 117.454ZM62.4658 116.389L62.2831 116.284L62.2831 116.495L62.4658 116.6L62.4658 116.389ZM67.4933 112.713L67.676 112.818L67.676 112.607L67.4933 112.502L67.4933 112.713ZM65.6498 111.649L65.6498 111.437L65.4671 111.332L65.4671 111.543L65.6498 111.649ZM67.4933 119.292L67.4933 119.503L67.676 119.609L67.676 119.398L67.4933 119.292ZM65.6498 118.228L65.4671 118.122L65.4671 118.333L65.6498 118.439L65.6498 118.228ZM68.8339 113.487L68.8339 113.276L68.6511 113.17L68.6511 113.381L68.8339 113.487ZM70.6773 114.551L70.8601 114.657L70.8601 114.446L70.6773 114.34L70.6773 114.551ZM68.8339 120.066L68.6511 119.961L68.6511 120.172L68.8339 120.277L68.8339 120.066ZM70.6773 121.131L70.6773 121.342L70.8601 121.447L70.8601 121.236L70.6773 121.131ZM73.8617 116.39L74.0445 116.495L74.0445 116.284L73.8617 116.179L73.8617 116.39ZM72.0183 115.325L72.0183 115.114L71.8355 115.009L71.8355 115.22L72.0183 115.325ZM73.8617 122.969L73.8617 123.18L74.0445 123.286L74.0445 123.075L73.8617 122.969ZM72.0183 121.905L71.8355 121.799L71.8355 122.01L72.0183 122.116L72.0183 121.905ZM75.2023 117.375L77.0457 118.439L77.0457 118.017L75.2023 116.952L75.2023 117.375ZM75.3851 123.848L75.3851 117.269L75.0195 117.058L75.0195 123.637L75.3851 123.848ZM77.0457 124.596L75.2023 123.532L75.2023 123.954L77.0457 125.018L77.0457 124.596ZM76.863 118.122L76.863 124.702L77.2285 124.913L77.2285 118.333L76.863 118.122ZM64.3093 110.663L62.4658 109.599L62.4658 110.021L64.3093 111.085L64.3093 110.663ZM64.492 117.559L64.492 110.98L64.1265 110.769L64.1265 117.348L64.492 117.559ZM62.4658 116.6L64.3093 117.665L64.3093 117.243L62.4658 116.178L62.4658 116.6ZM62.2831 109.705L62.2831 116.284L62.6486 116.495L62.6486 109.916L62.2831 109.705ZM67.4933 112.502L65.6498 111.437L65.6498 111.86L67.4933 112.924L67.4933 112.502ZM67.676 119.398L67.676 112.818L67.3105 112.607L67.3105 119.187L67.676 119.398ZM65.6498 118.439L67.4933 119.503L67.4933 119.081L65.6498 118.017L65.6498 118.439ZM65.4671 111.543L65.4671 118.122L65.8326 118.333L65.8326 111.754L65.4671 111.543ZM68.8339 113.698L70.6773 114.762L70.6773 114.34L68.8339 113.276L68.8339 113.698ZM69.0166 120.172L69.0166 113.592L68.6511 113.381L68.6511 119.961L69.0166 120.172ZM70.6773 120.92L68.8339 119.855L68.8339 120.277L70.6773 121.342L70.6773 120.92ZM70.4945 114.446L70.4945 121.025L70.8601 121.236L70.8601 114.657L70.4945 114.446ZM73.8617 116.179L72.0183 115.114L72.0183 115.536L73.8617 116.601L73.8617 116.179ZM74.0445 123.075L74.0445 116.495L73.679 116.284L73.679 122.864L74.0445 123.075ZM72.0183 122.116L73.8617 123.18L73.8617 122.758L72.0183 121.694L72.0183 122.116ZM71.8355 115.22L71.8355 121.799L72.201 122.01L72.201 115.431L71.8355 115.22Z" fill="#2C3242" mask="url(#path-25-inside-2_664_4284)"/>
<mask id="path-27-inside-3_664_4284" fill="white">
<path fill-rule="evenodd" clip-rule="evenodd" d="M142.504 140.147L144.347 139.083L144.347 145.662L142.504 146.727L142.504 140.147ZM136.135 143.824L137.979 142.76L137.979 149.339L136.135 150.403L136.135 143.824ZM132.951 145.663L134.795 144.598L134.795 151.178L132.951 152.242L132.951 145.663ZM141.163 140.922L139.319 141.986L139.319 148.565L141.163 147.501L141.163 140.922ZM147.531 137.245L145.688 138.309L145.688 144.888L147.531 143.824L147.531 137.245Z"/>
</mask>
<path fill-rule="evenodd" clip-rule="evenodd" d="M142.504 140.147L144.347 139.083L144.347 145.662L142.504 146.727L142.504 140.147ZM136.135 143.824L137.979 142.76L137.979 149.339L136.135 150.403L136.135 143.824ZM132.951 145.663L134.795 144.598L134.795 151.178L132.951 152.242L132.951 145.663ZM141.163 140.922L139.319 141.986L139.319 148.565L141.163 147.501L141.163 140.922ZM147.531 137.245L145.688 138.309L145.688 144.888L147.531 143.824L147.531 137.245Z" fill="#DEBF1A"/>
<path d="M144.347 139.083L144.53 138.977L144.53 138.766L144.347 138.872L144.347 139.083ZM142.504 140.147L142.504 139.936L142.321 140.042L142.321 140.253L142.504 140.147ZM144.347 145.662L144.347 145.873L144.53 145.768L144.53 145.557L144.347 145.662ZM142.504 146.727L142.321 146.832L142.321 147.043L142.504 146.938L142.504 146.727ZM137.979 142.76L138.161 142.654L138.161 142.443L137.979 142.549L137.979 142.76ZM136.135 143.824L136.135 143.613L135.952 143.719L135.952 143.93L136.135 143.824ZM137.979 149.339L137.979 149.55L138.161 149.445L138.161 149.234L137.979 149.339ZM136.135 150.403L135.952 150.509L135.952 150.72L136.135 150.614L136.135 150.403ZM134.795 144.598L134.977 144.493L134.977 144.282L134.795 144.387L134.795 144.598ZM132.951 145.663L132.951 145.452L132.768 145.557L132.768 145.768L132.951 145.663ZM134.795 151.178L134.795 151.389L134.977 151.283L134.977 151.072L134.795 151.178ZM132.951 152.242L132.768 152.348L132.768 152.559L132.951 152.453L132.951 152.242ZM139.319 141.986L139.319 141.775L139.136 141.88L139.136 142.091L139.319 141.986ZM141.163 140.922L141.345 140.816L141.345 140.605L141.163 140.711L141.163 140.922ZM139.319 148.565L139.136 148.671L139.136 148.882L139.319 148.776L139.319 148.565ZM141.163 147.501L141.163 147.712L141.345 147.607L141.345 147.395L141.163 147.501ZM145.688 138.309L145.688 138.098L145.505 138.204L145.505 138.415L145.688 138.309ZM147.531 137.245L147.714 137.139L147.714 136.928L147.531 137.034L147.531 137.245ZM145.688 144.888L145.505 144.994L145.505 145.205L145.688 145.1L145.688 144.888ZM147.531 143.824L147.531 144.035L147.714 143.93L147.714 143.719L147.531 143.824ZM144.347 138.872L142.504 139.936L142.504 140.358L144.347 139.294L144.347 138.872ZM144.53 145.557L144.53 138.977L144.164 139.188L144.164 145.768L144.53 145.557ZM142.504 146.938L144.347 145.873L144.347 145.451L142.504 146.516L142.504 146.938ZM142.321 140.253L142.321 146.832L142.686 146.621L142.686 140.042L142.321 140.253ZM137.979 142.549L136.135 143.613L136.135 144.035L137.979 142.971L137.979 142.549ZM138.161 149.234L138.161 142.654L137.796 142.865L137.796 149.445L138.161 149.234ZM136.135 150.614L137.979 149.55L137.979 149.128L136.135 150.192L136.135 150.614ZM135.952 143.93L135.952 150.509L136.318 150.298L136.318 143.719L135.952 143.93ZM134.795 144.387L132.951 145.452L132.951 145.874L134.795 144.81L134.795 144.387ZM134.977 151.072L134.977 144.493L134.612 144.704L134.612 151.283L134.977 151.072ZM132.951 152.453L134.795 151.389L134.795 150.967L132.951 152.031L132.951 152.453ZM132.768 145.768L132.768 152.348L133.134 152.137L133.134 145.557L132.768 145.768ZM139.319 142.197L141.163 141.133L141.163 140.711L139.319 141.775L139.319 142.197ZM139.502 148.46L139.502 141.88L139.136 142.091L139.136 148.671L139.502 148.46ZM141.163 147.29L139.319 148.354L139.319 148.776L141.163 147.712L141.163 147.29ZM140.98 141.027L140.98 147.607L141.345 147.395L141.345 140.816L140.98 141.027ZM145.688 138.52L147.531 137.456L147.531 137.034L145.688 138.098L145.688 138.52ZM145.87 144.783L145.87 138.204L145.505 138.415L145.505 144.994L145.87 144.783ZM147.531 143.613L145.688 144.677L145.688 145.1L147.531 144.035L147.531 143.613ZM147.348 137.35L147.348 143.93L147.714 143.719L147.714 137.139L147.348 137.35Z" fill="#2C3242" mask="url(#path-27-inside-3_664_4284)"/>
<mask id="path-29-inside-4_664_4284" fill="white">
<path fill-rule="evenodd" clip-rule="evenodd" d="M23.211 207.706C36.0298 215.107 56.8132 215.107 69.632 207.706C76.2185 203.903 79.4207 198.887 79.2388 193.903V183.443H73.3259C72.2431 182.551 71.0118 181.701 69.632 180.905C56.8132 173.504 36.0298 173.504 23.211 180.905C21.8312 181.701 20.5999 182.551 19.5172 183.443H13.5957V194.132H13.5983C13.5209 199.039 16.7251 203.961 23.211 207.706Z"/>
</mask>
<path fill-rule="evenodd" clip-rule="evenodd" d="M23.211 207.706C36.0298 215.107 56.8132 215.107 69.632 207.706C76.2185 203.903 79.4207 198.887 79.2388 193.903V183.443H73.3259C72.2431 182.551 71.0118 181.701 69.632 180.905C56.8132 173.504 36.0298 173.504 23.211 180.905C21.8312 181.701 20.5999 182.551 19.5172 183.443H13.5957V194.132H13.5983C13.5209 199.039 16.7251 203.961 23.211 207.706Z" fill="#E6F9F4"/>
<path d="M69.632 207.706L69.4451 207.382L69.632 207.706ZM23.211 207.706L23.0242 208.03L23.211 207.706ZM79.2388 193.903H78.8648L78.8653 193.917L79.2388 193.903ZM79.2388 183.443H79.6125V183.069H79.2388V183.443ZM73.3259 183.443L73.0883 183.731L73.1918 183.817H73.3259V183.443ZM69.632 180.905L69.8189 180.581L69.632 180.905ZM23.211 180.905L23.3979 181.228L23.211 180.905ZM19.5172 183.443V183.817H19.6513L19.7548 183.731L19.5172 183.443ZM13.5957 183.443V183.069H13.2219V183.443H13.5957ZM13.5957 194.132H13.2219V194.505H13.5957V194.132ZM13.5983 194.132L13.972 194.137L13.978 193.758H13.5983V194.132ZM69.4451 207.382C63.1059 211.042 54.7739 212.883 46.4215 212.883C38.0692 212.883 29.7371 211.042 23.3979 207.382L23.0242 208.03C29.5037 211.771 37.9728 213.63 46.4215 213.63C54.8703 213.63 63.3393 211.771 69.8189 208.03L69.4451 207.382ZM78.8653 193.917C79.0404 198.712 75.9617 203.62 69.4451 207.382L69.8189 208.03C76.4753 204.187 79.8011 199.061 79.6123 193.89L78.8653 193.917ZM78.865 183.443V193.903H79.6125V183.443H78.865ZM73.3259 183.817H79.2388V183.069H73.3259V183.817ZM69.4451 181.228C70.8087 182.016 72.0228 182.854 73.0883 183.731L73.5635 183.154C72.4634 182.248 71.2149 181.387 69.8189 180.581L69.4451 181.228ZM23.3979 181.228C29.7371 177.568 38.0692 175.728 46.4215 175.728C54.7739 175.728 63.1059 177.568 69.4451 181.228L69.8189 180.581C63.3393 176.84 54.8703 174.98 46.4215 174.98C37.9728 174.98 29.5037 176.84 23.0242 180.581L23.3979 181.228ZM19.7548 183.731C20.8202 182.854 22.0343 182.016 23.3979 181.228L23.0242 180.581C21.6281 181.387 20.3796 182.249 19.2796 183.154L19.7548 183.731ZM13.5957 183.817H19.5172V183.069H13.5957V183.817ZM13.9695 194.132V183.443H13.2219V194.132H13.9695ZM13.5983 193.758H13.5957V194.505H13.5983V193.758ZM23.3979 207.382C16.9808 203.677 13.8975 198.862 13.972 194.137L13.2246 194.126C13.1443 199.217 16.4694 204.245 23.0242 208.03L23.3979 207.382Z" fill="#299E9B" mask="url(#path-29-inside-4_664_4284)"/>
<mask id="mask2_664_4284" style="mask-type:alpha" maskUnits="userSpaceOnUse" x="13" y="175" width="67" height="39">
<path fill-rule="evenodd" clip-rule="evenodd" d="M23.211 207.706C36.0298 215.107 56.8132 215.107 69.632 207.706C76.2185 203.903 79.4207 198.887 79.2388 193.903V181.47H70.5717C70.2665 181.279 69.9533 181.09 69.632 180.905C56.8132 173.504 36.0298 173.504 23.211 180.905C22.8898 181.09 22.5766 181.279 22.2714 181.47H13.5957V194.132H13.5983C13.5209 199.039 16.7251 203.961 23.211 207.706Z" fill="#F8FAFA"/>
</mask>
<g mask="url(#mask2_664_4284)">
<line x1="79.1927" y1="183.542" x2="79.1927" y2="213.72" stroke="#299E9B" stroke-width="0.373755"/>
<line x1="73.2464" y1="178.9" x2="73.2465" y2="213.509" stroke="#299E9B" stroke-width="0.373755"/>
<line x1="76.7914" y1="178.9" x2="76.7914" y2="213.509" stroke="#299E9B" stroke-width="0.373755"/>
<line x1="16.1713" y1="178.9" x2="16.1713" y2="213.509" stroke="#299E9B" stroke-width="0.373755"/>
<line x1="67.3002" y1="178.9" x2="67.3002" y2="213.509" stroke="#299E9B" stroke-width="0.373755"/>
<line x1="61.3539" y1="178.9" x2="61.3539" y2="213.509" stroke="#299E9B" stroke-width="0.373755"/>
<line x1="55.4076" y1="178.9" x2="55.4076" y2="213.509" stroke="#299E9B" stroke-width="0.373755"/>
<line x1="49.4613" y1="178.9" x2="49.4613" y2="213.509" stroke="#299E9B" stroke-width="0.373755"/>
<line x1="43.514" y1="178.9" x2="43.514" y2="213.509" stroke="#299E9B" stroke-width="0.373755"/>
<line x1="37.5677" y1="178.9" x2="37.5677" y2="213.509" stroke="#299E9B" stroke-width="0.373755"/>
<line x1="31.6214" y1="178.9" x2="31.6215" y2="213.509" stroke="#299E9B" stroke-width="0.373755"/>
<line x1="25.6752" y1="178.9" x2="25.6752" y2="213.509" stroke="#299E9B" stroke-width="0.373755"/>
<line x1="19.7289" y1="178.9" x2="19.7289" y2="213.509" stroke="#299E9B" stroke-width="0.373755"/>
<line x1="13.7826" y1="183.542" x2="13.7826" y2="213.72" stroke="#299E9B" stroke-width="0.373755"/>
</g>
<circle cx="26.8012" cy="26.8012" r="26.6957" transform="matrix(0.866025 0.5 -0.866025 0.5 46.4209 156.53)" fill="#E6F9F4" stroke="#299E9B" stroke-width="0.211033"/>
<mask id="path-47-inside-5_664_4284" fill="white">
<path fill-rule="evenodd" clip-rule="evenodd" d="M29.1896 196.488C42.0084 203.889 62.7917 203.889 75.6105 196.488C82.197 192.686 85.3992 187.669 85.2173 182.686V172.226H79.3048C78.2219 171.334 76.9905 170.484 75.6105 169.687C62.7917 162.286 42.0084 162.286 29.1896 169.687C27.8096 170.484 26.5782 171.334 25.4953 172.226H19.5742V182.914H19.5768C19.4995 187.822 22.7038 192.744 29.1896 196.488Z"/>
</mask>
<path fill-rule="evenodd" clip-rule="evenodd" d="M29.1896 196.488C42.0084 203.889 62.7917 203.889 75.6105 196.488C82.197 192.686 85.3992 187.669 85.2173 182.686V172.226H79.3048C78.2219 171.334 76.9905 170.484 75.6105 169.687C62.7917 162.286 42.0084 162.286 29.1896 169.687C27.8096 170.484 26.5782 171.334 25.4953 172.226H19.5742V182.914H19.5768C19.4995 187.822 22.7038 192.744 29.1896 196.488Z" fill="#DAEFFF"/>
<path d="M75.6105 196.488L75.716 196.671L75.6105 196.488ZM29.1896 196.488L29.084 196.671L29.1896 196.488ZM85.2173 182.686H85.0061L85.0064 182.694L85.2173 182.686ZM85.2173 172.226H85.4283V172.015H85.2173V172.226ZM79.3048 172.226L79.1706 172.389L79.2291 172.437H79.3048V172.226ZM75.6105 169.687L75.505 169.87L75.6105 169.687ZM29.1896 169.687L29.084 169.504L29.1896 169.687ZM25.4953 172.226V172.437H25.571L25.6295 172.389L25.4953 172.226ZM19.5742 172.226V172.015H19.3632V172.226H19.5742ZM19.5742 182.914H19.3632V183.125H19.5742V182.914ZM19.5768 182.914L19.7878 182.918L19.7912 182.703H19.5768V182.914ZM75.505 196.306C69.1353 199.983 60.7734 201.828 52.4 201.828C44.0267 201.828 35.6648 199.983 29.2951 196.306L29.084 196.671C35.5331 200.394 43.9723 202.25 52.4 202.25C60.8278 202.25 69.267 200.394 75.716 196.671L75.505 196.306ZM85.0064 182.694C85.1845 187.571 82.052 192.526 75.505 196.306L75.716 196.671C82.342 192.846 85.614 187.767 85.4282 182.678L85.0064 182.694ZM85.0063 172.226V182.686H85.4283V172.226H85.0063ZM79.3048 172.437H85.2173V172.015H79.3048V172.437ZM75.505 169.87C76.8758 170.661 78.0975 171.505 79.1706 172.389L79.4389 172.063C78.3463 171.163 77.1052 170.306 75.7161 169.504L75.505 169.87ZM29.2951 169.87C35.6648 166.192 44.0267 164.348 52.4 164.348C60.7734 164.348 69.1353 166.192 75.505 169.87L75.7161 169.504C69.267 165.781 60.8278 163.925 52.4 163.925C43.9723 163.925 35.5331 165.781 29.084 169.504L29.2951 169.87ZM25.6295 172.389C26.7026 171.505 27.9243 170.661 29.2951 169.87L29.084 169.504C27.6949 170.306 26.4538 171.163 25.3611 172.063L25.6295 172.389ZM19.5742 172.437H25.4953V172.015H19.5742V172.437ZM19.7853 182.914V172.226H19.3632V182.914H19.7853ZM19.5768 182.703H19.5742V183.125H19.5768V182.703ZM29.2951 196.306C22.8482 192.583 19.7122 187.722 19.7878 182.918L19.3658 182.911C19.2869 187.922 22.5594 192.904 29.084 196.671L29.2951 196.306Z" fill="#55A5DF" mask="url(#path-47-inside-5_664_4284)"/>
<mask id="mask3_664_4284" style="mask-type:alpha" maskUnits="userSpaceOnUse" x="19" y="164" width="67" height="39">
<path fill-rule="evenodd" clip-rule="evenodd" d="M29.1896 196.488C42.0084 203.889 62.7917 203.889 75.6105 196.488C82.197 192.686 85.3992 187.669 85.2173 182.686V170.252H76.5507C76.2454 170.061 75.932 169.873 75.6105 169.687C62.7917 162.286 42.0084 162.286 29.1896 169.687C28.8681 169.873 28.5547 170.061 28.2494 170.252H19.5742V182.914H19.5768C19.4996 187.822 22.7038 192.744 29.1896 196.488Z" fill="#F8FAFA"/>
</mask>
<g mask="url(#mask3_664_4284)">
<line x1="85.1713" y1="172.325" x2="85.1713" y2="202.503" stroke="#55A5DF" stroke-width="0.373755"/>
<line x1="79.2259" y1="167.683" x2="79.2259" y2="202.292" stroke="#55A5DF" stroke-width="0.373755"/>
<line x1="82.7699" y1="167.683" x2="82.7699" y2="202.292" stroke="#55A5DF" stroke-width="0.373755"/>
<line x1="22.1498" y1="167.683" x2="22.1498" y2="202.292" stroke="#55A5DF" stroke-width="0.373755"/>
<line x1="73.2787" y1="167.683" x2="73.2787" y2="202.292" stroke="#55A5DF" stroke-width="0.373755"/>
<line x1="67.3324" y1="167.683" x2="67.3324" y2="202.292" stroke="#55A5DF" stroke-width="0.373755"/>
<line x1="61.3861" y1="167.683" x2="61.3861" y2="202.292" stroke="#55A5DF" stroke-width="0.373755"/>
<line x1="55.4398" y1="167.683" x2="55.4398" y2="202.292" stroke="#55A5DF" stroke-width="0.373755"/>
<line x1="49.4935" y1="167.683" x2="49.4935" y2="202.292" stroke="#55A5DF" stroke-width="0.373755"/>
<line x1="43.5472" y1="167.683" x2="43.5472" y2="202.292" stroke="#55A5DF" stroke-width="0.373755"/>
<line x1="37.6" y1="167.683" x2="37.6" y2="202.292" stroke="#55A5DF" stroke-width="0.373755"/>
<line x1="31.6537" y1="167.683" x2="31.6537" y2="202.292" stroke="#55A5DF" stroke-width="0.373755"/>
<line x1="25.7074" y1="167.683" x2="25.7074" y2="202.292" stroke="#55A5DF" stroke-width="0.373755"/>
<line x1="19.7611" y1="172.325" x2="19.7611" y2="202.503" stroke="#55A5DF" stroke-width="0.373755"/>
</g>
<circle cx="26.8012" cy="26.8012" r="26.6143" transform="matrix(0.866025 0.5 -0.866025 0.5 52.4004 145.313)" fill="#DAEFFF" stroke="#55A5DF" stroke-width="0.373755"/>
<g clip-path="url(#clip0_664_4284)">
<g clip-path="url(#clip1_664_4284)">
<path d="M35.1107 162.713L35.6598 163.294L58.2337 176.332L58.691 176.332L62.9758 166.703L35.1107 162.713Z" fill="#55A5DF"/>
<path d="M35.3145 162.595L42.2224 178.689L58.8949 176.215L47.9382 169.886L35.3145 162.595Z" fill="#55A5DF"/>
<path d="M60.8578 177.194L60.8861 177.359L68.9274 182.004L69.433 182.147L65.1519 167.563L60.8578 177.194Z" fill="#55A5DF"/>
<path d="M69.2993 182.224L60.724 177.272L44.0547 179.748L69.2993 182.224Z" fill="#55A5DF"/>
<path opacity="0.6" d="M58.9429 176.237L63.2275 166.608L47.9863 169.909L58.9429 176.237Z" fill="#55A5DF"/>
<path opacity="0.7" d="M42.2657 178.714L58.938 176.24L47.9813 169.912L42.2657 178.714Z" fill="#55A5DF"/>
</g>
</g>
<mask id="path-72-inside-6_664_4284" fill="white">
<path fill-rule="evenodd" clip-rule="evenodd" d="M48.6261 168.484C61.4449 175.885 82.2283 175.885 95.0471 168.484C101.633 164.681 104.836 159.665 104.654 154.681V144.221H98.7413C97.6584 143.33 96.427 142.48 95.0471 141.683C82.2283 134.282 61.4449 134.282 48.6261 141.683C47.2461 142.48 46.0147 143.33 44.9318 144.221H39.0107V154.91H39.0133C38.936 159.818 42.1403 164.739 48.6261 168.484Z"/>
</mask>
<path fill-rule="evenodd" clip-rule="evenodd" d="M48.6261 168.484C61.4449 175.885 82.2283 175.885 95.0471 168.484C101.633 164.681 104.836 159.665 104.654 154.681V144.221H98.7413C97.6584 143.33 96.427 142.48 95.0471 141.683C82.2283 134.282 61.4449 134.282 48.6261 141.683C47.2461 142.48 46.0147 143.33 44.9318 144.221H39.0107V154.91H39.0133C38.936 159.818 42.1403 164.739 48.6261 168.484Z" fill="#FFECD6"/>
<path d="M95.0471 168.484L95.2339 168.808L95.0471 168.484ZM48.6261 168.484L48.4392 168.808L48.6261 168.484ZM104.654 154.681H104.28L104.28 154.695L104.654 154.681ZM104.654 144.221H105.028V143.848H104.654V144.221ZM98.7413 144.221L98.5037 144.51L98.6072 144.595H98.7413V144.221ZM95.0471 141.683L94.8602 142.006L95.0471 141.683ZM48.6261 141.683L48.4392 141.359L48.6261 141.683ZM44.9318 144.221V144.595H45.0659L45.1694 144.51L44.9318 144.221ZM39.0107 144.221V143.848H38.637V144.221H39.0107ZM39.0107 154.91H38.637V155.284H39.0107V154.91ZM39.0133 154.91L39.387 154.916L39.393 154.536H39.0133V154.91ZM94.8602 168.16C88.521 171.82 80.1889 173.661 71.8366 173.661C63.4842 173.661 55.1522 171.82 48.813 168.16L48.4392 168.808C54.9188 172.549 63.3878 174.408 71.8366 174.408C80.2853 174.408 88.7543 172.549 95.2339 168.808L94.8602 168.16ZM104.28 154.695C104.455 159.49 101.377 164.398 94.8602 168.16L95.2339 168.808C101.89 164.965 105.216 159.839 105.027 154.668L104.28 154.695ZM104.28 144.221V154.681H105.028V144.221H104.28ZM98.7413 144.595H104.654V143.848H98.7413V144.595ZM94.8602 142.006C96.2239 142.794 97.4381 143.632 98.5037 144.51L98.9789 143.933C97.8788 143.027 96.6301 142.165 95.2339 141.359L94.8602 142.006ZM48.813 142.006C55.1522 138.347 63.4842 136.506 71.8366 136.506C80.1889 136.506 88.521 138.347 94.8602 142.006L95.2339 141.359C88.7543 137.618 80.2853 135.758 71.8366 135.758C63.3878 135.758 54.9188 137.618 48.4392 141.359L48.813 142.006ZM45.1694 144.51C46.235 143.632 47.4492 142.794 48.813 142.006L48.4392 141.359C47.043 142.165 45.7944 143.027 44.6942 143.933L45.1694 144.51ZM39.0107 144.595H44.9318V143.848H39.0107V144.595ZM39.3845 154.91V144.221H38.637V154.91H39.3845ZM39.0133 154.536H39.0107V155.284H39.0133V154.536ZM48.813 168.16C42.396 164.455 39.3126 159.64 39.387 154.916L38.6396 154.904C38.5594 159.995 41.8845 165.023 48.4392 168.808L48.813 168.16Z" fill="#F08201" mask="url(#path-72-inside-6_664_4284)"/>
<mask id="mask4_664_4284" style="mask-type:alpha" maskUnits="userSpaceOnUse" x="39" y="136" width="66" height="39">
<path fill-rule="evenodd" clip-rule="evenodd" d="M48.6261 168.484C61.4449 175.885 82.2283 175.885 95.0471 168.484C101.633 164.681 104.836 159.665 104.654 154.681V142.248H95.9869C95.6817 142.057 95.3684 141.868 95.0471 141.683C82.2283 134.282 61.4449 134.282 48.6261 141.683C48.3048 141.868 47.9915 142.057 47.6863 142.248H39.0107V154.91H39.0133C38.936 159.818 42.1402 164.739 48.6261 168.484Z" fill="#F8FAFA"/>
</mask>
<g mask="url(#mask4_664_4284)">
<line x1="104.608" y1="144.321" x2="104.608" y2="174.498" stroke="#F08201" stroke-width="0.373755"/>
<line x1="98.6615" y1="139.678" x2="98.6615" y2="174.287" stroke="#F08201" stroke-width="0.373755"/>
<line x1="102.206" y1="139.678" x2="102.206" y2="174.287" stroke="#F08201" stroke-width="0.373755"/>
<line x1="41.5863" y1="139.678" x2="41.5863" y2="174.287" stroke="#F08201" stroke-width="0.373755"/>
<line x1="92.7152" y1="139.678" x2="92.7152" y2="174.287" stroke="#F08201" stroke-width="0.373755"/>
<line x1="86.7689" y1="139.678" x2="86.7689" y2="174.287" stroke="#F08201" stroke-width="0.373755"/>
<line x1="80.8226" y1="139.678" x2="80.8226" y2="174.287" stroke="#F08201" stroke-width="0.373755"/>
<line x1="74.8754" y1="139.678" x2="74.8754" y2="174.287" stroke="#F08201" stroke-width="0.373755"/>
<line x1="68.93" y1="139.678" x2="68.93" y2="174.287" stroke="#F08201" stroke-width="0.373755"/>
<line x1="62.9828" y1="139.678" x2="62.9828" y2="174.287" stroke="#F08201" stroke-width="0.373755"/>
<line x1="57.0365" y1="139.678" x2="57.0365" y2="174.287" stroke="#F08201" stroke-width="0.373755"/>
<line x1="51.0902" y1="139.678" x2="51.0902" y2="174.287" stroke="#F08201" stroke-width="0.373755"/>
<line x1="45.1439" y1="139.678" x2="45.1439" y2="174.287" stroke="#F08201" stroke-width="0.373755"/>
<line x1="39.1976" y1="144.321" x2="39.1976" y2="174.498" stroke="#F08201" stroke-width="0.373755"/>
</g>
<circle cx="26.8012" cy="26.8012" r="26.6143" transform="matrix(0.866025 0.5 -0.866025 0.5 71.8359 117.309)" fill="#F8FAFA" stroke="#F08201" stroke-width="0.373755"/>
<path d="M128.73 182.828L128.73 211.721" stroke="#2C3242" stroke-width="0.373755"/>
<g clip-path="url(#clip2_664_4284)">
<rect width="52.5618" height="52.9823" rx="26.2809" transform="matrix(0.865944 -0.500141 0.865944 0.500141 26.1523 143.945)" fill="#FFECD6"/>
<g clip-path="url(#clip3_664_4284)">
<path d="M54.6041 134.578L55.1552 135.159L77.7368 148.201L78.1924 148.202L82.3954 138.617L54.6041 134.578Z" fill="#C0CCF7"/>
<path d="M54.8062 134.462L61.7996 150.513L78.3946 148.086L67.4342 141.755L54.8062 134.462Z" fill="#6C85E0"/>
<path d="M80.357 149.066L80.3863 149.231L88.4303 153.877L88.9351 154.021L84.5693 139.48L80.357 149.066Z" fill="#C0CCF7"/>
<path d="M88.8028 154.097L80.2246 149.142L63.6328 151.572L88.8028 154.097Z" fill="#6C85E0"/>
<path opacity="0.6" d="M78.4427 148.108L82.6456 138.523L67.4824 141.778L78.4427 148.108Z" fill="#8198EE"/>
<path opacity="0.7" d="M61.8425 150.538L78.4373 148.111L67.4769 141.78L61.8425 150.538Z" fill="#C0CCF7"/>
</g>
</g>
<rect x="0.161841" y="0.280316" width="13.089" height="65.9435" transform="matrix(0.866025 0.5 -2.20305e-08 1 143.866 34.8439)" fill="#DCE8E6" stroke="#2C3242" stroke-width="0.373755"/>
<rect x="0.323682" width="47.9798" height="13.1008" transform="matrix(0.866025 -0.5 0.866025 0.5 143.789 35.4123)" fill="#F8FAFA" stroke="#2C3242" stroke-width="0.373755"/>
<rect x="0.161841" y="0.0934388" width="47.9798" height="65.8347" transform="matrix(0.866025 -0.5 2.20305e-08 1 155.291 41.8299)" fill="#DCE8E6" stroke="#2C3242" stroke-width="0.373755"/>
<rect x="-0.0913799" y="-0.0527582" width="28.9867" height="32.8638" transform="matrix(0.866025 -0.5 2.20305e-08 1 163.736 51.8733)" fill="#DCE8E6" stroke="#2C3242" stroke-width="0.211033"/>
<mask id="mask5_664_4284" style="mask-type:alpha" maskUnits="userSpaceOnUse" x="163" y="37" width="26" height="48">
<rect x="0.0913799" y="0.0527582" width="28.5646" height="32.4418" transform="matrix(0.866025 -0.5 2.20305e-08 1 163.76 51.9646)" fill="#DCE8E6" stroke="#2C3242" stroke-width="0.211033"/>
</mask>
<g mask="url(#mask5_664_4284)">
<rect x="-6.28927e-09" y="0.105516" width="6.11995" height="28.8174" transform="matrix(0.866025 0.5 -0.866025 0.5 183.687 67.2835)" fill="#F8FAFA" stroke="#2C3242" stroke-width="0.211033"/>
<rect x="0.0913799" y="0.158275" width="6.11995" height="33.038" transform="matrix(0.866025 0.5 -2.20305e-08 1 183.608 34.2639)" fill="#2C3242" stroke="#2C3242" stroke-width="0.211033"/>
<rect opacity="0.3" x="-0.0913799" y="-0.0527582" width="28.9867" height="32.8638" transform="matrix(0.866025 -0.5 2.20305e-08 1 163.736 51.8733)" fill="#2C3242" stroke="#DCE8E6" stroke-width="0.211033"/>
<rect x="-0.0771439" y="-0.0445391" width="6.94056" height="8.05584" transform="matrix(0.866025 -0.5 2.20305e-08 1 180.888 62.6316)" fill="#DEBF1A" stroke="#DCE8E6" stroke-width="0.178156"/>
<g clip-path="url(#clip4_664_4284)">
<g clip-path="url(#clip5_664_4284)">
<path d="M183.658 62.3584L183.629 62.4879L183.629 65.7654L183.658 65.782L184.975 64.122L183.658 62.3584Z" fill="white"/>
<path d="M183.683 62.3436L182.366 65.6286L183.683 65.7672L183.683 64.1764L183.683 62.3436Z" fill="white"/>
<path d="M183.701 66.023L183.685 66.0552L183.685 67.2227L183.701 67.268L185.019 64.363L183.701 66.023Z" fill="white"/>
<path d="M183.683 67.278L183.683 66.0329L182.366 65.8948L183.683 67.278Z" fill="white"/>
<path opacity="0.6" d="M183.685 65.7731L185.002 64.1132L183.685 64.1824L183.685 65.7731Z" fill="white"/>
<path opacity="0.7" d="M182.366 65.6349L183.683 65.7735L183.683 64.1827L182.366 65.6349Z" fill="white"/>
</g>
</g>
<rect x="-0.154288" width="7.12046" height="7.04495" transform="matrix(0.866025 -0.5 0.866025 0.5 174.687 59.1013)" fill="#2C3242" stroke="#DCE8E6" stroke-width="0.178156"/>
<rect x="-0.0771439" y="-0.133617" width="7.12046" height="8.05584" transform="matrix(0.866025 0.5 -2.20305e-08 1 174.698 59.217)" fill="#2C3242" stroke="#DCE8E6" stroke-width="0.178156"/>
<rect x="-0.0771439" y="-0.0445391" width="6.94056" height="8.05584" transform="matrix(0.866025 -0.5 2.20305e-08 1 180.888 50.6714)" fill="#DEBF1A" stroke="#DCE8E6" stroke-width="0.178156"/>
<rect x="-0.154288" width="7.12046" height="7.04495" transform="matrix(0.866025 -0.5 0.866025 0.5 174.687 47.1411)" fill="#2C3242" stroke="#DCE8E6" stroke-width="0.178156"/>
<rect x="-0.0771439" y="-0.133617" width="7.12046" height="8.05584" transform="matrix(0.866025 0.5 -2.20305e-08 1 174.698 47.2568)" fill="#2C3242" stroke="#DCE8E6" stroke-width="0.178156"/>
<rect x="-0.0771439" y="-0.0445391" width="6.94056" height="8.05584" transform="matrix(0.866025 -0.5 2.20305e-08 1 171.172 67.864)" fill="#DEBF1A" stroke="#DCE8E6" stroke-width="0.178156"/>
<rect x="-0.154288" width="7.12046" height="7.04495" transform="matrix(0.866025 -0.5 0.866025 0.5 164.971 64.3337)" fill="#2C3242" stroke="#DCE8E6" stroke-width="0.178156"/>
<rect x="-0.0771439" y="-0.133617" width="7.12046" height="8.05584" transform="matrix(0.866025 0.5 -2.20305e-08 1 164.981 64.4495)" fill="#2C3242" stroke="#DCE8E6" stroke-width="0.178156"/>
<rect x="-0.154288" width="7.12046" height="2.55989" transform="matrix(0.866025 -0.5 0.866025 0.5 164.971 52.3738)" fill="#2C3242" stroke="#DCE8E6" stroke-width="0.178156"/>
<rect x="-0.0771439" y="-0.133617" width="2.63539" height="8.05584" transform="matrix(0.866025 0.5 -2.20305e-08 1 164.981 52.4895)" fill="#2C3242" stroke="#DCE8E6" stroke-width="0.178156"/>
<rect x="-0.0771439" y="-0.0445391" width="6.94056" height="8.05584" transform="matrix(0.866025 -0.5 2.20305e-08 1 167.279 53.709)" fill="#FFECD6" stroke="#FFECD6" stroke-width="0.178156"/>
<path d="M171.576 54.6965C171.708 54.1202 171.407 53.961 170.97 53.9503L171.209 53.1454L170.858 53.1801L170.625 53.9638C170.532 53.9729 170.437 53.9848 170.343 53.9966L170.577 53.2077L170.226 53.2423L169.987 54.0471C169.91 54.0567 169.835 54.0661 169.762 54.0733L169.763 54.0708L169.278 54.1184L169.123 54.6417C169.123 54.6417 169.384 54.6092 169.378 54.6163C169.52 54.6023 169.532 54.7129 169.516 54.8111L169.243 55.7281C169.253 55.7272 169.266 55.7265 169.28 55.7278L169.242 55.7315L168.86 57.0162C168.836 57.0793 168.78 57.1815 168.68 57.1915C168.683 57.1967 168.425 57.2166 168.425 57.2166L168.181 57.8088L168.638 57.7637C168.723 57.7554 168.806 57.7492 168.888 57.7418L168.646 58.5561L168.997 58.5216L169.237 57.716C169.332 57.7093 169.425 57.7012 169.516 57.6921L169.278 58.4939L169.629 58.4592L169.871 57.6465C170.476 57.541 170.951 57.2927 171.232 56.5143C171.459 55.8873 171.331 55.6301 171.029 55.5507C171.276 55.3857 171.479 55.1183 171.576 54.6966L171.576 54.6965ZM170.567 56.4858C170.386 57.0943 169.659 57.0988 169.421 57.1225L169.742 56.0438C169.98 56.0204 170.755 55.8513 170.567 56.4858L170.567 56.4858ZM170.855 54.9801C170.691 55.5336 170.087 55.5305 169.889 55.5501L170.179 54.5718C170.378 54.5522 171.027 54.4027 170.855 54.9801V54.9801Z" fill="#F08201"/>
</g>
<mask id="mask6_664_4284" style="mask-type:alpha" maskUnits="userSpaceOnUse" x="40" y="55" width="81" height="68">
<path d="M54.5968 55.0021L120.712 93.1735L120.712 115.894L63.4249 122.121L40.9834 94.7932L54.5968 77.7231L54.5968 55.0021Z" fill="#DCE8E6"/>
</mask>
<g mask="url(#mask6_664_4284)">
<mask id="path-127-inside-7_664_4284" fill="white">
<path fill-rule="evenodd" clip-rule="evenodd" d="M62.9091 107.318C75.7279 114.719 96.5113 114.719 109.33 107.318C115.917 103.516 119.119 98.499 118.937 93.5158V83.0557H113.024C111.941 82.1639 110.71 81.3139 109.33 80.5171C96.5113 73.1162 75.7279 73.1162 62.9091 80.5171C61.5291 81.3139 60.2977 82.1639 59.2148 83.0557H53.2937V93.7443H53.2963C53.219 98.652 56.4233 103.574 62.9091 107.318Z"/>
</mask>
<path fill-rule="evenodd" clip-rule="evenodd" d="M62.9091 107.318C75.7279 114.719 96.5113 114.719 109.33 107.318C115.917 103.516 119.119 98.499 118.937 93.5158V83.0557H113.024C111.941 82.1639 110.71 81.3139 109.33 80.5171C96.5113 73.1162 75.7279 73.1162 62.9091 80.5171C61.5291 81.3139 60.2977 82.1639 59.2148 83.0557H53.2937V93.7443H53.2963C53.219 98.652 56.4233 103.574 62.9091 107.318Z" fill="#FFECD6"/>
<path d="M109.33 107.318L109.143 106.994L109.33 107.318ZM62.9093 107.318L62.7224 107.642L62.9093 107.318ZM118.937 93.5157H118.563L118.564 93.5294L118.937 93.5157ZM118.937 83.0556H119.311V82.6818H118.937V83.0556ZM113.025 83.0556L112.787 83.3441L112.89 83.4293H113.025V83.0556ZM109.33 80.517L109.143 80.8407L109.33 80.517ZM62.9093 80.517L62.7224 80.1933L62.9093 80.517ZM59.215 83.0556V83.4293H59.3491L59.4526 83.3441L59.215 83.0556ZM53.2939 83.0556V82.6818H52.9202V83.0556H53.2939ZM53.2939 93.7442H52.9202V94.1179H53.2939V93.7442ZM53.2965 93.7442L53.6703 93.7501L53.6762 93.3704H53.2965V93.7442ZM109.143 106.994C102.804 110.654 94.4721 112.495 86.1198 112.495C77.7674 112.495 69.4354 110.654 63.0962 106.994L62.7224 107.642C69.202 111.383 77.671 113.243 86.1198 113.243C94.5685 113.243 103.038 111.383 109.517 107.642L109.143 106.994ZM118.564 93.5294C118.739 98.3247 115.66 103.232 109.143 106.994L109.517 107.642C116.173 103.799 119.499 98.673 119.311 93.5021L118.564 93.5294ZM118.563 83.0556V93.5157H119.311V83.0556H118.563ZM113.025 83.4293H118.937V82.6818H113.025V83.4293ZM109.143 80.8407C110.507 81.6281 111.721 82.4665 112.787 83.3441L113.262 82.7671C112.162 81.861 110.913 80.9994 109.517 80.1933L109.143 80.8407ZM63.0962 80.8407C69.4354 77.1807 77.7674 75.3401 86.1198 75.3401C94.4721 75.3401 102.804 77.1807 109.143 80.8407L109.517 80.1933C103.038 76.4523 94.5685 74.5926 86.1198 74.5926C77.671 74.5926 69.202 76.4523 62.7224 80.1933L63.0962 80.8407ZM59.4526 83.3441C60.5182 82.4665 61.7324 81.6281 63.0962 80.8407L62.7224 80.1933C61.3262 80.9994 60.0776 81.861 58.9774 82.7671L59.4526 83.3441ZM53.2939 83.4293H59.215V82.6818H53.2939V83.4293ZM53.6677 93.7442V83.0556H52.9202V93.7442H53.6677ZM53.2965 93.3704H53.2939V94.1179H53.2965V93.3704ZM63.0962 106.994C56.6792 103.29 53.5958 98.474 53.6703 93.7501L52.9228 93.7383C52.8426 98.8297 56.1677 103.858 62.7224 107.642L63.0962 106.994Z" fill="#F08201" mask="url(#path-127-inside-7_664_4284)"/>
<mask id="mask7_664_4284" style="mask-type:alpha" maskUnits="userSpaceOnUse" x="53" y="74" width="66" height="39">
<path fill-rule="evenodd" clip-rule="evenodd" d="M62.9091 107.318C75.7279 114.719 96.5113 114.719 109.33 107.318C115.917 103.516 119.119 98.499 118.937 93.5158V81.0821H110.27C109.965 80.891 109.651 80.7026 109.33 80.5171C96.5113 73.1162 75.7279 73.1162 62.9091 80.5171C62.5878 80.7026 62.2746 80.891 61.9694 81.0821H53.2937V93.7441H53.2963C53.2189 98.6518 56.4232 103.574 62.9091 107.318Z" fill="#F8FAFA"/>
</mask>
<g mask="url(#mask7_664_4284)">
<line x1="118.891" y1="83.155" x2="118.891" y2="113.333" stroke="#F08201" stroke-width="0.373755"/>
<line x1="112.945" y1="78.5122" x2="112.945" y2="113.122" stroke="#F08201" stroke-width="0.373755"/>
<line x1="116.49" y1="78.5122" x2="116.49" y2="113.122" stroke="#F08201" stroke-width="0.373755"/>
<line x1="55.8695" y1="78.5122" x2="55.8695" y2="113.122" stroke="#F08201" stroke-width="0.373755"/>
<line x1="106.998" y1="78.5122" x2="106.998" y2="113.122" stroke="#F08201" stroke-width="0.373755"/>
<line x1="101.052" y1="78.5122" x2="101.052" y2="113.122" stroke="#F08201" stroke-width="0.373755"/>
<line x1="95.1058" y1="78.5122" x2="95.1058" y2="113.122" stroke="#F08201" stroke-width="0.373755"/>
<line x1="89.1595" y1="78.5122" x2="89.1595" y2="113.122" stroke="#F08201" stroke-width="0.373755"/>
<line x1="83.2123" y1="78.5122" x2="83.2123" y2="113.122" stroke="#F08201" stroke-width="0.373755"/>
<line x1="77.267" y1="78.5122" x2="77.267" y2="113.122" stroke="#F08201" stroke-width="0.373755"/>
<line x1="71.3197" y1="78.5122" x2="71.3197" y2="113.122" stroke="#F08201" stroke-width="0.373755"/>
<line x1="65.3734" y1="78.5122" x2="65.3734" y2="113.122" stroke="#F08201" stroke-width="0.373755"/>
<line x1="59.4271" y1="78.5122" x2="59.4271" y2="113.122" stroke="#F08201" stroke-width="0.373755"/>
<line x1="53.4808" y1="83.155" x2="53.4808" y2="113.333" stroke="#F08201" stroke-width="0.373755"/>
</g>
<circle cx="26.8012" cy="26.8012" r="26.6143" transform="matrix(0.866025 0.5 -0.866025 0.5 86.1201 56.1428)" fill="#F8FAFA" stroke="#F08201" stroke-width="0.373755"/>
<g clip-path="url(#clip6_664_4284)">
<rect width="52.5618" height="52.9823" rx="26.2809" transform="matrix(0.865944 -0.500141 0.865944 0.500141 40.4307 82.7769)" fill="#FFECD6"/>
<g clip-path="url(#clip7_664_4284)">
<path d="M68.8824 73.4101L69.4335 73.9907L92.0151 87.0331L92.4708 87.0339L96.6737 77.4493L68.8824 73.4101Z" fill="#C0CCF7"/>
<path d="M69.0845 73.2937L76.0779 89.3451L92.6729 86.9176L81.7125 80.5872L69.0845 73.2937Z" fill="#6C85E0"/>
<path d="M94.6353 87.8981L94.6646 88.0629L102.709 92.7089L103.213 92.8526L98.8476 78.3116L94.6353 87.8981Z" fill="#C0CCF7"/>
<path d="M103.081 92.929L94.5029 87.9745L77.9111 90.4038L103.081 92.929Z" fill="#6C85E0"/>
<path opacity="0.6" d="M92.721 86.9399L96.9239 77.3554L81.7607 80.6096L92.721 86.9399Z" fill="#8198EE"/>
<path opacity="0.7" d="M76.1208 89.3702L92.7156 86.9428L81.7552 80.6124L76.1208 89.3702Z" fill="#C0CCF7"/>
</g>
</g>
</g>
<defs>
<clipPath id="clip0_664_4284">
<rect width="52.9643" height="52.9643" rx="26.4822" transform="matrix(0.865944 -0.500141 0.865944 0.500141 6.49023 172.179)" fill="white"/>
</clipPath>
<clipPath id="clip1_664_4284">
<rect width="24.2123" height="39.4337" fill="white" transform="matrix(0.865944 -0.500141 0.865944 0.500141 24.8359 168.647)"/>
</clipPath>
<clipPath id="clip2_664_4284">
<rect width="52.5618" height="52.9823" rx="26.2809" transform="matrix(0.865944 -0.500141 0.865944 0.500141 26.1523 143.945)" fill="white"/>
</clipPath>
<clipPath id="clip3_664_4284">
<rect width="24.0283" height="39.4471" fill="white" transform="matrix(0.865944 -0.500141 0.865944 0.500141 44.4072 140.468)"/>
</clipPath>
<clipPath id="clip4_664_4284">
<rect width="6.6571" height="6.65898" rx="3.32855" transform="matrix(0.865944 -0.500141 2.20222e-08 1 180.829 63.1042)" fill="white"/>
</clipPath>
<clipPath id="clip5_664_4284">
<rect width="3.04325" height="4.95783" fill="white" transform="matrix(0.865944 -0.500141 2.20222e-08 1 182.366 63.1042)"/>
</clipPath>
<clipPath id="clip6_664_4284">
<rect width="52.5618" height="52.9823" rx="26.2809" transform="matrix(0.865944 -0.500141 0.865944 0.500141 40.4307 82.7769)" fill="white"/>
</clipPath>
<clipPath id="clip7_664_4284">
<rect width="24.0283" height="39.4471" fill="white" transform="matrix(0.865944 -0.500141 0.865944 0.500141 58.6855 79.2998)"/>
</clipPath>
</defs>
</svg>
