<svg width="204" height="185" viewBox="0 0 204 185" fill="none" xmlns="http://www.w3.org/2000/svg">
<mask id="path-1-inside-1_665_4811" fill="white">
<path fill-rule="evenodd" clip-rule="evenodd" d="M226.912 155.74H30.748V182.108H30.7502C30.769 196.586 40.345 211.061 59.4781 222.107C97.7819 244.222 159.885 244.222 198.189 222.107C217.34 211.05 226.916 196.557 226.916 182.065H226.912V155.74Z"/>
</mask>
<path fill-rule="evenodd" clip-rule="evenodd" d="M226.912 155.74H30.748V182.108H30.7502C30.769 196.586 40.345 211.061 59.4781 222.107C97.7819 244.222 159.885 244.222 198.189 222.107C217.34 211.05 226.916 196.557 226.916 182.065H226.912V155.74Z" fill="#DCE8E6"/>
<path d="M30.748 155.74V155.36H30.3682V155.74H30.748ZM226.912 155.74H227.292V155.36H226.912V155.74ZM30.748 182.108H30.3682V182.488H30.748V182.108ZM30.7502 182.108L31.1301 182.107L31.1296 181.728H30.7502V182.108ZM59.4781 222.107L59.2881 222.436L59.4781 222.107ZM198.189 222.107L198.379 222.436L198.189 222.107ZM226.916 182.065H227.296V181.685H226.916V182.065ZM226.912 182.065H226.532V182.445H226.912V182.065ZM30.748 156.12H226.912V155.36H30.748V156.12ZM31.1279 182.108V155.74H30.3682V182.108H31.1279ZM30.7502 181.728H30.748V182.488H30.7502V181.728ZM30.3703 182.108C30.3894 196.77 40.0859 211.35 59.2881 222.436L59.668 221.778C40.604 210.772 31.1486 196.402 31.1301 182.107L30.3703 182.108ZM59.2881 222.436C78.5114 233.535 103.683 239.073 128.833 239.073C153.984 239.073 179.155 233.535 198.379 222.436L197.999 221.778C178.918 232.794 153.886 238.313 128.833 238.313C103.781 238.313 78.7486 232.794 59.668 221.778L59.2881 222.436ZM198.379 222.436C217.6 211.339 227.296 196.741 227.296 182.065H226.537C226.537 196.374 217.081 210.761 197.999 221.778L198.379 222.436ZM226.916 181.685H226.912V182.445H226.916V181.685ZM226.532 155.74V182.065H227.292V155.74H226.532Z" fill="#2C3242" mask="url(#path-1-inside-1_665_4811)"/>
<mask id="mask0_665_4811" style="mask-type:alpha" maskUnits="userSpaceOnUse" x="53" y="178" width="164" height="70">
<path d="M216.792 211.464V178.93C160.953 211.94 123.724 216.813 65.0203 196.936L53.0605 228.373C68.6652 236.347 110.604 251.063 153.523 246.142C196.441 241.222 211.438 221.715 216.792 211.464Z" fill="black"/>
</mask>
<g mask="url(#mask0_665_4811)">
<mask id="path-4-inside-2_665_4811" fill="white">
<path fill-rule="evenodd" clip-rule="evenodd" d="M226.697 167.865C225.169 181.066 215.666 194.018 198.188 204.109C159.885 226.223 97.7817 226.223 59.4779 204.109C42.0003 194.018 32.4976 181.066 30.9696 167.865C29.1488 183.596 38.6516 199.682 59.4779 211.706C97.7817 233.821 159.885 233.821 198.188 211.706C219.015 199.682 228.517 183.596 226.697 167.865Z"/>
</mask>
<path fill-rule="evenodd" clip-rule="evenodd" d="M226.697 167.865C225.169 181.066 215.666 194.018 198.188 204.109C159.885 226.223 97.7817 226.223 59.4779 204.109C42.0003 194.018 32.4976 181.066 30.9696 167.865C29.1488 183.596 38.6516 199.682 59.4779 211.706C97.7817 233.821 159.885 233.821 198.188 211.706C219.015 199.682 228.517 183.596 226.697 167.865Z" fill="#DEBF1A"/>
<path d="M226.697 167.865L227.074 167.821L226.319 167.821L226.697 167.865ZM198.188 204.109L198.378 204.438L198.188 204.109ZM59.4779 204.109L59.6678 203.78L59.4779 204.109ZM30.9696 167.865L31.3469 167.821H30.5922L30.9696 167.865ZM59.4779 211.706L59.2879 212.035L59.4779 211.706ZM198.188 211.706L198.378 212.035L198.188 211.706ZM226.319 167.821C224.81 180.864 215.412 193.726 197.998 203.78L198.378 204.438C215.92 194.31 225.528 181.269 227.074 167.909L226.319 167.821ZM197.998 203.78C178.918 214.796 153.886 220.315 128.833 220.315C103.78 220.315 78.7484 214.796 59.6678 203.78L59.2879 204.438C78.5112 215.536 103.682 221.074 128.833 221.074C153.984 221.074 179.155 215.536 198.378 204.438L197.998 203.78ZM59.6678 203.78C42.2539 193.726 32.8565 180.864 31.3469 167.821L30.5922 167.909C32.1386 181.269 41.7468 194.31 59.2879 204.438L59.6678 203.78ZM59.6678 211.377C38.9168 199.396 29.55 183.434 31.3469 167.909L30.5922 167.821C28.7477 183.758 38.3864 199.967 59.2879 212.035L59.6678 211.377ZM197.998 211.377C178.918 222.393 153.886 227.912 128.833 227.912C103.78 227.912 78.7484 222.393 59.6678 211.377L59.2879 212.035C78.5112 223.134 103.682 228.672 128.833 228.672C153.984 228.672 179.155 223.134 198.378 212.035L197.998 211.377ZM226.319 167.909C228.116 183.434 218.749 199.396 197.998 211.377L198.378 212.035C219.28 199.967 228.919 183.758 227.074 167.821L226.319 167.909Z" fill="#2C3242" mask="url(#path-4-inside-2_665_4811)"/>
<mask id="path-6-inside-3_665_4811" fill="white">
<path fill-rule="evenodd" clip-rule="evenodd" d="M226.881 172.424C226.235 186.405 216.671 200.275 198.188 210.946C159.885 233.061 97.7817 233.061 59.4779 210.946C40.9954 200.275 31.4311 186.405 30.7851 172.424C30.0923 187.418 39.6565 202.542 59.4779 213.985C97.7817 236.1 159.885 236.1 198.188 213.985C218.01 202.542 227.574 187.418 226.881 172.424Z"/>
</mask>
<path fill-rule="evenodd" clip-rule="evenodd" d="M226.881 172.424C226.235 186.405 216.671 200.275 198.188 210.946C159.885 233.061 97.7817 233.061 59.4779 210.946C40.9954 200.275 31.4311 186.405 30.7851 172.424C30.0923 187.418 39.6565 202.542 59.4779 213.985C97.7817 236.1 159.885 236.1 198.188 213.985C218.01 202.542 227.574 187.418 226.881 172.424Z" fill="#F8FAFA"/>
<path d="M226.881 172.424L227.261 172.406L226.502 172.406L226.881 172.424ZM198.188 210.946L198.378 211.275L198.188 210.946ZM59.4779 210.946L59.6678 210.617L59.4779 210.946ZM30.7851 172.424L31.1646 172.406H30.4056L30.7851 172.424ZM59.4779 213.985L59.6678 213.656L59.4779 213.985ZM198.188 213.985L197.998 213.656L198.188 213.985ZM226.502 172.406C225.864 186.214 216.414 199.985 197.998 210.617L198.378 211.275C216.928 200.566 226.607 186.597 227.261 172.441L226.502 172.406ZM197.998 210.617C178.918 221.634 153.886 227.152 128.833 227.152C103.78 227.152 78.7484 221.634 59.6678 210.617L59.2879 211.275C78.5112 222.374 103.682 227.912 128.833 227.912C153.984 227.912 179.155 222.374 198.378 211.275L197.998 210.617ZM59.6678 210.617C41.2523 199.985 31.8026 186.214 31.1646 172.406L30.4056 172.441C31.0597 186.597 40.7385 200.566 59.2879 211.275L59.6678 210.617ZM59.6678 213.656C39.918 202.254 30.4807 187.243 31.1646 172.441L30.4056 172.406C29.7039 187.593 39.3951 202.829 59.2879 214.314L59.6678 213.656ZM197.998 213.656C178.918 224.673 153.886 230.192 128.833 230.192C103.78 230.192 78.7484 224.673 59.6678 213.656L59.2879 214.314C78.5112 225.413 103.682 230.951 128.833 230.951C153.984 230.951 179.155 225.413 198.378 214.314L197.998 213.656ZM226.502 172.441C227.186 187.243 217.748 202.254 197.998 213.656L198.378 214.314C218.271 202.829 227.962 187.593 227.261 172.406L226.502 172.441Z" fill="#2C3242" mask="url(#path-6-inside-3_665_4811)"/>
</g>
<circle cx="80.0845" cy="80.0845" r="79.8946" transform="matrix(0.866025 -0.5 0.866025 0.5 -9.87695 155.708)" fill="#F8FAFA" stroke="#2C3242" stroke-width="0.379878"/>
<circle cx="72.5337" cy="72.5337" r="72.3438" transform="matrix(0.866025 -0.5 0.866025 0.5 3.20117 154.189)" fill="#2C3242" stroke="#2C3242" stroke-width="0.379878"/>
<circle cx="68.0122" cy="68.0122" r="67.8223" transform="matrix(0.866025 -0.5 0.866025 0.5 11.0332 157.542)" fill="#F8FAFA" stroke="#2C3242" stroke-width="0.379878"/>
<circle cx="41.4266" cy="41.4266" r="41.2367" transform="matrix(0.866025 -0.5 0.866025 0.5 57.0811 154.769)" fill="#2C3242" stroke="#2C3242" stroke-width="0.379878"/>
<mask id="path-12-inside-4_665_4811" fill="white">
<path fill-rule="evenodd" clip-rule="evenodd" d="M178.417 114.64H79.2471V154.242H79.2481C79.2579 161.561 84.099 168.879 93.7714 174.463C113.136 185.643 144.532 185.643 163.896 174.463C173.578 168.873 178.419 161.547 178.42 154.22H178.417V114.64Z"/>
</mask>
<path fill-rule="evenodd" clip-rule="evenodd" d="M178.417 114.64H79.2471V154.242H79.2481C79.2579 161.561 84.099 168.879 93.7714 174.463C113.136 185.643 144.532 185.643 163.896 174.463C173.578 168.873 178.419 161.547 178.42 154.22H178.417V114.64Z" fill="#DCE8E6"/>
<path d="M79.2471 114.64V114.261H78.8672V114.64H79.2471ZM178.417 114.64H178.797V114.261H178.417V114.64ZM79.2471 154.242H78.8672V154.622H79.2471V154.242ZM79.2481 154.242L79.628 154.241L79.6274 153.862H79.2481V154.242ZM93.7714 174.463L93.5815 174.792H93.5815L93.7714 174.463ZM163.896 174.463L163.706 174.134L163.896 174.463ZM178.42 154.22L178.799 154.22L178.799 153.84H178.42V154.22ZM178.417 154.22H178.037V154.6H178.417V154.22ZM79.2471 115.02H178.417V114.261H79.2471V115.02ZM79.6269 154.242V114.64H78.8672V154.242H79.6269ZM79.2481 153.862H79.2471V154.622H79.2481V153.862ZM78.8682 154.242C78.8783 161.745 83.8399 169.168 93.5815 174.792L93.9613 174.134C84.3581 168.59 79.6375 161.377 79.628 154.241L78.8682 154.242ZM93.5815 174.792C103.335 180.423 116.095 183.228 128.834 183.228C141.573 183.228 154.333 180.423 164.086 174.792L163.706 174.134C154.095 179.683 141.475 182.468 128.834 182.468C116.193 182.468 103.572 179.683 93.9613 174.134L93.5815 174.792ZM164.086 174.792C173.837 169.162 178.799 161.73 178.799 154.22L178.04 154.22C178.04 161.363 173.319 168.584 163.706 174.134L164.086 174.792ZM178.42 153.84H178.417V154.6H178.42V153.84ZM178.037 114.64V154.22H178.797V114.64H178.037Z" fill="#2C3242" mask="url(#path-12-inside-4_665_4811)"/>
<circle cx="40.4866" cy="40.4866" r="40.4012" transform="matrix(0.866025 -0.5 0.866025 0.5 58.709 110.505)" fill="#F8FAFA" stroke="#2C3242" stroke-width="0.17083"/>
<mask id="path-15-inside-5_665_4811" fill="white">
<path fill-rule="evenodd" clip-rule="evenodd" d="M140.486 60.3987C134.447 56.9119 124.656 56.9119 118.616 60.3987L83.3245 80.7744H50.0116V103.503H50.0159C49.9238 105.855 51.4323 108.224 54.5414 110.019L118.7 147.061C124.74 150.548 134.531 150.548 140.571 147.061L204.646 110.068C207.776 108.26 209.284 105.871 209.169 103.503H209.239V80.7744H175.778L140.486 60.3987Z"/>
</mask>
<path fill-rule="evenodd" clip-rule="evenodd" d="M140.486 60.3987C134.447 56.9119 124.656 56.9119 118.616 60.3987L83.3245 80.7744H50.0116V103.503H50.0159C49.9238 105.855 51.4323 108.224 54.5414 110.019L118.7 147.061C124.74 150.548 134.531 150.548 140.571 147.061L204.646 110.068C207.776 108.26 209.284 105.871 209.169 103.503H209.239V80.7744H175.778L140.486 60.3987Z" fill="#DCE8E6"/>
<path d="M118.616 60.3988L118.426 60.0698L118.616 60.3988ZM140.487 60.3988L140.677 60.0698L140.487 60.3988ZM83.3246 80.7745V81.1544H83.4264L83.5145 81.1035L83.3246 80.7745ZM50.0117 80.7745V80.3946H49.6318V80.7745H50.0117ZM50.0117 103.503H49.6318V103.883H50.0117V103.503ZM50.016 103.503L50.3956 103.518L50.4111 103.123H50.016V103.503ZM54.5415 110.019L54.3516 110.348L54.5415 110.019ZM118.701 147.061L118.511 147.39L118.701 147.061ZM140.571 147.061L140.381 146.732L140.571 147.061ZM204.646 110.068L204.456 109.739L204.646 110.068ZM209.169 103.503V103.123H208.77L208.79 103.521L209.169 103.503ZM209.239 103.503V103.883H209.619V103.503H209.239ZM209.239 80.7745H209.619V80.3946H209.239V80.7745ZM175.778 80.7745L175.588 81.1035L175.677 81.1544H175.778V80.7745ZM118.806 60.7278C121.755 59.0256 125.643 58.1636 129.551 58.1636C133.46 58.1636 137.348 59.0256 140.297 60.7278L140.677 60.0698C137.586 58.2852 133.558 57.4038 129.551 57.4038C125.545 57.4038 121.517 58.2852 118.426 60.0698L118.806 60.7278ZM83.5145 81.1035L118.806 60.7278L118.426 60.0698L83.1347 80.4455L83.5145 81.1035ZM50.0117 81.1544H83.3246V80.3946H50.0117V81.1544ZM50.3916 103.503V80.7745H49.6318V103.503H50.3916ZM50.016 103.123H50.0117V103.883H50.016V103.123ZM54.7315 109.69C51.6935 107.936 50.311 105.678 50.3956 103.518L49.6365 103.488C49.5368 106.031 51.1713 108.512 54.3516 110.348L54.7315 109.69ZM118.891 146.732L54.7315 109.69L54.3516 110.348L118.511 147.39L118.891 146.732ZM140.381 146.732C137.433 148.435 133.544 149.297 129.636 149.297C125.727 149.297 121.839 148.435 118.891 146.732L118.511 147.39C121.602 149.175 125.629 150.056 129.636 150.056C133.642 150.056 137.67 149.175 140.761 147.39L140.381 146.732ZM204.456 109.739L140.381 146.732L140.761 147.39L204.836 110.397L204.456 109.739ZM208.79 103.521C208.895 105.696 207.515 107.973 204.456 109.739L204.836 110.397C208.038 108.548 209.673 106.046 209.548 103.484L208.79 103.521ZM209.239 103.123H209.169V103.883H209.239V103.123ZM208.859 80.7745V103.503H209.619V80.7745H208.859ZM175.778 81.1544H209.239V80.3946H175.778V81.1544ZM140.297 60.7278L175.588 81.1035L175.968 80.4455L140.677 60.0698L140.297 60.7278Z" fill="#2C3242" mask="url(#path-15-inside-5_665_4811)"/>
<mask id="path-17-inside-6_665_4811" fill="white">
<path fill-rule="evenodd" clip-rule="evenodd" d="M71.5611 106.55L69.6875 105.468L69.6875 112.155L71.5611 113.237L71.5611 106.55ZM65.0887 102.813L63.2151 101.731L63.2151 108.418L65.0887 109.5L65.0887 102.813ZM56.7422 97.9942L58.6158 99.0759L58.6158 105.763L56.7422 104.681L56.7422 97.9942ZM59.9785 99.8628L61.8521 100.945L61.8521 107.632L59.9785 106.55L59.9785 99.8628ZM66.4513 103.6L68.3249 104.681L68.3249 111.369L66.4513 110.287L66.4513 103.6Z"/>
</mask>
<path fill-rule="evenodd" clip-rule="evenodd" d="M71.5611 106.55L69.6875 105.468L69.6875 112.155L71.5611 113.237L71.5611 106.55ZM65.0887 102.813L63.2151 101.731L63.2151 108.418L65.0887 109.5L65.0887 102.813ZM56.7422 97.9942L58.6158 99.0759L58.6158 105.763L56.7422 104.681L56.7422 97.9942ZM59.9785 99.8628L61.8521 100.945L61.8521 107.632L59.9785 106.55L59.9785 99.8628ZM66.4513 103.6L68.3249 104.681L68.3249 111.369L66.4513 110.287L66.4513 103.6Z" fill="#DEBF1A"/>
<path d="M69.6875 105.468L69.6875 105.254L69.5017 105.146L69.5017 105.361L69.6875 105.468ZM71.5611 106.55L71.7468 106.657L71.7468 106.443L71.5611 106.335L71.5611 106.55ZM69.6875 112.155L69.5017 112.048L69.5017 112.262L69.6875 112.37L69.6875 112.155ZM71.5611 113.237L71.5611 113.451L71.7468 113.559L71.7468 113.344L71.5611 113.237ZM63.2151 101.731L63.2151 101.517L63.0293 101.41L63.0293 101.624L63.2151 101.731ZM65.0887 102.813L65.2745 102.92L65.2745 102.706L65.0887 102.599L65.0887 102.813ZM63.2151 108.418L63.0293 108.311L63.0293 108.526L63.2151 108.633L63.2151 108.418ZM65.0887 109.5L65.0887 109.715L65.2745 109.822L65.2745 109.607L65.0887 109.5ZM58.6158 99.0761L58.8016 99.1833L58.8016 98.9688L58.6158 98.8616L58.6158 99.0761ZM56.7422 97.9943L56.7422 97.7799L56.5564 97.6726L56.5564 97.8871L56.7422 97.9943ZM58.6158 105.763L58.6158 105.978L58.8016 106.085L58.8016 105.87L58.6158 105.763ZM56.7422 104.681L56.5564 104.574L56.5564 104.789L56.7422 104.896L56.7422 104.681ZM61.8521 100.945L62.0379 101.052L62.0379 100.837L61.8521 100.73L61.8521 100.945ZM59.9785 99.8629L59.9785 99.6484L59.7927 99.5412L59.7927 99.7557L59.9785 99.8629ZM61.8521 107.632L61.8521 107.846L62.0379 107.954L62.0379 107.739L61.8521 107.632ZM59.9785 106.55L59.7927 106.443L59.7927 106.657L59.9785 106.765L59.9785 106.55ZM68.3249 104.682L68.5107 104.789L68.5107 104.574L68.3249 104.467L68.3249 104.682ZM66.4513 103.6L66.4513 103.385L66.2655 103.278L66.2655 103.493L66.4513 103.6ZM68.3249 111.369L68.3249 111.583L68.5107 111.69L68.5107 111.476L68.3249 111.369ZM66.4513 110.287L66.2655 110.18L66.2655 110.394L66.4513 110.501L66.4513 110.287ZM69.6875 105.683L71.5611 106.764L71.5611 106.335L69.6875 105.254L69.6875 105.683ZM69.8732 112.262L69.8732 105.575L69.5017 105.361L69.5017 112.048L69.8732 112.262ZM71.5611 113.022L69.6875 111.941L69.6875 112.37L71.5611 113.451L71.5611 113.022ZM71.3753 106.443L71.3753 113.13L71.7468 113.344L71.7468 106.657L71.3753 106.443ZM63.2151 101.946L65.0887 103.028L65.0887 102.599L63.2151 101.517L63.2151 101.946ZM63.4009 108.526L63.4009 101.839L63.0293 101.624L63.0293 108.311L63.4009 108.526ZM65.0887 109.286L63.2151 108.204L63.2151 108.633L65.0887 109.715L65.0887 109.286ZM64.903 102.706L64.903 109.393L65.2745 109.607L65.2745 102.92L64.903 102.706ZM58.6158 98.8616L56.7422 97.7799L56.7422 98.2088L58.6158 99.2906L58.6158 98.8616ZM58.8016 105.87L58.8016 99.1833L58.4301 98.9688L58.4301 105.656L58.8016 105.87ZM56.7422 104.896L58.6158 105.978L58.6158 105.549L56.7422 104.467L56.7422 104.896ZM56.5564 97.8871L56.5564 104.574L56.9279 104.789L56.9279 98.1016L56.5564 97.8871ZM61.8521 100.73L59.9785 99.6484L59.9785 100.077L61.8521 101.159L61.8521 100.73ZM62.0379 107.739L62.0379 101.052L61.6664 100.837L61.6664 107.525L62.0379 107.739ZM59.9785 106.765L61.8521 107.846L61.8521 107.417L59.9785 106.336L59.9785 106.765ZM59.7927 99.7557L59.7927 106.443L60.1643 106.657L60.1643 99.9702L59.7927 99.7557ZM68.3249 104.467L66.4513 103.385L66.4513 103.814L68.3249 104.896L68.3249 104.467ZM68.5107 111.476L68.5107 104.789L68.1392 104.574L68.1392 111.262L68.5107 111.476ZM66.4513 110.501L68.3249 111.583L68.3249 111.154L66.4513 110.073L66.4513 110.501ZM66.2655 103.493L66.2655 110.18L66.637 110.394L66.637 103.707L66.2655 103.493Z" fill="#2C3242" mask="url(#path-17-inside-6_665_4811)"/>
<mask id="path-19-inside-7_665_4811" fill="white">
<path fill-rule="evenodd" clip-rule="evenodd" d="M148.727 128.068L150.6 126.986L150.6 133.673L148.727 134.755L148.727 128.068ZM142.254 131.805L144.127 130.723L144.127 137.41L142.254 138.492L142.254 131.805ZM139.018 133.673L140.891 132.592L140.891 139.279L139.018 140.361L139.018 133.673ZM147.364 128.855L145.49 129.936L145.49 136.624L147.364 135.542L147.364 128.855ZM153.836 125.118L151.963 126.199L151.963 132.887L153.836 131.805L153.836 125.118Z"/>
</mask>
<path fill-rule="evenodd" clip-rule="evenodd" d="M148.727 128.068L150.6 126.986L150.6 133.673L148.727 134.755L148.727 128.068ZM142.254 131.805L144.127 130.723L144.127 137.41L142.254 138.492L142.254 131.805ZM139.018 133.673L140.891 132.592L140.891 139.279L139.018 140.361L139.018 133.673ZM147.364 128.855L145.49 129.936L145.49 136.624L147.364 135.542L147.364 128.855ZM153.836 125.118L151.963 126.199L151.963 132.887L153.836 131.805L153.836 125.118Z" fill="#DEBF1A"/>
<path d="M150.6 126.986L150.786 126.879L150.786 126.664L150.6 126.771L150.6 126.986ZM148.727 128.068L148.727 127.853L148.541 127.96L148.541 128.175L148.727 128.068ZM150.6 133.673L150.6 133.888L150.786 133.78L150.786 133.566L150.6 133.673ZM148.727 134.755L148.541 134.862L148.541 135.076L148.727 134.969L148.727 134.755ZM144.127 130.723L144.313 130.616L144.313 130.401L144.127 130.508L144.127 130.723ZM142.254 131.805L142.254 131.59L142.068 131.697L142.068 131.912L142.254 131.805ZM144.127 137.41L144.127 137.625L144.313 137.517L144.313 137.303L144.127 137.41ZM142.254 138.492L142.068 138.599L142.068 138.814L142.254 138.706L142.254 138.492ZM140.891 132.592L141.077 132.484L141.077 132.27L140.891 132.377L140.891 132.592ZM139.018 133.673L139.018 133.459L138.832 133.566L138.832 133.781L139.018 133.673ZM140.891 139.279L140.891 139.493L141.077 139.386L141.077 139.172L140.891 139.279ZM139.018 140.361L138.832 140.468L138.832 140.682L139.018 140.575L139.018 140.361ZM145.49 129.936L145.49 129.722L145.304 129.829L145.304 130.044L145.49 129.936ZM147.364 128.855L147.549 128.747L147.549 128.533L147.364 128.64L147.364 128.855ZM145.49 136.624L145.304 136.731L145.304 136.945L145.49 136.838L145.49 136.624ZM147.364 135.542L147.364 135.756L147.549 135.649L147.549 135.435L147.364 135.542ZM151.963 126.199L151.963 125.985L151.777 126.092L151.777 126.307L151.963 126.199ZM153.836 125.118L154.022 125.01L154.022 124.796L153.836 124.903L153.836 125.118ZM151.963 132.887L151.777 132.994L151.777 133.208L151.963 133.101L151.963 132.887ZM153.836 131.805L153.836 132.019L154.022 131.912L154.022 131.698L153.836 131.805ZM150.6 126.771L148.727 127.853L148.727 128.282L150.6 127.2L150.6 126.771ZM150.786 133.566L150.786 126.879L150.414 127.093L150.414 133.78L150.786 133.566ZM148.727 134.969L150.6 133.888L150.6 133.459L148.727 134.54L148.727 134.969ZM148.541 128.175L148.541 134.862L148.912 134.648L148.912 127.96L148.541 128.175ZM144.127 130.508L142.254 131.59L142.254 132.019L144.127 130.937L144.127 130.508ZM144.313 137.303L144.313 130.616L143.942 130.83L143.942 137.517L144.313 137.303ZM142.254 138.706L144.127 137.625L144.127 137.196L142.254 138.277L142.254 138.706ZM142.068 131.912L142.068 138.599L142.44 138.385L142.44 131.697L142.068 131.912ZM140.891 132.377L139.018 133.459L139.018 133.888L140.891 132.806L140.891 132.377ZM141.077 139.172L141.077 132.484L140.705 132.699L140.705 139.386L141.077 139.172ZM139.018 140.575L140.891 139.493L140.891 139.064L139.018 140.146L139.018 140.575ZM138.832 133.781L138.832 140.468L139.203 140.253L139.203 133.566L138.832 133.781ZM145.49 130.151L147.364 129.069L147.364 128.64L145.49 129.722L145.49 130.151ZM145.676 136.516L145.676 129.829L145.304 130.044L145.304 136.731L145.676 136.516ZM147.364 135.327L145.49 136.409L145.49 136.838L147.364 135.756L147.364 135.327ZM147.178 128.962L147.178 135.649L147.549 135.435L147.549 128.747L147.178 128.962ZM151.963 126.414L153.836 125.332L153.836 124.903L151.963 125.985L151.963 126.414ZM152.148 132.779L152.148 126.092L151.777 126.307L151.777 132.994L152.148 132.779ZM153.836 131.59L151.963 132.672L151.963 133.101L153.836 132.019L153.836 131.59ZM153.651 125.225L153.651 131.912L154.022 131.698L154.022 125.01L153.651 125.225Z" fill="#2C3242" mask="url(#path-19-inside-7_665_4811)"/>
<rect x="-1.13212e-08" y="0.189939" width="98.9582" height="98.8609" rx="12.4368" transform="matrix(0.866025 0.5 -0.866025 0.5 129.716 31.4524)" fill="#F8FAFA" stroke="#2C3242" stroke-width="0.379878"/>
<path d="M129.613 126.657V149.45" stroke="#2C3242" stroke-width="0.379878"/>
<mask id="path-23-inside-8_665_4811" fill="white">
<path fill-rule="evenodd" clip-rule="evenodd" d="M189.618 6.61865H68.0566V76.5162H68.0681C68.1629 78.1875 69.315 79.8424 71.5245 81.118L120.509 109.399C125.126 112.065 132.612 112.065 137.229 109.399L186.149 81.1552C188.375 79.8701 189.528 78.2001 189.608 76.5162H189.618V6.61865Z"/>
</mask>
<path fill-rule="evenodd" clip-rule="evenodd" d="M189.618 6.61865H68.0566V76.5162H68.0681C68.1629 78.1875 69.315 79.8424 71.5245 81.118L120.509 109.399C125.126 112.065 132.612 112.065 137.229 109.399L186.149 81.1552C188.375 79.8701 189.528 78.2001 189.608 76.5162H189.618V6.61865Z" fill="#DCE8E6"/>
<path d="M68.0566 6.61865V6.32823H67.7662V6.61865H68.0566ZM189.618 6.61865H189.908V6.32823H189.618V6.61865ZM68.0566 76.5162H67.7662V76.8067H68.0566V76.5162ZM68.0681 76.5162L68.358 76.4998L68.3425 76.2258H68.0681V76.5162ZM71.5245 81.118L71.6697 80.8665H71.6697L71.5245 81.118ZM120.509 109.399L120.654 109.148L120.509 109.399ZM137.229 109.399L137.084 109.148L137.229 109.399ZM186.149 81.1552L186.004 80.9037L186.149 81.1552ZM189.608 76.5162V76.2258H189.331L189.318 76.5025L189.608 76.5162ZM189.618 76.5162V76.8067H189.908V76.5162H189.618ZM68.0566 6.90907H189.618V6.32823H68.0566V6.90907ZM68.3471 76.5162V6.61865H67.7662V76.5162H68.3471ZM68.0681 76.2258H68.0566V76.8067H68.0681V76.2258ZM71.6697 80.8665C69.511 79.6202 68.4454 78.0397 68.358 76.4998L67.7781 76.5327C67.8804 78.3353 69.119 80.0646 71.3793 81.3696L71.6697 80.8665ZM120.654 109.148L71.6697 80.8665L71.3793 81.3696L120.364 109.651L120.654 109.148ZM137.084 109.148C134.83 110.449 131.857 111.108 128.869 111.108C125.881 111.108 122.908 110.449 120.654 109.148L120.364 109.651C122.727 111.015 125.806 111.689 128.869 111.689C131.932 111.689 135.011 111.015 137.374 109.651L137.084 109.148ZM186.004 80.9037L137.084 109.148L137.374 109.651L186.295 81.4067L186.004 80.9037ZM189.318 76.5025C189.244 78.0535 188.179 79.6481 186.004 80.9037L186.295 81.4067C188.572 80.0921 189.812 78.3466 189.898 76.53L189.318 76.5025ZM189.618 76.2258H189.608V76.8067H189.618V76.2258ZM189.327 6.61865V76.5162H189.908V6.61865H189.327Z" fill="#2C3242" mask="url(#path-23-inside-8_665_4811)"/>
<rect x="-1.13212e-08" y="0.189939" width="75.4816" height="75.4074" rx="9.46339" transform="matrix(0.866025 0.5 -0.866025 0.5 128.966 -31.3088)" fill="#F8FAFA" stroke="#2C3242" stroke-width="0.379878"/>
<path d="M129.233 41.5674L129.233 111.465" stroke="#2C3242" stroke-width="0.379878"/>
<rect x="0.164492" y="0.0949696" width="11.3592" height="5.54058" transform="matrix(0.866026 -0.5 2.20305e-08 1 164.458 127.085)" fill="#2C3242" stroke="#2C3242" stroke-width="0.379878"/>
<rect x="0.164492" y="0.284909" width="3.50966" height="5.3025" transform="matrix(0.866026 0.5 -2.20305e-08 1 165.244 126.56)" fill="#DCE8E6" stroke="#2C3242" stroke-width="0.379878"/>
<rect x="0.328984" width="9.09991" height="3.16355" transform="matrix(0.866026 -0.5 0.866026 0.5 165.281 127.187)" fill="#F8FAFA" stroke="#2C3242" stroke-width="0.379878"/>
<rect x="0.164492" y="0.0949696" width="9.09991" height="5.54058" transform="matrix(0.866026 -0.5 2.20305e-08 1 168.328 128.5)" fill="#DEBF1A" stroke="#2C3242" stroke-width="0.379878"/>
<rect x="0.164492" y="0.284909" width="7.76081" height="5.3025" transform="matrix(0.866026 0.5 -2.20305e-08 1 157.763 122.915)" fill="#DCE8E6" stroke="#2C3242" stroke-width="0.379878"/>
<rect x="0.328984" width="11.2769" height="7.68032" transform="matrix(0.866026 -0.5 0.866026 0.5 157.57 123.41)" fill="#F8FAFA" stroke="#2C3242" stroke-width="0.379878"/>
<rect x="0.164492" y="0.0949695" width="47.5167" height="47.5167" rx="4.3686" transform="matrix(0.866025 -0.5 2.20305e-08 1 140.651 49.9472)" fill="#F8FAFA" stroke="#2C3242" stroke-width="0.379878"/>
<path d="M175.106 74.7283L175.106 118.279L141.1 95.4863C140.903 95.3543 140.793 95.095 140.793 94.7601L140.793 51.2895C140.793 50.5552 141.309 49.6623 141.945 49.2952L179.549 27.5843C179.861 27.4042 180.16 27.378 180.377 27.5116L216.152 49.5541L175.266 74.446L175.106 74.5435L175.106 74.7283Z" fill="url(#paint0_linear_665_4811)" stroke="#2C3242" stroke-width="0.379878"/>
<path d="M140.993 50.4097L175.578 72.6575" stroke="#2C3242" stroke-width="0.379878"/>
<rect x="0.164492" y="0.0949695" width="49.0434" height="49.0434" rx="4.3686" transform="matrix(0.866025 -0.5 2.20305e-08 1 174.081 71.6067)" fill="#51985C" stroke="#2C3242" stroke-width="0.379878"/>
<rect x="-0.0928769" y="-0.0536225" width="29.4615" height="33.4022" transform="matrix(0.866025 -0.5 2.20305e-08 1 183.863 74.5517)" fill="#DCE8E6" stroke="#2C3242" stroke-width="0.21449"/>
<mask id="mask1_665_4811" style="mask-type:alpha" maskUnits="userSpaceOnUse" x="183" y="59" width="27" height="49">
<rect x="0.0928769" y="0.0536225" width="29.0325" height="32.9732" transform="matrix(0.866025 -0.5 2.20305e-08 1 183.887 74.6446)" fill="#DCE8E6" stroke="#2C3242" stroke-width="0.21449"/>
</mask>
<g mask="url(#mask1_665_4811)">
<rect x="-6.3923e-09" y="0.107245" width="6.22021" height="29.2895" transform="matrix(0.866025 0.5 -0.866025 0.5 204.141 90.2143)" fill="#F8FAFA" stroke="#2C3242" stroke-width="0.21449"/>
<ellipse cx="4.5858" cy="4.5858" rx="4.5858" ry="4.5858" transform="matrix(0.866025 -0.5 2.20305e-08 1 190.578 75.9043)" fill="black"/>
<path d="M187.534 94.3544C187.534 92.3274 188.232 89.9807 189.473 87.8307C190.714 85.6807 192.398 83.9035 194.153 82.8899C195.909 81.8764 197.592 81.7096 198.834 82.4263C200.075 83.143 200.772 84.6844 200.772 86.7114L194.153 90.5329L187.534 94.3544Z" fill="black"/>
<rect opacity="0.5" width="29.247" height="33.1877" transform="matrix(0.866025 -0.5 2.20305e-08 1 183.875 74.5974)" fill="#76C583"/>
<mask id="mask2_665_4811" style="mask-type:alpha" maskUnits="userSpaceOnUse" x="183" y="59" width="27" height="49">
<rect opacity="0.5" width="29.247" height="33.1877" transform="matrix(0.866025 -0.5 2.20305e-08 1 183.875 74.5974)" fill="#10BD99"/>
</mask>
<g mask="url(#mask2_665_4811)">
<path opacity="0.2" d="M173.869 111.346L209.191 51.6025" stroke="#DCE8E6" stroke-width="8.35732"/>
<path opacity="0.2" d="M184.627 114.784L219.949 55.0412" stroke="#DCE8E6" stroke-width="3.03902"/>
</g>
</g>
<rect x="-0.164492" y="0.0949695" width="45.2055" height="45.2055" rx="4.3686" transform="matrix(-0.866025 -0.5 -2.20305e-08 1 117.786 49.7827)" fill="#F8FAFA" stroke="#2C3242" stroke-width="0.379878"/>
<path d="M83.6159 74.7283L83.6159 118.279L117.622 95.4863C117.819 95.3543 117.928 95.095 117.928 94.7601L117.928 51.2895C117.928 50.5552 117.413 49.6623 116.777 49.2952L79.1725 27.5843C78.8606 27.4042 78.5619 27.378 78.345 27.5116L42.5701 49.5541L83.4559 74.446L83.6159 74.5435L83.6159 74.7283Z" fill="url(#paint1_linear_665_4811)" stroke="#2C3242" stroke-width="0.379878"/>
<path d="M117.729 50.4094L83.1437 72.6572" stroke="#2C3242" stroke-width="0.379878"/>
<rect x="-0.164492" y="0.0949695" width="49.0434" height="49.0434" rx="4.3686" transform="matrix(-0.866025 -0.5 -2.20305e-08 1 84.3561 71.4422)" fill="#55A5DF" stroke="#2C3242" stroke-width="0.379878"/>
<rect x="0.0928769" y="-0.0536225" width="29.4615" height="33.4022" transform="matrix(-0.866025 -0.5 -2.20305e-08 1 75.02 74.6446)" fill="#DCE8E6" stroke="#2C3242" stroke-width="0.21449"/>
<mask id="mask3_665_4811" style="mask-type:alpha" maskUnits="userSpaceOnUse" x="49" y="59" width="26" height="49">
<rect x="-0.0928769" y="0.0536225" width="29.0325" height="32.9732" transform="matrix(-0.866025 -0.5 -2.20305e-08 1 74.6734 74.5517)" fill="#DCE8E6" stroke="#2C3242" stroke-width="0.21449"/>
</mask>
<g mask="url(#mask3_665_4811)">
<rect x="6.3923e-09" y="0.107245" width="6.22021" height="29.2895" transform="matrix(-0.866025 0.5 0.866025 0.5 54.581 90.2143)" fill="#F8FAFA" stroke="#2C3242" stroke-width="0.21449"/>
<rect x="-0.0928769" y="0.160867" width="6.22021" height="33.5793" transform="matrix(-0.866025 0.5 2.20305e-08 1 54.5005 56.7466)" fill="#2C3242" stroke="#2C3242" stroke-width="0.21449"/>
<ellipse cx="4.5858" cy="4.5858" rx="4.5858" ry="4.5858" transform="matrix(-0.866025 -0.5 -2.20305e-08 1 67.3838 76.6641)" fill="black"/>
<path d="M70.4277 95.1144C70.4277 93.0874 69.7304 90.7407 68.4891 88.5907C67.2478 86.4407 65.5642 84.6635 63.8087 83.6499C62.0532 82.6364 60.3696 82.4696 59.1283 83.1863C57.887 83.903 57.1897 85.4444 57.1897 87.4714L63.8087 91.2929L70.4277 95.1144Z" fill="black"/>
<rect opacity="0.5" width="29.247" height="33.1877" transform="matrix(-0.866025 -0.5 -2.20305e-08 1 74.8467 74.5977)" fill="#55A5DF"/>
<mask id="mask4_665_4811" style="mask-type:alpha" maskUnits="userSpaceOnUse" x="49" y="59" width="26" height="49">
<rect opacity="0.5" width="29.247" height="33.1877" transform="matrix(-0.866025 -0.5 -2.20305e-08 1 74.8467 74.5977)" fill="#10BD99"/>
</mask>
<g mask="url(#mask4_665_4811)">
<path opacity="0.2" d="M33.6604 106.234L93.4034 70.9119" stroke="#DCE8E6" stroke-width="8.35732"/>
<path opacity="0.2" d="M30.2219 95.4754L89.9649 60.1536" stroke="#DCE8E6" stroke-width="3.03902"/>
</g>
</g>
<rect x="0.328984" width="49.0434" height="49.0434" rx="4.3686" transform="matrix(0.866025 -0.5 0.866025 0.5 86.0802 4.99481)" fill="#F8FAFA" stroke="#2C3242" stroke-width="0.379878"/>
<rect x="0.328984" width="49.0434" height="49.0434" rx="4.3686" transform="matrix(0.866025 -0.5 0.866025 0.5 86.0802 4.99481)" fill="#F8FAFA" stroke="#2C3242" stroke-width="0.379878"/>
<mask id="path-62-inside-9_665_4811" fill="white">
<path fill-rule="evenodd" clip-rule="evenodd" d="M169.288 4.44943V-31.574H88.3709V4.54169C88.2289 5.4599 88.7665 6.40656 89.9839 7.10939L124.89 27.2625C127.07 28.5213 130.605 28.5213 132.786 27.2625L167.692 7.1094C168.95 6.38299 169.482 5.39614 169.288 4.44943Z"/>
</mask>
<path fill-rule="evenodd" clip-rule="evenodd" d="M169.288 4.44943V-31.574H88.3709V4.54169C88.2289 5.4599 88.7665 6.40656 89.9839 7.10939L124.89 27.2625C127.07 28.5213 130.605 28.5213 132.786 27.2625L167.692 7.1094C168.95 6.38299 169.482 5.39614 169.288 4.44943Z" fill="url(#paint2_linear_665_4811)"/>
<path d="M169.288 4.44945H168.908V4.48795L168.916 4.52567L169.288 4.44945ZM169.288 -31.574H169.668V-31.9539H169.288V-31.574ZM88.3709 -31.574V-31.9539H87.991V-31.574H88.3709ZM88.3709 4.54169L88.7463 4.59976L88.7508 4.5709V4.54169H88.3709ZM89.9839 7.10939L89.7939 7.43838H89.7939L89.9839 7.10939ZM124.89 27.2625L124.7 27.5915L124.89 27.2625ZM132.786 27.2625L132.596 26.9335L132.786 27.2625ZM167.692 7.1094L167.882 7.43838L167.692 7.1094ZM169.668 4.44945V-31.574H168.908V4.44945H169.668ZM169.288 -31.9539H88.3709V-31.1941H169.288V-31.9539ZM87.991 -31.574V4.54169H88.7508V-31.574H87.991ZM90.1738 6.78041C89.0339 6.12227 88.6371 5.30572 88.7463 4.59976L87.9955 4.48362C87.8206 5.61407 88.4992 6.69084 89.7939 7.43838L90.1738 6.78041ZM125.08 26.9335L90.1738 6.78041L89.7939 7.43838L124.7 27.5915L125.08 26.9335ZM132.596 26.9335C131.577 27.5218 130.218 27.8267 128.838 27.8267C127.458 27.8267 126.099 27.5218 125.08 26.9335L124.7 27.5915C125.862 28.2621 127.36 28.5865 128.838 28.5865C130.316 28.5865 131.814 28.2621 132.976 27.5915L132.596 26.9335ZM167.502 6.78041L132.596 26.9335L132.976 27.5915L167.882 7.43838L167.502 6.78041ZM168.916 4.52567C169.065 5.25235 168.68 6.10041 167.502 6.78041L167.882 7.43838C169.22 6.66558 169.899 5.53996 169.661 4.37323L168.916 4.52567Z" fill="#2C3242" mask="url(#path-62-inside-9_665_4811)"/>
<circle cx="6.92823" cy="6.92823" r="6.82098" transform="matrix(0.866025 -0.5 0.866025 0.5 172.298 184.028)" fill="#55A5DF" stroke="#2C3242" stroke-width="0.21449"/>
<path d="M166.772 145.632C166.772 149.315 164.186 153.795 160.996 155.637C157.805 157.478 155.219 155.985 155.219 152.302C155.219 148.618 157.805 144.138 160.996 142.297C164.186 140.455 166.772 141.948 166.772 145.632Z" fill="#55A5DF" stroke="#2C3242" stroke-width="0.379878"/>
<path fill-rule="evenodd" clip-rule="evenodd" d="M179.915 166.253C179.915 165.414 179.317 164.41 178.579 164.011L161.37 154.694L161.37 142.538L189.269 157.642C190.007 158.041 190.605 159.046 190.605 159.885L190.605 186.921L179.915 181.134L179.915 166.253Z" fill="#2C3242"/>
<path fill-rule="evenodd" clip-rule="evenodd" d="M180.249 166.054C180.249 165.215 179.651 164.211 178.913 163.811L161.37 154.314L161.37 142.917L188.935 157.841C189.673 158.24 190.271 159.244 190.271 160.084L190.271 186.74L180.249 181.315L180.249 166.054Z" fill="#55A5DF"/>
<path d="M185.26 184.027L185.26 161.549L173.314 155.083" stroke="url(#paint3_linear_665_4811)" stroke-width="3.79878"/>
<circle cx="6.92823" cy="6.92823" r="6.82098" transform="matrix(-0.866025 -0.5 -0.866025 0.5 87.8838 184.028)" fill="#55A5DF" stroke="#2C3242" stroke-width="0.21449"/>
<path d="M93.4096 145.632C93.4096 149.315 95.9958 153.795 99.1861 155.637C102.376 157.478 104.962 155.985 104.962 152.302C104.962 148.618 102.376 144.138 99.1861 142.297C95.9958 140.455 93.4096 141.948 93.4096 145.632Z" fill="#55A5DF" stroke="#2C3242" stroke-width="0.379878"/>
<path fill-rule="evenodd" clip-rule="evenodd" d="M80.2663 166.253C80.2663 165.414 80.8645 164.41 81.6025 164.011L98.8115 154.694L98.8115 142.538L70.9125 157.642C70.1745 158.041 69.5762 159.046 69.5762 159.885L69.5762 186.921L80.2663 181.134L80.2663 166.253Z" fill="#2C3242"/>
<path fill-rule="evenodd" clip-rule="evenodd" d="M79.9322 166.054C79.9322 165.215 80.5305 164.211 81.2685 163.811L98.8115 154.314L98.8115 142.917L71.2465 157.841C70.5085 158.24 69.9103 159.244 69.9103 160.084L69.9103 186.74L79.9322 181.315L79.9322 166.054Z" fill="#55A5DF"/>
<path d="M74.922 184.027L74.922 161.549L86.8672 155.083" stroke="url(#paint4_linear_665_4811)" stroke-width="3.79878"/>
<defs>
<linearGradient id="paint0_linear_665_4811" x1="140.629" y1="54.1896" x2="192.797" y2="86.3385" gradientUnits="userSpaceOnUse">
<stop stop-color="#FFEEE1"/>
<stop offset="1" stop-color="#FACCA1" stop-opacity="0"/>
</linearGradient>
<linearGradient id="paint1_linear_665_4811" x1="118.093" y1="54.1896" x2="65.9249" y2="86.3385" gradientUnits="userSpaceOnUse">
<stop stop-color="#55A5DF"/>
<stop offset="1" stop-color="#55A5DF" stop-opacity="0"/>
</linearGradient>
<linearGradient id="paint2_linear_665_4811" x1="133.377" y1="28.2067" x2="132.745" y2="-24.2371" gradientUnits="userSpaceOnUse">
<stop stop-color="#E1FFF9"/>
<stop offset="1" stop-color="#A1FAE7" stop-opacity="0"/>
</linearGradient>
<linearGradient id="paint3_linear_665_4811" x1="173.314" y1="155.082" x2="172.271" y2="175.689" gradientUnits="userSpaceOnUse">
<stop stop-color="#DAFBF4" stop-opacity="0"/>
<stop offset="0.3116" stop-color="#DAFBF4" stop-opacity="0.385441"/>
<stop offset="1" stop-color="#DAFBF4" stop-opacity="0"/>
</linearGradient>
<linearGradient id="paint4_linear_665_4811" x1="86.8672" y1="155.082" x2="87.9111" y2="175.689" gradientUnits="userSpaceOnUse">
<stop stop-color="#DAFBF4" stop-opacity="0"/>
<stop offset="0.3116" stop-color="#DAFBF4" stop-opacity="0.385441"/>
<stop offset="1" stop-color="#DAFBF4" stop-opacity="0"/>
</linearGradient>
</defs>
</svg>
