<svg width="22" height="22" viewBox="0 0 22 22" fill="none" xmlns="http://www.w3.org/2000/svg">
<path d="M11.048 0.272003C12.536 0.272003 13.932 0.556003 15.236 1.124C16.54 1.692 17.68 2.46 18.656 3.428C19.632 4.396 20.4 5.532 20.96 6.836C21.52 8.14 21.8 9.536 21.8 11.024C21.8 12.512 21.52 13.904 20.96 15.2C20.4 16.496 19.632 17.632 18.656 18.608C17.68 19.584 16.54 20.352 15.236 20.912C13.932 21.472 12.536 21.752 11.048 21.752C9.56001 21.752 8.16801 21.472 6.87201 20.912C5.57601 20.352 4.44001 19.584 3.46401 18.608C2.48801 17.632 1.72001 16.496 1.16001 15.2C0.600007 13.904 0.320007 12.512 0.320007 11.024C0.320007 9.536 0.600007 8.14 1.16001 6.836C1.72001 5.532 2.48801 4.396 3.46401 3.428C4.44001 2.46 5.57601 1.692 6.87201 1.124C8.16801 0.556003 9.56001 0.272003 11.048 0.272003ZM11.072 18.368C11.488 18.368 11.836 18.228 12.116 17.948C12.396 17.668 12.536 17.328 12.536 16.928C12.536 16.512 12.396 16.164 12.116 15.884C11.836 15.604 11.488 15.464 11.072 15.464C10.656 15.464 10.308 15.604 10.028 15.884C9.74801 16.164 9.60801 16.512 9.60801 16.928C9.60801 17.328 9.74801 17.668 10.028 17.948C10.308 18.228 10.656 18.368 11.072 18.368ZM12.296 12.464C12.28 12.208 12.44 11.936 12.776 11.648C13.112 11.36 13.488 11.04 13.904 10.688C14.32 10.336 14.704 9.94 15.056 9.5C15.408 9.06 15.6 8.552 15.632 7.976C15.664 7.352 15.6 6.768 15.44 6.224C15.28 5.68 15.016 5.212 14.648 4.82C14.28 4.428 13.804 4.116 13.22 3.884C12.636 3.652 11.952 3.536 11.168 3.536C10.192 3.536 9.38001 3.708 8.73201 4.052C8.08401 4.396 7.56001 4.812 7.16001 5.3C6.76001 5.788 6.48001 6.292 6.32001 6.812C6.16001 7.332 6.08801 7.768 6.10401 8.12C6.12001 8.536 6.25201 8.84 6.50001 9.032C6.74801 9.224 7.01601 9.324 7.30401 9.332C7.59201 9.34 7.85601 9.26 8.09601 9.092C8.33601 8.924 8.45601 8.68 8.45601 8.36C8.45601 8.168 8.51601 7.932 8.63601 7.652C8.75601 7.372 8.92001 7.104 9.12801 6.848C9.33601 6.592 9.58801 6.376 9.88401 6.2C10.18 6.024 10.512 5.936 10.88 5.936C11.6 5.936 12.176 6.116 12.608 6.476C13.04 6.836 13.24 7.288 13.208 7.832C13.208 8.104 13.128 8.356 12.968 8.588C12.808 8.82 12.604 9.044 12.356 9.26C12.108 9.476 11.844 9.692 11.564 9.908C11.284 10.124 11.02 10.348 10.772 10.58C10.524 10.812 10.316 11.064 10.148 11.336C9.98001 11.608 9.88801 11.904 9.87201 12.224L9.89601 13.136C9.89601 13.376 10.008 13.604 10.232 13.82C10.456 14.036 10.752 14.152 11.12 14.168C11.488 14.152 11.78 14.032 11.996 13.808C12.212 13.584 12.312 13.328 12.296 13.04V12.464Z" fill="#CECBFA"/>
</svg>
