<svg width="636" height="418" viewBox="0 0 636 418" fill="none" xmlns="http://www.w3.org/2000/svg">
<path d="M108.441 377.133H167.282V417.298H108.441V377.133Z" fill="#CF7C3F"/>
<path d="M197.317 312.836C221.066 311.602 224.533 308.759 247.718 303.355C247.718 303.355 205.17 272.445 172.299 234.615C193.027 233.734 204.129 231.11 224.516 225.591C224.516 225.591 160.504 182.182 141.762 137.053C141.762 137.053 90.2244 213.699 51.1959 225.591C51.1959 225.591 73.2242 232.012 112.315 234.235C88.8098 259.832 58.8128 295.285 27.997 303.355C27.997 303.355 39.8055 309.589 85.1024 312.324C55.6908 338.07 35.1155 369.367 0 377.036C0 377.036 151.515 401.154 275.715 377.036C275.715 377.036 238.586 348.816 197.317 312.836Z" fill="#35683D"/>
<path d="M121.901 127.408C121.901 129.905 122.393 132.377 123.348 134.684C124.304 136.991 125.704 139.087 127.47 140.853C129.236 142.619 131.332 144.019 133.639 144.975C135.946 145.93 138.418 146.422 140.915 146.422C143.412 146.422 145.885 145.93 148.192 144.975C150.498 144.019 152.595 142.619 154.36 140.853C156.126 139.087 157.526 136.991 158.482 134.684C159.438 132.377 159.929 129.905 159.929 127.408C159.929 122.365 157.926 117.529 154.36 113.963C150.794 110.397 145.958 108.394 140.915 108.394C135.872 108.394 131.036 110.397 127.47 113.963C123.904 117.529 121.901 122.365 121.901 127.408Z" fill="#E1574C"/>
<path d="M147.215 193.869C147.215 196.838 148.394 199.686 150.494 201.785C152.593 203.885 155.441 205.064 158.41 205.064C161.379 205.064 164.227 203.885 166.326 201.785C168.426 199.686 169.605 196.838 169.605 193.869C169.605 190.9 168.426 188.052 166.326 185.953C164.227 183.853 161.379 182.674 158.41 182.674C155.441 182.674 152.593 183.853 150.494 185.953C148.394 188.052 147.215 190.9 147.215 193.869Z" fill="#EECE7B"/>
<path d="M95.4404 275.633C95.4404 277.371 95.7826 279.091 96.4475 280.696C97.1124 282.302 98.0869 283.76 99.3155 284.989C100.544 286.217 102.002 287.192 103.608 287.857C105.213 288.521 106.933 288.864 108.671 288.864C110.408 288.864 112.128 288.521 113.734 287.857C115.339 287.192 116.797 286.217 118.026 284.989C119.254 283.76 120.229 282.302 120.894 280.696C121.559 279.091 121.901 277.371 121.901 275.633C121.901 273.896 121.559 272.176 120.894 270.571C120.229 268.965 119.254 267.507 118.026 266.278C116.797 265.05 115.339 264.075 113.734 263.41C112.128 262.746 110.408 262.403 108.671 262.403C106.933 262.403 105.213 262.746 103.608 263.41C102.002 264.075 100.544 265.05 99.3155 266.278C98.0869 267.507 97.1124 268.965 96.4475 270.571C95.7826 272.176 95.4404 273.896 95.4404 275.633Z" fill="#41ADD1"/>
<path d="M70.2554 355.485C70.2554 358.824 71.5821 362.027 73.9436 364.389C76.3052 366.75 79.5082 368.077 82.8479 368.077C86.1877 368.077 89.3906 366.75 91.7522 364.389C94.1137 362.027 95.4404 358.824 95.4404 355.485C95.4404 352.145 94.1137 348.942 91.7522 346.58C89.3906 344.219 86.1877 342.892 82.8479 342.892C79.5082 342.892 76.3052 344.219 73.9436 346.58C71.5821 348.942 70.2554 352.145 70.2554 355.485Z" fill="#E1574C"/>
<path d="M151.417 371.579C151.417 375.847 153.112 379.939 156.13 382.957C159.148 385.975 163.24 387.67 167.508 387.67C171.775 387.67 175.868 385.975 178.886 382.957C181.903 379.939 183.599 375.847 183.599 371.579C183.599 367.312 181.903 363.219 178.886 360.201C175.868 357.184 171.775 355.488 167.508 355.488C163.24 355.488 159.148 357.184 156.13 360.201C153.112 363.219 151.417 367.312 151.417 371.579Z" fill="#EECE7B"/>
<path d="M193.4 334.498C193.4 337.652 194.653 340.677 196.884 342.907C199.114 345.137 202.139 346.39 205.293 346.39C208.447 346.39 211.471 345.137 213.702 342.907C215.932 340.677 217.185 337.652 217.185 334.498C217.185 331.344 215.932 328.319 213.702 326.089C211.471 323.859 208.447 322.606 205.293 322.606C202.139 322.606 199.114 323.859 196.884 326.089C194.653 328.319 193.4 331.344 193.4 334.498Z" fill="#E1574C"/>
<path d="M39.8594 149.394V179.394" stroke="white" stroke-opacity="0.6" stroke-linecap="round" stroke-linejoin="round"/>
<path d="M26.9028 156.894L52.8836 171.894" stroke="white" stroke-opacity="0.6" stroke-linecap="round" stroke-linejoin="round"/>
<path d="M26.8989 171.877L52.8206 156.911" stroke="white" stroke-opacity="0.6" stroke-linecap="round" stroke-linejoin="round"/>
<path d="M30.8594 153.894L33.1094 160.644L26.3594 162.144" stroke="white" stroke-opacity="0.6" stroke-linecap="round" stroke-linejoin="round"/>
<path d="M26.3594 166.644L33.1094 168.144L30.8594 174.894" stroke="white" stroke-opacity="0.6" stroke-linecap="round" stroke-linejoin="round"/>
<path d="M48.8594 153.894L46.6094 160.644L53.3594 162.144" stroke="white" stroke-opacity="0.6" stroke-linecap="round" stroke-linejoin="round"/>
<path d="M53.3594 166.644L46.6094 168.144L48.8594 174.894" stroke="white" stroke-opacity="0.6" stroke-linecap="round" stroke-linejoin="round"/>
<path d="M35.3594 151.644L39.8594 156.144L44.3594 151.644" stroke="white" stroke-opacity="0.6" stroke-linecap="round" stroke-linejoin="round"/>
<path d="M35.3594 177.144L39.8594 172.644L44.3594 177.144" stroke="white" stroke-opacity="0.6" stroke-linecap="round" stroke-linejoin="round"/>
<path d="M55.8594 6.39404V46.394" stroke="white" stroke-opacity="0.8" stroke-width="2" stroke-linecap="round" stroke-linejoin="round"/>
<path d="M38.584 16.394L73.225 36.394" stroke="white" stroke-opacity="0.8" stroke-width="2" stroke-linecap="round" stroke-linejoin="round"/>
<path d="M38.5786 36.3715L73.1408 16.417" stroke="white" stroke-opacity="0.8" stroke-width="2" stroke-linecap="round" stroke-linejoin="round"/>
<path d="M43.8594 12.394L46.8594 21.394L37.8594 23.394" stroke="white" stroke-opacity="0.8" stroke-width="2" stroke-linecap="round" stroke-linejoin="round"/>
<path d="M37.8594 29.394L46.8594 31.394L43.8594 40.394" stroke="white" stroke-opacity="0.8" stroke-width="2" stroke-linecap="round" stroke-linejoin="round"/>
<path d="M67.8594 12.394L64.8594 21.394L73.8594 23.394" stroke="white" stroke-opacity="0.8" stroke-width="2" stroke-linecap="round" stroke-linejoin="round"/>
<path d="M73.8594 29.394L64.8594 31.394L67.8594 40.394" stroke="white" stroke-opacity="0.8" stroke-width="2" stroke-linecap="round" stroke-linejoin="round"/>
<path d="M49.8594 9.39404L55.8594 15.394L61.8594 9.39404" stroke="white" stroke-opacity="0.8" stroke-width="2" stroke-linecap="round" stroke-linejoin="round"/>
<path d="M49.8594 43.394L55.8594 37.394L61.8594 43.394" stroke="white" stroke-opacity="0.8" stroke-width="2" stroke-linecap="round" stroke-linejoin="round"/>
<g clip-path="url(#clip0_1896_4140)">
<path d="M600.683 10.0752L611.035 48.7122" stroke="white" stroke-opacity="0.8" stroke-linecap="round" stroke-linejoin="round"/>
<path d="M586.584 24.2061L625.221 34.5588" stroke="white" stroke-opacity="0.8" stroke-linecap="round" stroke-linejoin="round"/>
<path d="M591.75 43.5041L619.969 15.2841" stroke="white" stroke-opacity="0.8" stroke-linecap="round" stroke-linejoin="round"/>
<path d="M590.645 18.9769L595.872 26.8937L587.696 31.155" stroke="white" stroke-opacity="0.8" stroke-linecap="round" stroke-linejoin="round"/>
<path d="M589.249 36.9502L598.46 36.5527L597.892 46.0225" stroke="white" stroke-opacity="0.8" stroke-linecap="round" stroke-linejoin="round"/>
<path d="M613.827 12.765L613.259 22.2348L622.47 21.8373" stroke="white" stroke-opacity="0.8" stroke-linecap="round" stroke-linejoin="round"/>
<path d="M624.022 27.633L615.847 31.8943L621.074 39.8111" stroke="white" stroke-opacity="0.8" stroke-linecap="round" stroke-linejoin="round"/>
<path d="M595.664 14.5259L603.012 18.7685L607.255 11.4201" stroke="white" stroke-opacity="0.8" stroke-linecap="round" stroke-linejoin="round"/>
<path d="M604.464 47.3673L608.706 40.0189L616.055 44.2615" stroke="white" stroke-opacity="0.8" stroke-linecap="round" stroke-linejoin="round"/>
</g>
<path d="M417.859 337.394V367.394" stroke="white" stroke-opacity="0.6" stroke-width="2" stroke-linecap="round" stroke-linejoin="round"/>
<path d="M404.903 344.894L430.884 359.894" stroke="white" stroke-opacity="0.6" stroke-width="2" stroke-linecap="round" stroke-linejoin="round"/>
<path d="M404.899 359.877L430.821 344.911" stroke="white" stroke-opacity="0.6" stroke-width="2" stroke-linecap="round" stroke-linejoin="round"/>
<path d="M408.859 341.894L411.109 348.644L404.359 350.144" stroke="white" stroke-opacity="0.6" stroke-width="2" stroke-linecap="round" stroke-linejoin="round"/>
<path d="M404.359 354.644L411.109 356.144L408.859 362.894" stroke="white" stroke-opacity="0.6" stroke-width="2" stroke-linecap="round" stroke-linejoin="round"/>
<path d="M426.859 341.894L424.609 348.644L431.359 350.144" stroke="white" stroke-opacity="0.6" stroke-width="2" stroke-linecap="round" stroke-linejoin="round"/>
<path d="M431.359 354.644L424.609 356.144L426.859 362.894" stroke="white" stroke-opacity="0.6" stroke-width="2" stroke-linecap="round" stroke-linejoin="round"/>
<path d="M413.359 339.644L417.859 344.144L422.359 339.644" stroke="white" stroke-opacity="0.6" stroke-width="2" stroke-linecap="round" stroke-linejoin="round"/>
<path d="M413.359 365.144L417.859 360.644L422.359 365.144" stroke="white" stroke-opacity="0.6" stroke-width="2" stroke-linecap="round" stroke-linejoin="round"/>
<defs>
<clipPath id="clip0_1896_4140">
<rect width="48" height="48" fill="white" transform="translate(576.465 12.4233) rotate(-15)"/>
</clipPath>
</defs>
</svg>
